<svg width="637" height="452" viewBox="0 0 637 452" fill="none" xmlns="http://www.w3.org/2000/svg">
<rect width="637" height="452" fill="#E5E5E5" fill-opacity="0.01"/>
<path d="M225.5 38.5C168.192 7.63441 94.0775 12.2423 70.5 126C11.3908 138.019 1.99999 226.5 1.99999 226.5C1.57184 311.048 35.8614 284.475 58.25 298.25C51.4932 352.899 75.1305 358.113 114.5 370C136.554 436.32 203.509 453.298 254.5 405.5C306.793 443.969 335.701 447.272 386.5 419C463.173 460.096 497.614 459.364 545 419C612.537 379.979 627.465 348.006 615.5 274C644.542 217.449 641.006 188.347 600 141C583.024 63.1955 557.094 43.8236 475.5 61.5C409.657 3.78706 395.745 5.00096 330 27.5C315.828 7.29437 304.939 0.889912 278 2.00001C253.118 2.95252 240.038 6.50717 225.5 38.5Z" fill="#FDC7D1" stroke="black" stroke-width="3"/>
<path d="M317 190C317 214.29 297.087 234 272.5 234C247.913 234 228 214.29 228 190C228 165.71 247.913 146 272.5 146C297.087 146 317 165.71 317 190Z" fill="white" stroke="black" stroke-width="2"/>
<circle cx="344" cy="190" r="45" fill="white" stroke="black" stroke-width="2"/>
<path d="M338 143.981C348.898 143.981 355.06 142.805 359.962 133" stroke="black" stroke-width="3" stroke-linecap="round"/>
<path d="M360 147.321C367.217 147.321 372.855 146.34 377.082 140" stroke="black" stroke-width="3" stroke-linecap="round"/>
<path d="M377 158.881C384.934 158.881 386.728 157.067 392.862 154" stroke="black" stroke-width="3" stroke-linecap="round"/>
<path d="M283.761 147.082C277.705 142.35 274 137.801 274 130" stroke="black" stroke-width="3" stroke-linecap="round"/>
<path d="M261.642 146.422C252.905 144.717 247 142.727 247 133" stroke="black" stroke-width="3" stroke-linecap="round"/>
<path d="M242.862 157.66C236.794 158.844 230.198 160.397 227 154" stroke="black" stroke-width="3" stroke-linecap="round"/>
<path d="M342 190C342 197.086 335.606 203 327.5 203C319.394 203 313 197.086 313 190C313 182.914 319.394 177 327.5 177C335.606 177 342 182.914 342 190Z" fill="#C6FFFF" stroke="black" stroke-width="2"/>
<ellipse cx="324" cy="190.5" rx="6" ry="5.5" fill="black"/>
<path d="M292 190C292 197.086 285.606 203 277.5 203C269.394 203 263 197.086 263 190C263 182.914 269.394 177 277.5 177C285.606 177 292 182.914 292 190Z" fill="#C6FFFF" stroke="black" stroke-width="2"/>
<ellipse cx="279" cy="190.5" rx="6" ry="5.5" fill="black"/>
<path d="M158 249.091C172.252 273.01 188.841 287.061 214.504 299.581C231.396 307.822 250.105 312.383 268.298 316.636C284.45 320.413 302.181 318.531 318.705 318.531C333.794 318.531 347.616 317.689 362.472 314.877C379.786 311.599 401.241 306.697 414.843 294.708C421.566 288.782 428.577 283.606 434.829 277.111C439.351 272.414 442.95 265.985 446.957 260.732C450.123 256.581 458 248.118 458 243" stroke="black" stroke-width="3" stroke-linecap="round"/>
<path d="M435 236.084C443.755 236.084 449.676 234.99 456.013 240.694C458.854 243.25 461.309 244.548 463.741 247.676C466.057 250.653 465.97 253.867 467.944 256.827" stroke="black" stroke-width="3" stroke-linecap="round"/>
<path d="M179.063 244.253C169.398 242.367 160.633 241.311 155.27 250.964C152.368 256.188 151 262.607 151 268.656" stroke="black" stroke-width="3" stroke-linecap="round"/>
<path d="M70.9423 126.595C96.1104 131.506 98.6355 153.074 98.6355 175.359C98.6355 199.73 87.3094 218.592 70.9423 234.959" stroke="black" stroke-width="3" stroke-linecap="round"/>
<path d="M226.265 39.9034C229.032 46.9953 231.53 52.741 231.081 60.3722C230.678 67.2275 221.376 73.1973 218.104 78.433C211.622 88.8047 192.705 94.0856 181.18 94.0856C168.193 94.0856 153.939 91.0429 144.991 101.979C139.549 108.631 138.946 120.89 135.426 128.936C132.25 136.195 127.459 138.635 119.104 138.635" stroke="black" stroke-width="3" stroke-linecap="round"/>
<path d="M329.559 28.2963C318.428 30.468 312.318 39.3872 309.484 50.0141C307.498 57.4638 304.202 63.8981 304.202 71.8492C304.202 80.192 303.742 78.3799 297.334 76.9558C288.312 74.9508 279.361 75.9436 271.449 80.8885C264.173 85.4358 266.166 98.0951 266.166 105.424" stroke="black" stroke-width="3" stroke-linecap="round"/>
<path d="M475.361 63.1621C461.18 62.8245 447.098 58.6924 433.334 62.9273C429.549 64.0919 427.579 64.9378 424.119 66.86C420.646 68.7892 420.248 72.8095 417.78 74.784C414.544 77.3727 414.082 86.848 414.082 90.6321C414.082 96.0559 414.025 100.159 415.96 105.189C418.388 111.501 420.721 115.791 427.347 118.63C437.785 123.104 448.319 127.611 459.983 127.611C469.866 127.611 478.705 129.297 488.509 126.496C490.007 126.068 497.474 123.174 497.548 124.441C497.688 126.807 497.395 128.587 498.37 130.781C499.369 133.027 501.514 135.702 501.775 138.176C502.363 143.765 518.38 148.109 522.318 149.211C528.367 150.905 536.17 151.911 542.451 151.911C549.4 151.911 563.621 150.21 566.223 142.403" stroke="black" stroke-width="3" stroke-linecap="round"/>
<path d="M522.905 213.191C527.385 188.801 557.604 186.827 576.261 196.873C583.58 200.814 588.411 209.787 588.411 217.886C588.411 220.371 588.411 222.856 588.411 225.341C588.411 227.255 584.426 229.982 588.411 230.095C595.389 230.295 599.857 230.864 605.081 235.613C608.974 239.152 611.588 243.267 612.77 248.585C614.457 256.176 617.326 265.907 614.824 273.413" stroke="black" stroke-width="3" stroke-linecap="round"/>
<path d="M386.612 419.216C397.871 421.017 409.457 420.272 420.832 420.272C432.81 420.272 444.525 419.871 456.343 417.572C464.722 415.943 472.09 412.298 479.587 408.416C485.917 405.138 493.625 400.798 499.192 396.383C509.149 388.486 514.891 381.294 518.151 369.559C519.725 363.892 519.153 356.891 516.801 351.597C515.03 347.613 522.32 347.371 525.018 347.371C534.155 347.371 544.111 337.908 546.971 329.645C549.872 321.264 552.447 307.601 544.564 301.47C537.262 295.791 529.041 294.44 520.264 292.49C511.013 290.434 504.891 295.273 497.548 299.592C491.293 303.272 488.37 312.868 482.757 315.675" stroke="black" stroke-width="3" stroke-linecap="round"/>
<path d="M112.968 371.672C111.019 361.685 106.668 349.88 111.383 339.506C116.753 327.693 125.008 320.958 138.325 320.958C159.056 320.958 181.68 342.199 187.982 361.106" stroke="black" stroke-width="3" stroke-linecap="round"/>
</svg>
