<svg width="700" height="700" viewBox="0 0 700 700" fill="none" xmlns="http://www.w3.org/2000/svg">
<rect width="700" height="700" fill="#E5E5E5" fill-opacity="0.01"/>
<rect width="700" height="700" fill="#FFF5F5"/>
<path d="M251.5 186.5C194.192 155.634 120.078 160.242 96.5 274C37.3908 286.019 28 374.5 28 374.5C27.5718 459.048 61.8614 432.475 84.25 446.25C77.4932 500.899 101.131 506.113 140.5 518C162.554 584.32 229.509 601.298 280.5 553.5C332.793 591.969 361.701 595.272 412.5 567C489.173 608.096 523.614 607.364 571 567C638.537 527.979 653.465 496.006 641.5 422C670.542 365.449 667.006 336.347 626 289C609.024 211.196 583.094 191.824 501.5 209.5C435.657 151.787 421.745 153.001 356 175.5C341.828 155.294 330.939 148.89 304 150C279.118 150.953 266.038 154.507 251.5 186.5Z" fill="#FDC7D1" stroke="black" stroke-width="3"/>
<path d="M343 338C343 362.29 323.087 382 298.5 382C273.913 382 254 362.29 254 338C254 313.71 273.913 294 298.5 294C323.087 294 343 313.71 343 338Z" fill="white" stroke="black" stroke-width="2"/>
<circle cx="370" cy="338" r="45" fill="white" stroke="black" stroke-width="2"/>
<path d="M364 291.981C374.898 291.981 381.06 290.805 385.962 281" stroke="black" stroke-width="3" stroke-linecap="round"/>
<path d="M386 295.321C393.217 295.321 398.855 294.34 403.082 288" stroke="black" stroke-width="3" stroke-linecap="round"/>
<path d="M403 306.881C410.934 306.881 412.728 305.067 418.862 302" stroke="black" stroke-width="3" stroke-linecap="round"/>
<path d="M309.761 295.082C303.705 290.35 300 285.801 300 278" stroke="black" stroke-width="3" stroke-linecap="round"/>
<path d="M287.642 294.422C278.905 292.717 273 290.727 273 281" stroke="black" stroke-width="3" stroke-linecap="round"/>
<path d="M268.862 305.66C262.794 306.844 256.198 308.397 253 302" stroke="black" stroke-width="3" stroke-linecap="round"/>
<path d="M368 338C368 345.086 361.606 351 353.5 351C345.394 351 339 345.086 339 338C339 330.914 345.394 325 353.5 325C361.606 325 368 330.914 368 338Z" fill="#C6FFFF" stroke="black" stroke-width="2"/>
<ellipse cx="350" cy="338.5" rx="6" ry="5.5" fill="black"/>
<path d="M318 338C318 345.086 311.606 351 303.5 351C295.394 351 289 345.086 289 338C289 330.914 295.394 325 303.5 325C311.606 325 318 330.914 318 338Z" fill="#C6FFFF" stroke="black" stroke-width="2"/>
<ellipse cx="305" cy="338.5" rx="6" ry="5.5" fill="black"/>
<path d="M184 397.091C198.252 421.01 214.841 435.061 240.504 447.581C257.396 455.822 276.105 460.383 294.298 464.636C310.45 468.413 328.181 466.531 344.705 466.531C359.794 466.531 373.616 465.689 388.472 462.877C405.786 459.599 427.241 454.697 440.843 442.708C447.566 436.782 454.577 431.606 460.829 425.111C465.351 420.414 468.95 413.985 472.957 408.732C476.123 404.581 484 396.118 484 391" stroke="black" stroke-width="3" stroke-linecap="round"/>
<path d="M461 384.084C469.755 384.084 475.676 382.99 482.013 388.694C484.854 391.25 487.309 392.548 489.741 395.676C492.057 398.653 491.97 401.867 493.944 404.827" stroke="black" stroke-width="3" stroke-linecap="round"/>
<path d="M205.063 392.253C195.398 390.367 186.633 389.311 181.27 398.964C178.368 404.188 177 410.607 177 416.656" stroke="black" stroke-width="3" stroke-linecap="round"/>
<path d="M96.9423 274.595C122.11 279.506 124.635 301.074 124.635 323.359C124.635 347.73 113.309 366.592 96.9423 382.959" stroke="black" stroke-width="3" stroke-linecap="round"/>
<path d="M252.265 187.903C255.032 194.995 257.53 200.741 257.081 208.372C256.678 215.228 247.376 221.197 244.104 226.433C237.622 236.805 218.705 242.086 207.18 242.086C194.193 242.086 179.939 239.043 170.991 249.979C165.549 256.631 164.946 268.89 161.426 276.936C158.25 284.195 153.459 286.635 145.104 286.635" stroke="black" stroke-width="3" stroke-linecap="round"/>
<path d="M355.559 176.296C344.428 178.468 338.318 187.387 335.484 198.014C333.498 205.464 330.202 211.898 330.202 219.849C330.202 228.192 329.742 226.38 323.334 224.956C314.312 222.951 305.361 223.944 297.449 228.888C290.173 233.436 292.166 246.095 292.166 253.424" stroke="black" stroke-width="3" stroke-linecap="round"/>
<path d="M501.361 211.162C487.18 210.824 473.098 206.692 459.334 210.927C455.549 212.092 453.579 212.938 450.119 214.86C446.646 216.789 446.248 220.809 443.78 222.784C440.544 225.373 440.082 234.848 440.082 238.632C440.082 244.056 440.025 248.159 441.96 253.189C444.388 259.501 446.721 263.791 453.347 266.63C463.785 271.104 474.319 275.611 485.983 275.611C495.866 275.611 504.705 277.297 514.509 274.496C516.007 274.068 523.474 271.174 523.548 272.441C523.688 274.807 523.395 276.587 524.37 278.781C525.369 281.027 527.514 283.702 527.775 286.176C528.363 291.765 544.38 296.109 548.318 297.211C554.367 298.905 562.17 299.911 568.451 299.911C575.4 299.911 589.621 298.21 592.223 290.403" stroke="black" stroke-width="3" stroke-linecap="round"/>
<path d="M548.905 361.191C553.385 336.801 583.604 334.827 602.261 344.873C609.58 348.814 614.411 357.787 614.411 365.886C614.411 368.371 614.411 370.856 614.411 373.341C614.411 375.255 610.426 377.982 614.411 378.095C621.389 378.295 625.857 378.864 631.081 383.613C634.974 387.152 637.588 391.267 638.77 396.585C640.457 404.176 643.326 413.907 640.824 421.413" stroke="black" stroke-width="3" stroke-linecap="round"/>
<path d="M412.612 567.216C423.871 569.017 435.457 568.272 446.832 568.272C458.811 568.272 470.525 567.871 482.343 565.572C490.722 563.943 498.09 560.298 505.587 556.416C511.917 553.138 519.625 548.798 525.192 544.383C535.149 536.486 540.891 529.294 544.151 517.559C545.725 511.892 545.153 504.891 542.801 499.597C541.03 495.613 548.32 495.371 551.018 495.371C560.155 495.371 570.111 485.908 572.971 477.645C575.872 469.264 578.447 455.601 570.564 449.47C563.262 443.791 555.041 442.44 546.264 440.49C537.013 438.434 530.891 443.273 523.548 447.592C517.293 451.272 514.37 460.868 508.757 463.675" stroke="black" stroke-width="3" stroke-linecap="round"/>
<path d="M138.968 519.672C137.019 509.685 132.668 497.88 137.383 487.506C142.753 475.693 151.008 468.958 164.325 468.958C185.056 468.958 207.68 490.199 213.982 509.106" stroke="black" stroke-width="3" stroke-linecap="round"/>
</svg>
