<?xml version="1.0" encoding="UTF-8" standalone="no"?><svg xmlns:svg="http://www.w3.org/2000/svg" xmlns="http://www.w3.org/2000/svg" version="1.1" style="overflow:visible" viewBox="-250 -250 500 500" height="500px" width="500px"><rect fill-opacity="0" fill="rgb(0,0,0)" height="500" width="500" y="-250" x="-250" /><svg version="1.1" y="-250" x="-250" viewBox="-250 -250 500 500" height="500px" width="500px" style="overflow:visible"><g transform="rotate(0,0,0)" stroke-linejoin="round" fill="#fff"><path stroke-linecap="butt" stroke-linejoin="round" stroke="none" fill="rgb(197,216,116)" d="m0-195c-50.6262 0-75.0065 49.6907-91.6671 91.2915c-22.0144 54.9657-37.6243 102.35-38.8668 168.71c-1.34497 71.7843 58.4424 129.997999 130.532998 129.997999c72.0926 0 131.875-58.2144 130.532998-129.998c-1.24126-66.3506-16.8524-113.736-38.8668-168.71c-16.6631-41.5996-41.0372-91.2816-91.6658-91.2816z" /><path stroke-linecap="butt" stroke-linejoin="round" stroke="none" fill="rgb(210,226,140)" d="m0.728-180.4636c-31.5734-0.450837-54.4353 27.2185-65.8323 53.707c-31.1559 66.163-55.6866 139.037-49.3085 212.835c9.28594 58.0369 69.1763 101.931 127.449 93.7528c49.089-5.46819 93.6493-44.1546 100.992-93.2541c5.1678-35.4584-1.82255-71.398-9.42751-105.989c-11.45-45.0896-28.2245-89.0741-51.8298-129.211002c-11.7068-16.7686-30.2155-32.2634-52.0442-31.8459z" /><path stroke-linecap="butt" stroke-linejoin="round" stroke="none" fill="rgb(241,243,190)" d="m-0.351-165.851c-26.9017 1.47423-44.3283 26.5673-53.3884 49.342c-29.5171 64.098-53.4761 134.486-45.1282 205.835c12.5607 57.0507 82.0591 93.459 135.9 69.7318c41.002-15.4036 69.6766-59.8294 63.6921-103.196c-2.95007-67.5843-25.7294-133.387-58.0387-192.436c-9.3307-14.8748-23.9816-30.1085-43.0331-29.2747z" /><path stroke-linecap="butt" stroke-linejoin="round" stroke="none" fill="rgb(255,254,217)" d="m0.263-151.2384c-22.7026 2.68272-35.0915 25.5447-42.4364 44.7008c-27.4058 60.6731-50.4494 127.174-41.6051 194.273c11.0554 49.5594 73.7753 78.1792 119.405 56.6144c34.862-15.6874 56.4451-55.2831 50.7578-92.7427c-4.22909-41.6045-12.572-82.5341-28.3398-121.556c-10.1069-24.6109-21.3574-49.0045-36.7816-70.6481c-5.44278-5.74993-12.6471-11.0624-21.0001-10.6374z" /><path stroke-linecap="butt" stroke-linejoin="round" stroke="none" fill="rgb(219,204,198)" d="m79.279 61.545999a78.483 78.1612 0 0 1-78.483 78.1571a78.483 78.1612 0 0 1-78.483-78.1571a78.483 78.1612 0 0 1 78.483-78.1612a78.483 78.1612 0 0 1 78.483 78.1612z" /><path stroke-linecap="butt" stroke-linejoin="round" stroke="none" fill="rgb(105,76,69)" d="m71.805 61.543999a71.0085 70.7172 0 0 1-71.0084 70.7136a71.0085 70.7172 0 0 1-71.0085-70.7136a71.0085 70.7172 0 0 1 71.0085-70.7174a71.0085 70.7172 0 0 1 71.0084 70.7174z" /><path stroke-linecap="butt" stroke-linejoin="round" stroke="none" fill="rgb(133,96,88)" d="m4.676999 52.31a27.6853 27.5722 0 0 1-27.6853 27.5722a27.6853 27.5722 0 0 1-27.6853-27.5722a27.6853 27.5722 0 0 1 27.6853-27.5722a27.6853 27.5722 0 0 1 27.6853 27.5722z" /><path stroke-linecap="butt" stroke-linejoin="round" stroke-width="10" stroke-opacity="1" stroke="rgb(68,68,68)" fill="none" d="m0-195c-50.6262 0-75.0065 49.6907-91.6671 91.2915c-22.0144 54.9657-37.6243 102.35-38.8668 168.71c-1.34497 71.7843 58.4424 129.997999 130.532998 129.997999c72.0926 0 131.875-58.2144 130.532998-129.998c-1.24126-66.3506-16.8524-113.736-38.8668-168.71c-16.6631-41.5996-41.0372-91.2816-91.6658-91.2816z" /></g></svg></svg>