<?xml version="1.0" encoding="UTF-8" standalone="no"?><svg xmlns:svg="http://www.w3.org/2000/svg" xmlns="http://www.w3.org/2000/svg" version="1.1" style="overflow:visible" viewBox="-250 -250 500 500" height="500px" width="500px"><rect fill-opacity="0" fill="rgb(0,0,0)" height="500" width="500" y="-250" x="-250" /><svg version="1.1" y="-250" x="-250" viewBox="-250 -250 500 500" height="500px" width="500px" style="overflow:visible"><g transform="rotate(0,0,0)" stroke-linejoin="round" fill="#fff"><path stroke-linecap="butt" stroke-linejoin="round" stroke="none" fill="rgb(255,246,199)" d="m-20.020001-191.5986c-7.70475 5.70246-8.265091 18.1925-5.86916 33.4224c7.60314 48.3302 12.5343 91.3679-1.89476 157.905l27.7638 81.1854l23.4378-32.927501c8.52814-34.8201 16.9665-83.2519 14.0188-131.103001c-3.77412-61.2697-36.8217-93.9118-57.4566-108.482z" /><path stroke-linecap="butt" stroke-linejoin="round" stroke="none" fill="rgb(236,227,175)" d="m-2.239001-167.0062c-2.66152 0.01483-4.33697 2.87012-3.04986 5.19752c10.487 19.6034 14.7507 59.1082 14.1604 99.8339c-0.59031 40.7257-5.7721 82.9618-12.7223 108.804l6.77316 1.81765c7.21724-26.835 12.3618-69.2775 12.9597-110.521c0.59781-41.2435-3.08985-80.9977-14.9868-103.237c-0.60514-1.17009-1.81603-1.90226-3.13432-1.8952z" /><path stroke-linecap="butt" stroke-linejoin="round" stroke="none" fill="rgb(236,227,175)" d="m-6.91-195.0012c-1.99591-0.05057-4.0217 0.104273-6.0769 0.483499c-2.82013 0.52034-5.13968 1.51759-7.03342 2.91919c20.6349 14.5701 53.6826 47.2124 57.4566 108.482c2.94758 47.8516-5.49074 96.2834-14.0188 131.103l29.969-42.0978c12.2342-98.0706-1.34237-143.959-24.472-176.771c-9.4363-13.3862-21.853-23.7662-35.8245-24.1197z" /><path stroke-linecap="butt" stroke-linejoin="round" stroke-width="10" stroke-opacity="1" stroke="rgb(68,68,68)" fill="none" d="m-12.987-194.518c-14.294 2.63739-15.887 17.3692-12.9022 36.3425c7.60316 48.3302 12.5361 91.3672-1.89309 157.905l27.7622 81.1862l53.4083-75.0269c12.2342-98.0706-1.34211-143.958-24.4717-176.769c-10.7844-15.2985-25.462-26.6708-41.9035-23.6371z" /><path stroke-linecap="butt" stroke-linejoin="round" stroke="none" fill="rgb(241,213,66)" d="m55.468999 13.271l-16.8906-17.4329l-38.4629 54.0402l-38.132 56.1255l-5.46566 83.3636l1.25068 0.54137l11.7699 5.09265c68.9861-37.354 72.8313-132.435 85.9304-181.73z" /><path stroke-linecap="butt" stroke-linejoin="round" stroke="none" fill="rgb(255,227,79)" d="m-32.130001 2.623999c4.52712 44.705-39.0912 145.44-22.3784 181.974l11.0261 4.76925c23.2826-43.0019 37.5499-89.8439 43.5976-139.489l-19.3432-48.2262z" /><path stroke-linecap="butt" stroke-linejoin="round" stroke-width="10" stroke-opacity="1" stroke="rgb(68,68,68)" fill="none" d="m-32.130001 2.622999c4.5271 44.705-39.0898 145.44-22.377 181.974l24.045 10.4028c68.986-37.3541 72.8313-132.434 85.9304-181.73l-16.8896-17.4324l-38.4621 54.0398l-19.344-48.2258z" /><path stroke-linecap="butt" stroke-linejoin="round" stroke-width="10" stroke-opacity="1" stroke="rgb(68,68,68)" fill="none" d="m-43.482 189.367c23.2826-43.0019 37.5499-89.8439 43.5976-139.489" /><path stroke-linecap="butt" stroke-linejoin="round" stroke-width="10" stroke-opacity="1" stroke="rgb(68,68,68)" fill="rgb(255,246,199)" d="m0.116 49.877999c18.8127-70.9731 76.0662-81.0187 103.252-58.7803c21.6812 17.7356 26.4032 51.3138 25.0514 94.4631c-0.7595 24.2432 14.5933 34.056 8.1098 44.5587c-6.15448 9.96981-37.9069-2.03499-50.5985-27.4753c-10.0358-20.1167-12.3132-37.2548-14.5756-53.6355c-8.28378-59.9745-54.2563-23.3354-71.239 0.86938z" /><path stroke-linecap="butt" stroke-linejoin="round" stroke-width="10" stroke-opacity="1" stroke="rgb(68,68,68)" fill="rgb(255,246,199)" d="m-0.464 47.738c1.0105-57.8456-36.1252-88.5967-78.2755-80.4085c-28.0997 5.45872-44.0792 46.1036-45.1088 88.6818c-0.58633 24.2478-18.3152 28.2971-13.4953 39.6603c4.57516 10.7865 26.8663 6.43655 45.9641-15.7111c10.358-12.0121 15.2518-29.3398 20.9287-44.8708c20.5441-56.2047 60.9347-13.8483 69.987 12.6483z" /></g></svg></svg>