<?xml version="1.0" encoding="UTF-8" standalone="no"?><svg xmlns:svg="http://www.w3.org/2000/svg" xmlns="http://www.w3.org/2000/svg" version="1.1" style="overflow:visible" viewBox="-250 -250 500 500" height="500px" width="500px"><rect fill-opacity="0" fill="rgb(0,0,0)" height="500" width="500" y="-250" x="-250" /><svg version="1.1" y="-250" x="-250" viewBox="-250 -250 500 500" height="500px" width="500px" style="overflow:visible"><g transform="rotate(0,0,0)" stroke-linejoin="round" fill="#fff"><path stroke-linecap="butt" stroke-linejoin="round" stroke-width="6" stroke-opacity="1" stroke="rgb(0,0,0)" fill="rgb(0,0,0)" d="m-88.32-159.4632c59.819-65.825901 227.312-50.0152 216.379 87.699c-3.00501 37.8619-35.3649 64.4184-46.9584 95.4021c-15.6624 41.8577 9.66347 66.7038 27.3257 104.036c-63.5028 10.0915-46.3753 71.9877-137.967 69.2402c38.9358-51.4613 64.2774-88.9263 10.7602-128.598002c-5.22888-3.5593-15.1368-8.89915-33.8555-6.97421c-9.5538 0.98242-22.5254 9.4774-33.7504 0.0322c-4.4576-3.75069-3.71819-20.6989-3.71819-20.6989c-1.60386-5.15774-11.4121-7.30635-11.3346-14.6476c0.0712-6.70322 5.25776-6.76569 8.36711-8.37994c-7.53198-3.45317-20.1053 2.60513-20.9596-11.4976c7.89682-5.27284 7.13074-10.9387 6.8562-15.342c0 0-20.9651-5.1636-21.3845-13.5906c-0.44488-8.92856 17.7572-11.1361 26.3452-43.8047c3.95378-15.0412-9.07377-37.0039-2.64349-60.7112c5.27281-19.4395 16.535499-32.16 16.535499-32.16z" /><path stroke-linecap="butt" stroke-linejoin="round" stroke-width="6" stroke-opacity="1" stroke="rgb(0,0,0)" fill="rgb(248,220,200)" d="m45.238-45.628l18.0877 69.8627l-19.512 5.60654l-22.566-79.3676z" /><path stroke-linecap="butt" stroke-linejoin="round" stroke="none" fill="rgb(128,180,254)" d="m104.281999-89.071c14.8016 79.35-73.8813 81.6108-104.422 31.3792z" /><path stroke-linecap="round" stroke-linejoin="round" stroke-width="6" stroke-opacity="1" stroke="rgb(0,0,0)" fill="none" d="m102.463-51.593c-10.1548 7.70612-21.9016 14.684-35.2923 17.9191m-42.1677 0.29236c21.352-4.57894 49.9824-13.9886 62.5861-30.24" /><path stroke-linecap="butt" stroke-linejoin="round" stroke-width="6" stroke-opacity="1" stroke="rgb(0,0,0)" fill="none" d="m104.281999-89.071c14.8016 79.35-73.8813 81.6108-104.422 31.3792z" /><path stroke-linecap="butt" stroke-linejoin="round" stroke="none" fill="rgb(155,254,128)" d="m96.322-135.505l-38.9001 53.0142l-61.1786-3.81404l-6.5595-50.4138l26.0129-39.6887c48.9863 3.14798 71.3319 23.3591 80.6256 40.9013z" /><path stroke-linecap="butt" stroke-linejoin="round" stroke-width="6" stroke-opacity="1" stroke="rgb(0,0,0)" fill="none" d="m96.322-135.505l-38.9001 53.0142l-61.1786-3.81404l-6.5595-50.4138l26.0129-39.6887c48.9863 3.14798 71.3319 23.3591 80.6256 40.9013z" /><path stroke-linecap="round" stroke-linejoin="round" stroke-width="6" stroke-opacity="1" stroke="rgb(0,0,0)" fill="none" d="m48.839999-140.095c10.5654 6.66738 9.76021 16.412099 2.008779 24.6165m25.3724-23.1673c-2.50511-6.53076-11.265-12.3878-18.5175-16.6408m-43.6264-10.6597c7.94147 4.50101 15.5121 6.40854 22.5719 4.73718m31.0259-1.95604c-8.9299 10.6982-24.5124 13.4827-38.6387 15.5208m-22.039 18.8163c8.51933-3.88002 16.8753-5.9267 30.9521-4.61679" /><path stroke-linecap="butt" stroke-linejoin="round" stroke="none" fill="rgb(239,254,128)" d="m-23.559-63.044001s-66.039 5.06856-66.130701-36.614c-0.10247-46.6177 43.8669-81.7773 105.386-76.7532c-5.42012 36.2328-16.443001 98.8734-39.257 113.365z" /><path stroke-linecap="round" stroke-linejoin="round" stroke-width="6" stroke-opacity="1" stroke="rgb(0,0,0)" fill="none" d="m-28.309-172.6732c3.34791 5.12855 4.7763 9.57486 3.96994 15.0986m-1.3223 43.7327c21.9359-9.79934 19.0722-21.5556 15.1317-41.491m-39.3458 27.7528c4.60704-4.23093 15.0706-4.60061 21.109-2.61719m-54.305 0.5062c7.38278 0.21621 15.3462 2.9719 20.7252 7.16115m-2.40968 18.5143c-1.52657 6.69495-0.83148 13.4986 4.89846 18.0171m17.7237-20.2035c-2.07035 18.4066-9.22901 31.726-23.8404 37.5974m78.0666-85.5806c-25.4482-17.5531-29.6317 21.4324-54.3077 8.03276m-20.8317-8.93745c20.1865 22.0951 18.1422 51.7696-11.7577 52.7597" /><path stroke-linecap="butt" stroke-linejoin="round" stroke-width="6" stroke-opacity="1" stroke="rgb(0,0,0)" fill="none" d="m-23.559-63.044001s-66.039 5.06856-66.130701-36.614c-0.10247-46.6177 43.8669-81.7773 105.386-76.7532c-5.42012 36.2328-16.443001 98.8734-39.257 113.365z" /><path stroke-linecap="butt" stroke-linejoin="round" stroke="none" fill="rgb(128,254,150)" d="m30.189999-117.201c-33.0359 2.9033-60.9222 18.9479-62.9475 39.6657c-4.78284 48.9239 103.14 25.4953 108.209 3.81396c6.696-28.6156-15.6981-46.0774-45.2653-43.4789z" /><path stroke-linecap="round" stroke-linejoin="round" stroke-width="6" stroke-opacity="1" stroke="rgb(0,0,0)" fill="none" d="m15.451999-114.973001c1.50514 3.92503 2.58856 8.18727 1.30841 14.3397m30.0107 28.3074c1.57654 5.85053 0.82541 11.7227-0.96998 17.6042m20.9362-31.3005c-12.3902-0.33083-36.3697-3.44746-42.4375 24.3937m-29.3586-27.7277c1.28603 10.6915 2.38556 21.3085-7.34845 27.5937m18.802 13.0932c8.32604-8.58807 7.26265-20.5922 5.85487-29.708m-30.7477-21.8186c14.6784 26.7418 43.4019-3.17871 66.9632-0.86048" /><path stroke-linecap="butt" stroke-linejoin="round" stroke-width="6" stroke-opacity="1" stroke="rgb(0,0,0)" fill="none" d="m30.189999-117.201c-33.0359 2.9033-60.9222 18.9479-62.9475 39.6657c-4.78284 48.9239 103.14 25.4953 108.209 3.81396c6.696-28.6156-15.6981-46.0774-45.2653-43.4789z" /><path stroke-linecap="butt" stroke-linejoin="round" stroke="none" fill="rgb(128,254,249)" d="m96.322-135.505c6.307 10.0012 13.7928 31.0659 11.3119 39.6641c-5.30455 17.9258-35.9617 28.031-35.9617 28.031c-10.6316-25.5145-7.17157-56.2461 24.6498-67.6952z" /><path stroke-linecap="butt" stroke-linejoin="round" stroke-width="6" stroke-opacity="1" stroke="rgb(0,0,0)" fill="none" d="m96.322-135.505c6.307 10.0012 13.7928 31.0659 11.3119 39.6641c-5.30455 17.9258-35.9617 28.031-35.9617 28.031c-10.6316-25.5145-7.17157-56.2461 24.6498-67.6952z" /><path stroke-linecap="round" stroke-linejoin="round" stroke-width="6" stroke-opacity="1" stroke="rgb(0,0,0)" fill="none" d="m82.882999-103.898c0.80247-6.78591 3.51248-12.4281 10.5495-15.5166m-26.9631 21.2716c8.35063-9.67118 24.2845-6.605 29.3393 2.00603m-20.1564 4.25155c10.9433 3.96397 10.733 10.317 13.1812 16.101299" /></g></svg></svg>