<?xml version="1.0" encoding="UTF-8" standalone="no"?><svg xmlns:svg="http://www.w3.org/2000/svg" xmlns="http://www.w3.org/2000/svg" version="1.1" style="overflow:visible" viewBox="-250 -250 500 500" height="500px" width="500px"><rect fill-opacity="0" fill="rgb(0,0,0)" height="500" width="500" y="-250" x="-250" /><svg version="1.1" y="-250" x="-250" viewBox="-250 -250 500 500" height="500px" width="500px" style="overflow:visible"><g transform="rotate(0,0,0)" stroke-linejoin="round" fill="#fff"><path stroke-linecap="butt" stroke-linejoin="round" stroke-width="6" stroke-opacity="1" stroke="rgb(68,68,68)" fill="rgb(255,213,207)" d="m162.753-73.052s13.2129 3.43254 18.2938-1.59193c6.85886-6.7827 3.33819-14.8115-4.57345-14.9243c-6.70901-0.0957-8.332891-10.5691-0.79539-11.9394c6.08361-1.10601 12.3284 1.59192 17.1008 6.96467c6.03073 6.78956 5.42292 19.2777-1.59078 27.4608c-9.80553 11.4403-25.6511 5.77075-25.6511 5.77075z" /><path stroke-linecap="butt" stroke-linejoin="round" stroke="none" fill="rgb(226,182,175)" d="m149.051 86.846999c-6.09058 6.24339-10.8099 18.0772-10.8099 31.1372h10.4874l6.90987-6.7305l0.68074 6.7305h12.2069c2.11842-10.5492 3.69922-19.7829 4.90959-28.0308l-12.5804-9.19631z" /><path stroke-linecap="butt" stroke-linejoin="round" stroke="none" fill="rgb(226,182,175)" d="m-64.120001 91.449999s-9.42934 11.8487-10.7304 26.5342h10.6884l6.76954-6.10375l1.53321 6.10375h12.3577l4.63939-25.4777l-10.6817-10.4927z" /><path stroke-linecap="butt" stroke-linejoin="round" stroke="none" fill="rgb(226,182,175)" d="m-189.725-21.167c-4.66606-0.13974-9.02487 3.79452-6.70671 9.73207c4.03226 10.3282 12.1081 19.4319 18.2665 28.4835c3.34348 0.58084 9.5937 0.0938 15.3466-0.43598l-5.40355-21.0186l-16.9702-15.1869c-1.3878-1.028211-2.97723-1.52756-4.53258-1.57415z" /><path stroke-linecap="butt" stroke-linejoin="round" stroke="none" fill="rgb(255,213,207)" d="m-110.706-117.982c-25.0929 18.4537-23.1012 35.777-20.7673 48.6331c-11.5662 12.7477-30.3486 40.0739-53.7196 49.7559c4.42113 11.3088 13.4589 23.7723 22.3739 36.2054c3.87921-0.35721 7.58019-0.73144 9.83385-0.81537c16.7975 9.97653 34.7383 19.1779 68.3346 18.783c14.0729 10.085 24.7923 30.6059 20.5291 56.8692l25.258 1.05643c12.0507-19.0564 15.2151-24.5823 24.6213-43.0596c62.8572 0 83.6163 25.4665 147.214 0.98724c12.2714 10.8982 16.500399 19.7927 16.0777 36.413l24.3846 3.10638c5.83777-39.7809 2.3587-54.846 1.20645-64.041302c-2.024091-16.153301 17.7253-66.9314-6.40299-104.028c-32.4544-49.8979-134.006 27.5604-268.568 7.91687c5.85796-24.5359-8.76462-24.6017-10.3763-47.7821z" /><path stroke-linecap="butt" stroke-linejoin="round" stroke="none" fill="rgb(226,182,175)" d="m-123.009-70.598001c-4.29435-11.0672-0.86896-23.3089 7.19066-30.3889c9.21027 9.72076 8.14753 22.5704 7.05736 29.9976c-3.12488-0.0329-9.76294-0.66474-14.248 0.39131z" /><path stroke-linecap="butt" stroke-linejoin="round" stroke="none" fill="rgb(59,56,59)" d="m-111.503-34.960001a6.64334 6.64822 0 0 1-6.64333 6.64821a6.64334 6.64822 0 0 1-6.64334-6.64821a6.64334 6.64822 0 0 1 6.64334-6.64822a6.64334 6.64822 0 0 1 6.64333 6.64822z" /><path stroke-linecap="butt" stroke-linejoin="round" stroke-width="6" stroke-opacity="1" stroke="rgb(68,68,68)" fill="none" d="m-110.702-117.984001c-25.0955 18.4544-23.1036 35.7786-20.7698 48.6351c-11.5662 12.7477-30.3494 40.0746-53.7205 49.7566c-5.55121-4.112842-14.33 0.24011-11.2391 8.15685c4.03226 10.3282 12.1095 19.4334 18.2678 28.485c5.59799 0.9725 19.5833-1.04457 25.1792-1.25297c16.7975 9.97653 34.7382 19.1784 68.3346 18.7836c14.0729 10.085 24.7924 30.606 20.5292 56.8694c0 0-9.42942 11.8488-10.7304 26.5343h10.6885l6.76903-6.10348l1.5347 6.10348h12.3566l4.64095-25.4784c12.0507-19.0564 15.2133-24.5823 24.6195-43.0596c62.8572 0 83.6185 25.4681 147.216 0.98887c12.2714 10.8982 16.502099 19.7922 16.0794 36.4125c-6.09058 6.24338-10.8105 18.0767-10.8105 31.1367h10.487l6.91017-6.72994l0.68074 6.72994h12.205c12.3358-61.4293 7.50765-80.9704 6.11653-92.0722c-2.0241-16.153301 17.724-66.930401-6.40436-104.027c-32.4544-49.8979-134.002001 27.5594-268.564 7.91588c5.85813-24.5367-8.76556-24.6019-10.3765-47.7844z" /></g></svg></svg>