<?xml version="1.0" encoding="UTF-8" standalone="no"?><svg xmlns:svg="http://www.w3.org/2000/svg" xmlns="http://www.w3.org/2000/svg" version="1.1" style="overflow:visible" viewBox="-250 -250 500 500" height="500px" width="500px"><rect fill-opacity="0" fill="rgb(0,0,0)" height="500" width="500" y="-250" x="-250" /><svg version="1.1" y="-250" x="-250" viewBox="-250 -250 500 500" height="500px" width="500px" style="overflow:visible"><g transform="rotate(0,0,0)" stroke-linejoin="round" fill="#fff"><path stroke-linecap="butt" stroke-linejoin="round" stroke-width="12" stroke-opacity="1" stroke="rgb(68,68,68)" fill="rgb(241,193,58)" d="m-157 4.092999l4.18248 44.8403c32.5053-1.08291 33.3696 44.9745 4.88784 50.1002l1.57935 21.0496l294.222-4.65559l2.34812-44.131c-24.3562-11.0448-21.061-45.6499 5.21267-50.237l1.56739-29.4001l-163.043-24.7419z" /><path stroke-linecap="butt" stroke-linejoin="round" stroke-width="12" stroke-opacity="1" stroke="rgb(68,68,68)" fill="rgb(241,193,58)" d="m-15.236 51.178999a27.4166 27.4166 0 0 1-27.4166 27.4166a27.4166 27.4166 0 0 1-27.4166-27.4166a27.4166 27.4166 0 0 1 27.4166-27.4166a27.4166 27.4166 0 0 1 27.4166 27.4166z" /><path stroke-linecap="butt" stroke-linejoin="round" stroke-width="12" stroke-opacity="1" stroke="rgb(68,68,68)" fill="rgb(241,193,58)" d="m74.678999 71.72a19.6653 19.6653 0 0 1-19.6653 19.6653a19.6653 19.6653 0 0 1-19.6653-19.6653a19.6653 19.6653 0 0 1 19.6653-19.6653a19.6653 19.6653 0 0 1 19.6653 19.6653z" /><path stroke-linecap="butt" stroke-linejoin="round" stroke-width="12" stroke-opacity="1" stroke="rgb(68,68,68)" fill="rgb(255,224,87)" d="m-157 4.092999l314-12.4336c-31.5173-55.6644-95.1216-101.176-175.982-111.742l-54.6644 48.4321c27.9241 16.467099-3.47072 44.3667-39.6252 36.4006z" /><path stroke-linecap="butt" stroke-linejoin="round" stroke-width="12" stroke-opacity="1" stroke="rgb(68,68,68)" fill="rgb(241,193,58)" d="m89.507-44.743a26.742 17.2466 0 0 1-26.742 17.2466a26.742 17.2466 0 0 1-26.742-17.2466a26.742 17.2466 0 0 1 26.742-17.2466a26.742 17.2466 0 0 1 26.742 17.2466z" /><path stroke-linecap="butt" stroke-linejoin="round" stroke-width="12" stroke-opacity="1" stroke="rgb(68,68,68)" fill="rgb(241,193,58)" d="m7.658-77.794001a17.7919 11.1539 0 0 1-17.7919 11.1539a17.7919 11.1539 0 0 1-17.7919-11.1539a17.7919 11.1539 0 0 1 17.7919-11.154a17.7919 11.1539 0 0 1 17.7919 11.154z" /></g></svg></svg>