<?xml version="1.0" encoding="UTF-8" standalone="no"?><svg xmlns:svg="http://www.w3.org/2000/svg" xmlns="http://www.w3.org/2000/svg" version="1.1" style="overflow:visible" viewBox="-250 -250 500 500" height="500px" width="500px"><rect fill-opacity="0" fill="rgb(0,0,0)" height="500" width="500" y="-250" x="-250" /><svg version="1.1" y="-250" x="-250" viewBox="-250 -250 500 500" height="500px" width="500px" style="overflow:visible"><g transform="rotate(0,0,0)" stroke-linejoin="round" fill="#fff"><path stroke-linecap="butt" stroke-linejoin="round" stroke="none" fill="rgb(56,187,48)" d="m186.551-42.789c-1.74585 0.15335-3.41661 0.78622-4.8319 1.8303c-6.41768-5.93135-18.4734-9.15777-34.7133-6.10162c-36.3658 6.84266-69.9268 12.4355-101.534 16.1475c-1.25226-2.84534-4.14743-4.57843-7.21405-4.31843c-3.19173 0.27743-5.81974 2.64744-6.45682 5.82292c-19.9966 2.02728-39.2214 3.21949-57.9042 3.42434c-1.30821-2.72412-4.13974-4.35287-7.12126-4.09626c-2.52692 0.22247-4.75213 1.76884-5.86316 4.07449c-39.2215-0.57489-76.2063-5.83569-113.053-17.4921c-15.4628-4.89169-28.5385-4.43609-36.4877 0.006l-3.02066 6.42635l-4.85544 3.69001c-0.0507 0.23379-0.107504 0.46421-0.147611 0.70323c-2.15949 12.8738 5.22564 34.9858 37.2438 48.7746c31.8948 13.7391 64.7805 22.7418 99.0166 26.6121c0.86821 3.47494 4.09727 5.80413 7.62648 5.50114c2.59505-0.2264 4.86737-1.84799 5.94784-4.24453c18.9832 1.37842 38.3854 1.19304 58.2726-0.62197c1.12612 3.09279 4.157149 5.04391 7.40214 4.76488c3.36594-0.29302 6.07953-2.90607 6.53442-6.29229c17.3127-2.21716 35.0001-5.6731 53.0866-10.3721c1.42713 2.37266 4.058519 3.7246 6.79263 3.48988c3.69151-0.31915 6.54347-3.41078 6.60352-7.15847c21.3112-6.20151 43.1858-14.129 65.6866-23.8555c16.649-7.19786 25.754-17.9875 28.4933-27.3857c0.71248 0.10396 1.43415 0.126738 2.15147 0.0679c5.29393-0.45691 9.21464-5.16899 8.75746-10.525s-5.11916-9.32794-10.4132-8.87173z" /><path stroke-linecap="butt" stroke-linejoin="round" stroke="none" fill="rgb(34,148,27)" d="m-89.936-14.69c-34.3744-2.30105-74.5894-16.3952-98.6913-28.8024c-4.178201 2.33466-6.93416 5.77202-7.8761 10.1163c7.27831 15.2864 23.9927 26.4739 42.8002 34.8896c20.1705 9.02558 43.0421 14.7934 60.5739 17.8235c2.23638 0.41979 4.27662-1.36921 4.17284-3.659c-0.0759-1.69023-1.32243-3.09339-2.98125-3.35592c-17.0628-2.949-39.5271-8.64289-58.9013-17.3122c-17.9506-8.03223-32.9833-18.6809-39.1726-31.2314c25.12 12.6298 64.5851 26.2853 99.6111 28.6301c2.12456 0.17303 3.91505-1.57552 3.81737-3.56c-0.0977-1.98449-1.54315-3.44405-3.35283-3.53871z" /><path stroke-linecap="butt" stroke-linejoin="round" stroke="none" fill="rgb(121,239,114)" d="m81.108-14.871001c-0.28906-3.39429-3.24356-5.91169-6.5986-5.62236c-3.35502 0.28936-5.83971 3.27583-5.54931 6.67c0.29025 3.39328 3.24426 5.9093 6.5984 5.62005c3.35413-0.28928 5.83857-3.27431 5.54951-6.66769zm-18.4146 26.0189c-0.28905-3.39429-3.24354-5.91169-6.59857-5.62238c-3.35504 0.28936-5.83973 3.27584-5.54932 6.67002c0.29025 3.39328 3.24426 5.9093 6.5984 5.62005c3.35413-0.28929 5.83855-3.27432 5.54949-6.66769zm-28.8152-16.7937c-0.28907-3.39428-3.24357-5.91166-6.59859-5.62234c-3.35502 0.28936-5.8397 3.27582-5.54931 6.66999c0.29025 3.39327 3.24425 5.90928 6.59839 5.62004c3.35413-0.28928 5.83857-3.27431 5.54951-6.66769zm-20.9495 21.7829c-0.29025-3.39326-3.24424-5.90927-6.59837-5.62004c-3.35413 0.28928-5.83857 3.27431-5.54951 6.66769c0.28906 3.39429 3.24355 5.91169 6.59858 5.62237c3.35503-0.28937 5.83971-3.27585 5.5493-6.67002zm-25.0272-17.3924c-0.29025-3.39327-3.24425-5.90928-6.59839-5.62004c-3.35413 0.28928-5.83857 3.27431-5.54951 6.66769c0.28907 3.39428 3.24356 5.91166 6.59858 5.62234c3.35502-0.28936 5.83971-3.27582 5.54932-6.66999zm-24.0664 18.8386c-0.29025-3.39328-3.24425-5.90929-6.59839-5.62005c-3.35414 0.28928-5.83858 3.27432-5.54951 6.6677c0.28906 3.39429 3.24356 5.91168 6.59859 5.62236c3.35503-0.28936 5.83971-3.27584 5.54931-6.67001zm-24.0095-19.4169c-0.28906-3.39429-3.24356-5.91168-6.59859-5.62236c-3.35502 0.28936-5.83971 3.27583-5.54931 6.67c0.29025 3.39327 3.24424 5.90929 6.59838 5.62005c3.35414-0.28928 5.83858-3.27431 5.54952-6.66769z" /><path stroke-linecap="butt" stroke-linejoin="round" stroke="none" fill="rgb(80,224,71)" d="m167.411-24.861c-3.41364 6.24882-15.4024 13.3044-29.5928 18.8293c-14.1904 5.52496-30.2576 10.0136-41.6353 13.7601c-4.50225 1.45988-2.29157 8.26631 2.19707 6.76453c11.0881-3.65116 27.3284-8.17855 41.9868-13.8858c14.6585-5.7072 28.2183-12.0202 33.2719-22.111c2.36844-4.72921-4.33879-6.81492-6.2277-3.35718z" /><path stroke-linecap="butt" stroke-linejoin="round" stroke-width="6" stroke-opacity="1" stroke="rgb(68,68,68)" fill="none" d="m186.552-42.79c-1.7459 0.15403-3.41652 0.78761-4.83148 1.83235c-6.41767-5.93136-18.4738-9.15767-34.7138-6.10152c-36.3658 6.84266-69.9272 12.4348-101.534 16.146799c-1.25189-2.84624-4.147612-4.58007-7.21488-4.31994c-3.19199 0.27752-5.82008 2.64792-6.45685 5.82374c-19.9966 2.027289-39.2219 3.22101-57.9046 3.42586c-1.30784-2.72426-4.13912-4.35337-7.12064-4.0972c-2.52733 0.22241-4.75287 1.76915-5.8638 4.07531c-39.2215-0.57488-76.2061-5.83654-113.052-17.4929c-24.0278-7.60119-42.3083-2.30457-44.5111 10.8257c-2.15949 12.8738 5.22722 34.9855 37.2455 48.7744c31.8948 13.7391 64.778898 22.7412 99.015 26.6115c0.86779 3.47548 4.09713 5.80523 7.62675 5.50221c2.59487-0.22672 4.86689-1.84842 5.94713-4.24489c18.9832 1.37843 38.3871 1.19368 58.2744-0.62134c1.12659 3.09151 4.156659 5.04168 7.40067 4.7631c3.36601-0.29288 6.07974-2.90589 6.53471-6.29216c17.3127-2.21718 34.9998-5.6713 53.0863-10.3703c1.42748 2.37227 4.05891 3.72372 6.79284 3.48867c3.69149-0.31904 6.54354-3.41055 6.60373-7.15821c21.3112-6.2015 43.1868-14.129 65.6877-23.8555c16.6491-7.19786 25.7532-17.9879 28.4924-27.3861c0.71279 0.1041 1.43478 0.12695 2.15243 0.0681c5.2938-0.45734 9.2141-5.1696 8.75688-10.5254s-5.11882-9.32794-10.4128-8.87218z" /></g></svg></svg>