<?xml version="1.0" encoding="UTF-8" standalone="no"?><svg xmlns:svg="http://www.w3.org/2000/svg" xmlns="http://www.w3.org/2000/svg" version="1.1" style="overflow:visible" viewBox="-250 -250 500 500" height="500px" width="500px"><rect fill-opacity="0" fill="rgb(0,0,0)" height="500" width="500" y="-250" x="-250" /><svg version="1.1" y="-250" x="-250" viewBox="-250 -250 500 500" height="500px" width="500px" style="overflow:visible"><g transform="rotate(45,0,0)" stroke-linejoin="round" fill="#fff"><path stroke-linecap="butt" stroke-linejoin="round" stroke-width="6" stroke-opacity="1" stroke="rgb(68,68,68)" fill="rgb(175,218,120)" d="m-3.867-220.1292l-4.97852 49.7598l-6.39845-41.1797l-17.6406 3.23243l13.7621 87.2462l48.4245-1.78907l13.1846-86.215l-15.4121-2.81446l-15.4356 66.0138l1.97266-72.6075z" /><path stroke-linecap="butt" stroke-linejoin="round" stroke-width="6" stroke-opacity="1" stroke="rgb(68,68,68)" fill="rgb(175,218,120)" d="m7.000999-126.871c-22.2015-14.5419-36.244-51.5401-40.505-90.2059l-15.2447 3.61781c6.25261 53.3118 21.9189 89.3838 38.4798 91.7216z" /><path stroke-linecap="butt" stroke-linejoin="round" stroke-width="6" stroke-opacity="1" stroke="rgb(68,68,68)" fill="rgb(175,218,120)" d="m3.235-125.953c21.8897-15.0071 35.1484-52.2934 38.5926-91.0405l15.3176 3.29533c-5.12629 53.4319-20.028 89.8264-36.5358 92.5131z" /><path stroke-linecap="butt" stroke-linejoin="round" stroke-width="6" stroke-opacity="1" stroke="rgb(68,68,68)" fill="rgb(175,218,120)" d="m-13.068001-131.367001c24.4718-29.1042 22.4296-57.77 25.4077-95.293l16.599599-0.340332c-1.43008 35.8902-4.41426 72.4695-22.3587 103.121z" /><path stroke-linecap="butt" stroke-linejoin="round" stroke-width="6" stroke-opacity="1" stroke="rgb(68,68,68)" fill="rgb(175,218,120)" d="m21.815999-127.283c-24.4717-29.1042-22.0909-60.4927-25.0689-98.0156l-16.5997-0.340333c5.15654 51.8858-1.68358 74.5115 16.2609 105.163z" /><path stroke-linecap="butt" stroke-linejoin="round" stroke="none" fill="rgb(246,255,235)" d="m-52.798-89.114c-3.03574 12.7242-5.6044 26.8903-7.56004 41.5345l60.5395 26.7403l62.1695-26.1055c-1.13234-14.2756-2.66665-27.1014-4.50961-38.3592l-55.7833-18.7238z" /><path stroke-linecap="butt" stroke-linejoin="round" stroke="none" fill="rgb(255,255,255)" d="m38.773-49.193001c-33.3441-0.10371-81.3424 7.11195-99.1309 1.61328c-2.6536 19.8704-4.17969 40.6102-4.17969 59.8125c0 81.6577 26.2096 165.742 45.6172 187.574c3.14065 3.53286 7.12778 10.2898 6.85937 14.9141c-0.71536 12.3241 8.9819 17.7038 15.1055 5.14649c2.73853-5.61576 4.42998-13.56 8.74414-18.5977c22.6192-26.4126 52.748-102.937 52.748-189.035c0-21.7641-0.79023-41.5646-2.1875-59.1797c-6.05343-1.61625-14.2407-2.21901-23.5762-2.24805z" /><path stroke-linecap="butt" stroke-linejoin="round" stroke="none" fill="rgb(237,255,215)" d="m1.917-144.439c-14.9145-0.10292-29.6012 1.45494-33.8923 5.47915c-7.88882 7.39828-15.1488 26.1242-20.8081 49.8464c28.3741 13.0208 75.2258-0.76482 110.606 3.81005c-5.14979-31.4408-12.6975-50.6517-20.6476-54.6522c-5.20093-2.61708-20.3434-4.38048-35.2579-4.4834z" /><path stroke-linecap="butt" stroke-linejoin="round" stroke-width="6" stroke-opacity="1" stroke="rgb(68,68,68)" fill="none" d="m1.917-144.439c-14.9145-0.10292-29.6012 1.45493-33.8923 5.47915c-17.8637 16.7529-32.5618 91.446-32.5618 151.193c0 81.6577 26.2095 165.742 45.6171 187.574c3.14065 3.53286 7.12724 10.2894 6.85883 14.9137c-0.71536 12.3241 8.98303 17.7039 15.1066 5.1466c2.73853-5.61576 4.42852-13.5593 8.74268-18.597c22.6192-26.4126 52.7487-102.939 52.7487-189.037c0-88.6985-13.0501-144.987-27.3619-152.189c-5.20093-2.61708-20.3434-4.38048-35.2579-4.4834z" /></g></svg></svg>