<?xml version="1.0" encoding="UTF-8" standalone="no"?><svg xmlns:svg="http://www.w3.org/2000/svg" xmlns="http://www.w3.org/2000/svg" version="1.1" style="overflow:visible" viewBox="-250 -250 500 500" height="50px" width="50px"><rect fill-opacity="0" fill="rgb(0,0,0)" height="500" width="500" y="-250" x="-250" /><svg version="1.1" y="-198" x="-202" viewBox="-250 -250 500 500" height="500px" width="500px" style="overflow:visible"><g transform="rotate(19,0,0)" stroke-linejoin="round" fill="#fff"><path stroke-linecap="butt" stroke-linejoin="round" stroke="none" fill="rgb(255,255,181)" d="m0.0007-136.5c-44.06318 0.000839-79.7825 35.461929-79.7825 79.204299c0.01435 18.17662 7.559509 34.881629 17.87443 49.899149c18.10984 26.36536 19.42381 61.970929 27.55298 71.19c28.185289 19.225569 49.63686 13.94316 68.70913 0c8.12931-9.21886 9.44391-44.824361 27.55298-71.19c10.31499-15.01752 17.86043-31.72253 17.87443-49.89915c0.000224-43.74258-35.71918-79.2036-79.7825-79.2043z" /><path stroke-linecap="butt" stroke-linejoin="round" stroke-width="8" stroke-opacity="1" stroke="rgb(68,68,68)" fill="none" d="m0.0007-136.5c-44.06318 0.000839-79.7825 35.461929-79.7825 79.204299c0.01435 18.17662 7.559509 34.881629 17.87443 49.899149c18.10984 26.36536 19.42381 61.970929 27.55298 71.19c28.185289 19.225569 49.63686 13.94316 68.70913 0c8.12931-9.21886 9.44391-44.824361 27.55298-71.19c10.31499-15.01752 17.86043-31.72253 17.87443-49.89915c0.000224-43.74258-35.71918-79.2036-79.7825-79.2043z" /><path stroke-linecap="butt" stroke-linejoin="round" stroke="none" fill="rgb(68,68,68)" d="m-36.6856-57.209601a3.305421 3.281333 0 0 0-2.90703 4.646103l23.765839 53.57289a3.305421 3.281333 0 0 0 1.33842 6.299363v67.20581a3.305421 3.281333 0 1 0 6.610184 0v-67.20581h15.751119v67.20581a3.305421 3.281333 0 1 0 6.610177 0v-67.20581a3.305421 3.281333 0 0 0 1.338337-6.297229l23.765839-53.57534a3.305421 3.281333 0 0 0-2.90703-4.646103a3.305421 3.281333 0 0 0-3.141586 2.001516l-0.710038 1.602048h-65.66301l-0.710038-1.602048a3.305421 3.281333 0 0 0-3.141502-2.001517zm5.792493 7.97832h61.781159l-22.17194 49.977969h-17.43805l-22.17194-49.97797z" /><path stroke-linecap="butt" stroke-linejoin="round" stroke-width="8" stroke-opacity="1" stroke="rgb(68,68,68)" fill="rgb(255,255,255)" d="m-25.9581 119.895299l16.05492 16.60484h19.81161l16.05492-16.60484l-25.40853-11.17592z" /><path stroke-linecap="butt" stroke-linejoin="round" stroke="none" fill="rgb(255,255,255)" d="m-34.355301 63.795899h68.713259v56.09674h-68.71326z" /><path stroke-linecap="butt" stroke-linejoin="round" stroke="none" fill="rgb(68,68,68)" d="m22.3524 71.7164a4.116854 4.104225 0 0 0-1.099833 0.126643l-44.41227 10.572239a4.116854 4.104225 0 1 0 1.911924 7.983219l44.41227-10.57224a4.116854 4.104225 0 0 0-0.812035-8.10992z" /><path stroke-linecap="butt" stroke-linejoin="round" stroke="none" fill="rgb(68,68,68)" d="m22.3524 91.7098a4.116854 4.104225 0 0 0-1.099833 0.125034l-44.41227 10.57392a4.116854 4.104225 0 1 0 1.911924 7.983219l44.41227-10.57392a4.116854 4.104225 0 0 0-0.812035-8.10824z" /><path stroke-linecap="butt" stroke-linejoin="round" stroke-width="8" stroke-opacity="1" stroke="rgb(68,68,68)" fill="none" d="m-34.355301 63.795899h68.713259v56.09674h-68.71326z" /></g></svg><svg version="1.1" y="-353" x="-295" viewBox="-250 -250 500 500" height="500px" width="500px" style="overflow:visible"><g transform="rotate(311,0,0)" stroke-linejoin="round" fill="#fff"><path stroke-linecap="butt" stroke-linejoin="round" stroke-width="8" stroke-opacity="1" stroke="rgb(68,68,68)" fill="rgb(255,255,0)" d="m-16.275161-40.5394h32.550364l-3.792189 67.43924h-24.965996z" /><path stroke-linecap="butt" stroke-linejoin="round" stroke-width="8" stroke-opacity="1" stroke="rgb(68,68,68)" fill="rgb(255,255,0)" d="m-83.600132-20.98272l30.37408-12.08636l19.935784 64.33856l-23.296768 9.270184z" /><path stroke-linecap="butt" stroke-linejoin="round" stroke-width="8" stroke-opacity="1" stroke="rgb(68,68,68)" fill="rgb(255,255,0)" d="m83.6-20.98272l-30.37408-12.08636l-19.935784 64.33856l23.296768 9.270184z" /></g></svg></svg>