<?xml version="1.0" encoding="UTF-8" standalone="no"?><svg xmlns:svg="http://www.w3.org/2000/svg" xmlns="http://www.w3.org/2000/svg" version="1.1" style="overflow:visible" viewBox="-250 -250 500 500" height="500px" width="500px"><rect fill-opacity="0" fill="rgb(0,0,0)" height="500" width="500" y="-250" x="-250" /><svg version="1.1" y="-250" x="-250" viewBox="-250 -250 500 500" height="500px" width="500px" style="overflow:visible"><g transform="rotate(0,0,0)" stroke-linejoin="round" fill="#fff"><path stroke-linecap="butt" stroke-linejoin="round" stroke-width="10" stroke-opacity="1" stroke="rgb(68,68,68)" fill="rgb(148,204,129)" d="m156.12-68.98l12.788-24.078l12.004 8.7112s-6.3692 11.81-11.725 22.804c0.3482 18.095-13.831 54.986-34.588 80.051s-53.26 21.999-64.101 32.398s-24.021 28.265-49.474 33.986c-40.239 9.044-42.588-10.021-68.493 0.4363c-18.836 7.6036-49.963 9.7365-68.125 5.5694c-43.93-10.079-82.86-85.594-57.038-92.312c15.331-3.9883 49.011-8.0847 82.971 2.5242c15.267 4.7697 37.545 17.656 47.656 12.581c16.503-8.2819 52.395-17.752 71.802-18.135c20.829-0.4107 29.007-21.32 45.927-31.13c28.337-16.429 49.853-9.9536 80.397-33.407z" /><path stroke-linecap="butt" stroke-linejoin="round" stroke="none" fill="rgb(118,175,99)" d="m-14.73 17.85c-10.267 39.966 45.851 43.423 66.998 21.382c-30.168 70.995-121.35 17.213-66.998001-21.382z" /><path stroke-linecap="butt" stroke-linejoin="round" stroke="none" fill="rgb(118,175,99)" d="m-124.98 10.6c-13.153 32.9 18.853 56.918 65.404 54.29c-55.387 45.476-127.11-21.936-65.404-54.29z" /><path stroke-linecap="butt" stroke-linejoin="round" stroke="none" fill="rgb(118,175,99)" d="m76.28-21.98c-6.7062 38.762 45.088 34.33 61.769 11.839c-25.003 67.81-105.99 31.164-61.769-11.839z" /><path stroke-linecap="butt" stroke-linejoin="round" stroke="none" fill="rgb(169,218,153)" d="m94.61-22.81c-7.0669-7.0732 16.567-12.998 27.085-7.1126c5.9735 3.3428 9.902 6.0312 7.4679 16.77c-4.025001 17.757-28.225-3.3242-34.553-9.6576z" /><path stroke-linecap="butt" stroke-linejoin="round" stroke="none" fill="rgb(169,218,153)" d="m8 18.95c-4-9.1636 19.744-11.107 29.716-4.3382c5.6636 3.8445 9.8904 7.0506 5.9969 17.351c-6.6102 17.487-32.678-6.06-35.713-13.012z" /><path stroke-linecap="butt" stroke-linejoin="round" stroke="none" fill="rgb(169,218,153)" d="m-100.57 26.49c1.0619-10.883 22.47-10.432 32.767-2.205c5.8483 4.6728 11.644 9.341 5.0641 19.427c-11.702 17.938-38.534-10.027-37.832-17.222z" /></g></svg></svg>