<?xml version="1.0" encoding="UTF-8" standalone="no"?><svg xmlns:svg="http://www.w3.org/2000/svg" xmlns="http://www.w3.org/2000/svg" version="1.1" style="overflow:visible" viewBox="-250 -250 500 500" height="500px" width="500px"><rect fill-opacity="0" fill="rgb(0,0,0)" height="500" width="500" y="-250" x="-250" /><svg version="1.1" y="-250" x="-250" viewBox="-250 -250 500 500" height="500px" width="500px" style="overflow:visible"><g transform="rotate(0,0,0)" stroke-linejoin="round" fill="#fff"><path stroke-linecap="butt" stroke-linejoin="round" stroke="none" fill="rgb(232,209,174)" d="m67.644999-65.233001l-94.7805 186.296c16.408999 2.9616 33.5645 4.16702 50.5892 3.89945c107.333-1.6869 142.086-124.802 80.4599-163.036c-13.6327-8.45799-25.4838-17.8139-36.2685-27.1602z" /><path stroke-linecap="butt" stroke-linejoin="round" stroke="none" fill="rgb(232,209,174)" d="m-24.960001-125.024c-7.40973 0.0316-15.3302 1.44828-23.9833 4.54574c-55.4804 19.8596-96.4231 88.8462-82.5662 155.495c5.88955 28.3276 21.7941 48.851 43.354 63.0867l124.683-191.646c-20.0014-18.0197-38.2339-31.5802-61.4872-31.4813z" /><path stroke-linecap="butt" stroke-linejoin="round" stroke="none" fill="rgb(255,255,255)" d="m-6.695-109.585001c-25.1288-8.47528-45.8687 1.32565-54.0608 15.3488c-8.61211 15.7223-22.1817 5.00084-33.9612 28.4526c-12.9207 25.7237-19.3675 12.3297-20.4191 51.095c-0.7636 28.1494-14.6172 35.3147 4.72063 65.143c10.7622 16.6005 10.265 35.0874 22.2595 47.6499c17.4101 11.4956 38.5041 18.8954 61.0203 22.9592c9.61458-2.98983 19.2769-6.40144 25.4768-9.6491c16.3723-8.57616 26.1564 3.61415 44.4574-1.1724c21.43-5.60495 23.2388-17.1054 37.4192-23.0006c34.7151-14.432 24.8043-20.921 33.141599-41.6801c18.7873-46.779 4.93059-47.0457-7.37115-61.6246c-16.255501-19.2646-28.8317-35.8075-38.3414-49.1657c-0.001-0.00088-0.0009-0.003-0.002-0.004c-11.3095-9.80106-21.4191-19.571-31.118-28.3089c-0.00075-0.00054-0.001-0.001-0.002-0.002c-14.7216-8.94899-29.8132-11.5195-43.2198-16.0412z" /><path stroke-linecap="butt" stroke-linejoin="round" stroke-width="8" stroke-opacity="1" stroke="rgb(68,68,68)" fill="none" d="m103.913999-38.074001c61.6259 38.2339 26.8719 161.35-80.461 163.037c-69.3147 1.08938-140.852-22.0727-154.964-89.9461c-13.8569-66.6489 27.0862-135.636 82.5667-155.495c61.5334-22.0263 86.0527 40.9574 152.858 82.4046z" /><path stroke-linecap="butt" stroke-linejoin="round" stroke="none" fill="rgb(255,191,49)" d="m36.216999-9.871001a54.1845 54.1857 0 0 1-39.0768 65.9175a54.1845 54.1857 0 0 1-65.916-39.0777a54.1845 54.1857 0 0 1 39.0768-65.917501a54.1845 54.1857 0 0 1 65.916 39.0777z" /><path stroke-linecap="butt" stroke-linejoin="round" stroke="none" fill="rgb(255,191,49)" d="m0.235 38.997c10.7425-3.32807 22.5963-18.5901 23.5554-32.4993c0.60625-8.79217-11.1743-10.5773-13.5039-4.3747c-4.02234 10.7098-9.8757 18.4296-17.0965 23.1507c-7.52211 4.91818-3.30426 16.9295 7.04499 13.7233z" /><path stroke-linecap="butt" stroke-linejoin="round" stroke="none" fill="rgb(255,232,182)" d="m-32.723001-31.674001c-10.728 3.37462-22.5155 18.6879-23.4143 32.6012c-0.56812 8.79472 11.2201 10.5287 13.5227 4.31611c3.97588-10.7271 9.79571-18.4722 16.996-23.2246c7.50071-4.95075 3.23083-16.9437-7.10443-13.6926z" /><path stroke-linecap="butt" stroke-linejoin="round" stroke-width="8" stroke-opacity="1" stroke="rgb(68,68,68)" fill="none" d="m36.216999-9.871001a54.1845 54.1857 0 0 1-39.0768 65.9175a54.1845 54.1857 0 0 1-65.916-39.0777a54.1845 54.1857 0 0 1 39.0768-65.917501a54.1845 54.1857 0 0 1 65.916 39.0777z" /></g></svg></svg>