<?xml version="1.0" encoding="UTF-8" standalone="no"?><svg xmlns:svg="http://www.w3.org/2000/svg" xmlns="http://www.w3.org/2000/svg" version="1.1" style="overflow:visible" viewBox="-250 -250 500 500" height="500px" width="500px"><rect fill-opacity="0" fill="rgb(0,0,0)" height="500" width="500" y="-250" x="-250" /><svg version="1.1" y="-250" x="-250" viewBox="-250 -250 500 500" height="500px" width="500px" style="overflow:visible"><g transform="rotate(0,0,0)" stroke-linejoin="round" fill="#fff"><path stroke-linecap="butt" stroke-linejoin="round" stroke-width="10" stroke-opacity="1" stroke="rgb(68,68,68)" fill="rgb(150,124,91)" d="m-111.837-98.943001c3.40941 30.5592 56.9724 40.9939 105.666 40.9951c2.11217 0 4.20526-0.0251 6.28695-0.0671c2.08169 0.0407 4.17479 0.0671 6.28695 0.0671c48.6936-0.00012 105.799-10.2464 105.666-40.9951c-0.33176-75.9738-232.706-78.8311-223.899 0z" /><path stroke-linecap="butt" stroke-linejoin="round" stroke="none" fill="rgb(255,255,255)" d="m0.118999-133.458c-56.3833 0.57301-100.346 23.8323-97.4412 42.295c25.1111 23.873 38.5371 31.8075 46.0876 59.2171c5.40724 20.2969-17.5438 52.0517-15.0254 101.26c2.56246 50.0618 21.778 74.1432 43.6856 86.2552c12.4458 6.88132 26.3625-12.6092 44.0983-17.4684c21.6628-5.935 32.781599-28.931 38.6199-64.7507c6.76436-41.4995-8.39265-75.6791-4.16927-93.556c10.6724-45.1738 19.7515-56.7707 41.5835-70.9565c2.90585-18.4615-41.058-41.7211-97.4412-42.295z" /><path stroke-linecap="butt" stroke-linejoin="round" stroke="none" fill="rgb(212,194,171)" d="m0.118999-133.458c-56.3833 0.57301-100.347 23.8335-97.4412 42.2962c24.4236 23.2201 37.7944 31.3678 45.4553 57.0163c3.28128-20.5772-11.0352-33.535-21.3376-48.5103c16.9535 10.9667 23.6149 25.3909 32.470799 39.3682c-7.10499-21.1667-27.8359-43.1288-38.5635-58.3473c12.2334 5.23021 42.7005 42.6951 44.511 54.873c-2.25459-17.4911-22.3395-44.7318-30.4371-54.5316c11.8865 2.16471 33.8998 44.5042 37.5629 51.1843c-3.05283-14.1846-27.6895-59.1943-32.838-57.571c11.7682 1.67771 35.7499 44.8947 37.654 55.6961c-1.54717-17.5762-7.12947-39.4772-19.2944-59.2171c15.023 17.6265 20.8313 37.2525 26.3157 56.9492c-3.58075-21.5476-8.98739-43.3564-18.2733-65.7187c16.559999 21.8448 20.9525 43.4726 22.3167 64.5998c0.19125-21.5081-1.06869-43.3504-5.49795-65.9236c7.49865 21.344 10.867 42.6867 13.8028 64.030699l0.97258-69.0828l7.50861 68.3939c1.10396-19.154 0.77904-38.6362 4.37899-57.7902c-0.43805 18.7191 1.82925 37.4382 3.38902 56.1585c1.72967-20.9642 3.43366-41.9248 14.8694-63.9564c-6.3923 21.9154-7.3482 42.809-8.67736 63.4257c3.62143-14.5224 7.96227-39.022 15.5053-51.9139c-4.00633 18.0314-6.66585 42.9347-6.80647 51.4611c4.8828-20.4263 10.5702-40.4009 24.222-55.9021c-9.77843 16.6813-15.5821 35.3489-17.8618 55.774c4.91243-13.4262 7.39643-27.515 15.8077-39.9888c-3.86379 13.2633-6.43405 26.6872-9.00947 40.0331c4.72358-17.0694 10.5294-34.067 23.2322-50.6069c-6.6787 17.5642-13.8628 34.1161-19.1264 50.7051c6.93786-15.355 13.3672-31.4349 22.6814-43.3996c-4.78657 14.6554-10.318 29.064-15.0182 43.7482c6.80804-15.1574 14.8694-30.0464 28.8521-43.6811c-10.0056 14.5248-17.9398 29.1886-24.6036 43.9387l11.3362-15.0963c-2.24703 9.68206-0.8022 13.3076-0.018 16.0835c7.16679-15.5444 15.8137-23.3746 29.4029-32.204c2.90585-18.4615-41.058-41.7223-97.4412-42.2962z" /><path stroke-linecap="butt" stroke-linejoin="round" stroke="none" fill="rgb(212,194,171)" d="m60.781999 31.185999c-12.9725 40.6333-40.9536 93.1642-98.5103 88.7052c-8.01301-0.62082-14.3955-2.53778-19.5259-4.92076c8.17488 20.6012 20.8937 32.9756 34.6821 40.5998c12.4458 6.88132 26.3637-12.6104 44.0983-17.4696c21.6628-5.93488 32.7804-28.9298 38.6199-64.7495c2.47535-15.1861 2.00694-29.3791 0.63506-42.1644z" /><path stroke-linecap="butt" stroke-linejoin="round" stroke-width="10" stroke-opacity="1" stroke="rgb(68,68,68)" fill="none" d="m0.118999-133.458c-56.3833 0.57301-100.346 23.8323-97.4412 42.295c25.1111 23.873 38.5371 31.8075 46.0876 59.2171c5.40724 20.2969-17.5438 52.0517-15.0254 101.26c2.56246 50.0618 21.778 74.1432 43.6856 86.2552c12.4458 6.88132 26.3625-12.6092 44.0983-17.4684c21.6628-5.935 32.781599-28.931 38.6199-64.7507c6.76436-41.4995-8.39265-75.6791-4.16927-93.556c10.6724-45.1738 19.7515-56.7707 41.5835-70.9565c2.90585-18.4615-41.058-41.7211-97.4412-42.295z" /></g></svg></svg>