<?xml version="1.0" encoding="UTF-8" standalone="no"?><svg xmlns:svg="http://www.w3.org/2000/svg" xmlns="http://www.w3.org/2000/svg" version="1.1" style="overflow:visible" viewBox="-250 -250 500 500" height="500px" width="500px"><rect fill-opacity="0" fill="rgb(0,0,0)" height="500" width="500" y="-250" x="-250" /><svg version="1.1" y="-250" x="-250" viewBox="-250 -250 500 500" height="500px" width="500px" style="overflow:visible"><g transform="rotate(0,0,0)" stroke-linejoin="round" fill="#fff"><path stroke-linecap="butt" stroke-linejoin="round" stroke-width="10" stroke-opacity="1" stroke="rgb(68,68,68)" fill="rgb(222,204,160)" d="m-185.359-14.604001c6.88439 29.9963 44.8856 34.6634 50.619 14.2582c5.73334-20.4052-29.1242-36.2607-50.619-14.2582z" /><path stroke-linecap="butt" stroke-linejoin="round" stroke-width="10" stroke-opacity="1" stroke="rgb(68,68,68)" fill="rgb(239,223,186)" d="m-73.061-77.763c-18.9188 24.2585 1.41542 56.7388 20.8508 48.3336c19.4353-8.40522 9.75782-45.4942-20.8508-48.3336z" /><path stroke-linecap="butt" stroke-linejoin="round" stroke-width="10" stroke-opacity="1" stroke="rgb(68,68,68)" fill="rgb(222,204,160)" d="m-145.958 128.044999c26.3235-15.8944 18.9147-53.5036-2.23697-52.6019c-21.1517 0.90175-25.3407 39.0054 2.23697 52.6019z" /><path stroke-linecap="butt" stroke-linejoin="round" stroke-width="10" stroke-opacity="1" stroke="rgb(68,68,68)" fill="rgb(222,204,160)" d="m-51.159 76.413999c11.3131-28.6179-17.3488-54.033-33.6254-40.4782c-16.2766 13.5548 3.46052 46.4023 33.6254 40.4782z" /><path stroke-linecap="butt" stroke-linejoin="round" stroke-width="10" stroke-opacity="1" stroke="rgb(68,68,68)" fill="rgb(239,223,186)" d="m-27.689 117.026999c-29.608-8.274241-51.857 22.9224-36.6921 37.7135c15.1649 14.791 45.729-8.29546 36.6921-37.7135z" /><path stroke-linecap="butt" stroke-linejoin="round" stroke-width="10" stroke-opacity="1" stroke="rgb(68,68,68)" fill="rgb(239,223,186)" d="m65.985999 60.449999c-25.6836-16.9164-56.3675 6.00497-46.4237 24.7201c9.94381 18.7151 46.0801 6.05542 46.4237-24.7201z" /><path stroke-linecap="butt" stroke-linejoin="round" stroke-width="10" stroke-opacity="1" stroke="rgb(68,68,68)" fill="rgb(222,204,160)" d="m18.142999 25.785c21.8318-21.6673 5.76476-56.4622-14.5764-50.5863c-20.3412 5.87594-15.4275 43.8928 14.5764 50.5863z" /><path stroke-linecap="butt" stroke-linejoin="round" stroke-width="10" stroke-opacity="1" stroke="rgb(68,68,68)" fill="rgb(222,204,160)" d="m29.940999-112.207c-30.5965-3.03912-47.1618 31.521-29.6779 43.4698c17.4838 11.9488 43.6357-16.0597 29.6779-43.4698z" /><path stroke-linecap="butt" stroke-linejoin="round" stroke-width="10" stroke-opacity="1" stroke="rgb(68,68,68)" fill="rgb(239,223,186)" d="m51.958 5.393c29.857 7.3492 51.1504-24.5118 35.5357-38.8204c-15.6147-14.3086-45.4699 9.70686-35.5357 38.8204z" /><path stroke-linecap="butt" stroke-linejoin="round" stroke-width="10" stroke-opacity="1" stroke="rgb(68,68,68)" fill="rgb(222,204,160)" d="m41.372999 133.241999c-0.52441 30.7663 35.2479 44.4626 45.7176 26.0465c10.4697-18.416-19.562-42.21-45.7176-26.0465z" /><path stroke-linecap="butt" stroke-linejoin="round" stroke-width="10" stroke-opacity="1" stroke="rgb(68,68,68)" fill="rgb(222,204,160)" d="m149.034 98.195c12.8129-27.9717-14.4647-54.8791-31.4371-42.2131c-16.9723 12.6659 0.99917 46.5183 31.4371 42.2131z" /><path stroke-linecap="butt" stroke-linejoin="round" stroke-width="10" stroke-opacity="1" stroke="rgb(68,68,68)" fill="rgb(239,223,186)" d="m-126.787-69.783c21.8318-21.6673 5.76475-56.4622-14.5764-50.5863c-20.3412 5.87594-15.4275 43.8928 14.5764 50.5863z" /><path stroke-linecap="butt" stroke-linejoin="round" stroke-width="10" stroke-opacity="1" stroke="rgb(68,68,68)" fill="rgb(222,204,160)" d="m-33.878-130.006c3.85126-30.5284-30.2282-48.0219-42.6295-30.8491c-12.4013 17.1727 14.8784 44.0822 42.6295 30.8491z" /><path stroke-linecap="butt" stroke-linejoin="round" stroke-width="10" stroke-opacity="1" stroke="rgb(68,68,68)" fill="rgb(239,223,186)" d="m109.154999-151.6843c-30.7447 0.36765-43.3871 36.5499-24.6895 46.4893c18.6976 9.93936 41.5922-20.7931 24.6895-46.4893z" /><path stroke-linecap="butt" stroke-linejoin="round" stroke-width="10" stroke-opacity="1" stroke="rgb(68,68,68)" fill="rgb(239,223,186)" d="m143.437-48.050001c-8.6556 29.5263 22.2087 52.2233 37.1821 37.2439c14.9735-14.9794-7.68065-45.8897-37.1821-37.2439z" /></g></svg></svg>