<svg version="1.1" id="_x32_" xmlns="http://www.w3.org/2000/svg" xmlns:xlink="http://www.w3.org/1999/xlink" x="0px" y="0px" width="50px" height="50px" viewBox="0 0 512 512" style="width: 64px; height: 64px; opacity: 1;" xml:space="preserve">
<style type="text/css">

	.st0{fill:#4B4B4B;}

</style>
<g>
	<path class="st0" d="M465.75,336.531l-33.563-71.125c0.094-2.141,0.156-4.266,0.156-6.406c0-89.453-72.5-161.969-161.969-161.969
		c-89.438,0-161.938,72.516-161.938,161.969c0,50.281,22.938,95.219,58.906,124.938v57.25c0,5.578,3.313,10.625,8.469,12.813
		l134.125,56.891c4.281,1.828,9.219,1.375,13.125-1.203c3.875-2.563,6.219-6.938,6.219-11.594v-48.5
		c0-7.688,6.219-13.922,13.906-13.922h68.688c7.688,0,13.938-6.234,13.938-13.922v-41.813c0-5.328,3.031-10.188,7.813-12.531
		l25.625-12.422C466.094,351.656,469,343.422,465.75,336.531z M270.375,369.125c-60.813,0-110.125-49.313-110.125-110.125
		c0-60.828,49.313-110.125,110.125-110.125c60.844,0,110.156,49.297,110.156,110.125
		C380.531,319.813,331.219,369.125,270.375,369.125z" style="fill: rgb(250, 8, 87);"></path>
	<path class="st0" d="M303.656,311.594c3.188,8.938-1.5,18.781-10.469,21.938c-8.938,3.188-18.781-1.5-21.938-10.453
		c-3.188-8.953,1.5-18.781,10.469-21.953C290.656,297.953,300.5,302.641,303.656,311.594z" style="fill: rgb(250, 8, 87);"></path>
	<path class="st0" d="M264.813,196.781c-3.469-9.844-14.281-15-24.125-11.516s-15,14.297-11.531,24.156l26.656,64.953
		c2.875,8.047,11.719,12.281,19.75,9.406c8.063-2.844,12.281-11.688,9.438-19.75L264.813,196.781z" style="fill: rgb(250, 8, 87);"></path>
	<rect x="258.563" class="st0" width="23.688" height="53.844" style="fill: rgb(250, 8, 87);"></rect>
	<polygon class="st0" points="178.094,75.406 157.563,87.25 130.625,40.609 151.156,28.781 	" style="fill: rgb(250, 8, 87);"></polygon>
	<polygon class="st0" points="98.656,146.156 86.813,166.688 40.156,139.75 52.031,119.234 	" style="fill: rgb(250, 8, 87);"></polygon>
	<polygon class="st0" points="65.25,247.156 65.25,270.844 11.375,270.844 11.406,247.156 	" style="fill: rgb(250, 8, 87);"></polygon>
	<polygon class="st0" points="488.781,119.234 500.625,139.75 454,166.656 442.156,146.156 	" style="fill: rgb(250, 8, 87);"></polygon>
	<polygon class="st0" points="389.625,28.781 410.156,40.625 383.219,87.25 362.719,75.406 	" style="fill: rgb(250, 8, 87);"></polygon>
</g>
</svg>
