<?xml version="1.0" encoding="UTF-8" standalone="no"?><svg xmlns:svg="http://www.w3.org/2000/svg" xmlns="http://www.w3.org/2000/svg" version="1.1" style="overflow:visible" viewBox="-250 -250 500 500" height="500px" width="500px"><rect fill-opacity="0" fill="rgb(0,0,0)" height="500" width="500" y="-250" x="-250" /><svg version="1.1" y="-250" x="-250" viewBox="-250 -250 500 500" height="500px" width="500px" style="overflow:visible"><g transform="rotate(0,0,0)" stroke-linejoin="round" fill="#fff"><path stroke-linecap="butt" stroke-linejoin="round" stroke-width="12" stroke-opacity="1" stroke="rgb(68,68,68)" fill="rgb(128,187,0)" d="m-17.787001-153.1827l16.8608-3.39478l2.84796 3.47363l16.555399 1.87665c1.1422 23.5221 1.85023 38.2793 13.2993 50.5162l-30.7012 28.1286l-32.8518-25.8898c13.1636-18.5348 16.3545-25.8257 13.9896-54.7104z" /><path stroke-linecap="butt" stroke-linejoin="round" stroke="none" fill="rgb(255,188,70)" d="m-61.551-84.966001c-68.7223-20.4978-121.318 42.8508-114.92 116.942c5.78201 66.952698 49.4912 143.022 122.094 107.775z" /><path stroke-linecap="butt" stroke-linejoin="round" stroke="none" fill="rgb(255,212,137)" d="m-149.031-28.299001c-8.42321 7.50276-15.3616 34.1632-10.5541 47.5949c4.3275 12.0893 24.1974 14.8743 25.1658-4.8954c0.93617-19.1109 1.86428-40.0731-1.64181-44.0514c-3.35646-3.80848-9.95745-1.33135-12.9699 1.35191z" /><path stroke-linecap="butt" stroke-linejoin="round" stroke-width="12" stroke-opacity="1" stroke="rgb(68,68,68)" fill="none" d="m-61.551-84.966001c-68.7223-20.4978-121.318 42.8508-114.92 116.942c5.78201 66.952698 49.4912 143.022 122.094 107.775z" /><path stroke-linecap="butt" stroke-linejoin="round" stroke="none" fill="rgb(255,188,70)" d="m61.550999-84.966001c68.7223-20.4978 121.318 42.8508 114.92 116.942c-5.78202 66.952698-49.4912 143.022-122.094 107.775z" /><path stroke-linecap="butt" stroke-linejoin="round" stroke="none" fill="rgb(255,212,137)" d="m138.178999-46.042c9.72078 5.72229 21.7085 30.5255 19.6032 44.6355c-1.89531 12.7-20.845 19.2943-25.6373 0.09c-4.63265-18.5644-9.61722-38.9464-6.95121-43.5304c2.55224-4.38829 9.50878-3.24158 12.9853-1.19508z" /><path stroke-linecap="butt" stroke-linejoin="round" stroke-width="12" stroke-opacity="1" stroke="rgb(68,68,68)" fill="none" d="m61.550999-84.966001c68.7223-20.4978 121.318 42.8508 114.92 116.942c-5.78202 66.952698-49.4912 143.022-122.094 107.775z" /><path stroke-linecap="butt" stroke-linejoin="round" stroke="none" fill="rgb(255,192,81)" d="m0-75.92c0-27.8662-60.4453-37.2785-90.2683 5.64633c-48.2564 69.4565-12.268 190.681 21.7889 216.869c21.7932 16.758 68.4794 9.14754 68.4794 0.71506l31.4087-115.103z" /><path stroke-linecap="butt" stroke-linejoin="round" stroke="none" fill="rgb(255,212,137)" d="m-77.423-47.018c-10.7433 10.8875-17.8058 47.5688-10.1285 65.3244c6.91064 15.9811 34.0407 18.0156 33.6262-8.82044c-0.40073-25.9417-0.97389-54.3879-6.06531-59.4652c-4.87411-4.86055-13.5902-0.93255-17.4324 2.96122z" /><path stroke-linecap="butt" stroke-linejoin="round" stroke-width="12" stroke-opacity="1" stroke="rgb(68,68,68)" fill="none" d="m0-75.92c0-27.8662-60.4453-37.2785-90.2683 5.64633c-48.2564 69.4565-12.268 190.681 21.7889 216.869c21.7932 16.758 68.4794 9.14754 68.4794 0.71506l31.4087-115.103z" /><path stroke-linecap="butt" stroke-linejoin="round" stroke="none" fill="rgb(255,192,81)" d="m0-75.92c0-27.8662 60.4453-37.2785 90.2683 5.64633c48.2564 69.4565 12.268 190.681-21.7889 216.869c-21.7932 16.758-68.4794 9.14754-68.4794 0.71506z" /><path stroke-linecap="butt" stroke-linejoin="round" stroke="none" fill="rgb(255,212,137)" d="m62.387999-75.482c13.7418 6.71626 32.5494 38.9904 31.1831 58.2866c-1.23029 17.368-26.1568 28.2707-34.6498 2.81091c-8.209961-24.6113-17.0863-51.643-13.9629-58.1197c2.99012-6.20028 12.515-5.37976 17.4295-2.97777z" /><path stroke-linecap="butt" stroke-linejoin="round" stroke-width="12" stroke-opacity="1" stroke="rgb(68,68,68)" fill="none" d="m0-75.92c0-27.8662 60.4453-37.2785 90.2683 5.64633c48.2564 69.4565 12.268 190.681-21.7889 216.869c-21.7932 16.758-68.4794 9.14754-68.4794 0.71506z" /></g></svg></svg>