<!--?xml version="1.0" encoding="utf-8"?-->
<!-- Generator: Adobe Illustrator 24.1.1, SVG Export Plug-In . SVG Version: 6.00 Build 0)  -->
<svg version="1.1" id="_x31_0" xmlns="http://www.w3.org/2000/svg" xmlns:xlink="http://www.w3.org/1999/xlink" x="0px" y="0px" width="50px" height="50px" viewBox="0 0 512 512" style="width: 256px; height: 256px; opacity: 1;" xml:space="preserve">
<style type="text/css">
	.st0{fill:#374149;}
</style>
<g>
	<path class="st0" d="M36.372,449.85c0,0,0.488,0.464,1.188,1.184c0.917,0.878,2.155,2.112,3.234,3.246
		c-1.907,3.413-2.608,11.13-3.47,17.166c-1.354,9.474,6.043,19.216,16.102,18.69c10.93-0.569,21.835-4.821,23.139-5.324l6.933,6.005
		c10.373,9.088,21.515,14.895,33.122,18.056c9.328,2.526,18.826,3.311,28.567,3.091c2.318-0.054,4.686-0.158,7.103-0.322
		c25.562-1.791,50.582-13.312,68.653-34.107c16.992-19.561,25.024-43.974,24.478-68.034c-0.034-1.578-0.124-3.157-0.213-4.735
		c-0.855-12.148-2.959-23.743-7.633-34.75c-3.223-7.642-7.792-14.849-13.711-21.558c9.354-1.311,16.79-2.368,16.79-2.368
		s46.198,24.328,96.397,6.283c-5.997-6.453-9.537-9.366-15.422-12.62c2.402,0.058,5.258,0.17,8.454,0.344
		c12.562,0.685,30.61,1.598,48.024-4.341c15.193-5.142,6.682-15.932,6.682-15.932c12.62,1.2,30.897,0.054,48.256-10.507
		c17.302-10.624,5.026-14.276,20.73-23.871c15.762-9.594,40.603-24.041,40.662-51.626c14.845-14.617,18.442-64.815,12.159-75.094
		l-0.456-0.855c-6.279-10.28-52.535-29.98-72.352-23.469c-24.614-12.508-48.77,2.968-64.474,12.621
		c-2.282,1.369-4.225,2.34-5.822,2.909c-0.801,1.772-0.685,2.573-0.514,3.942c0.917,6.055,1.142,12.334-6.109,23.585
		c-9.138,14.102-20.962,23.24-31.752,29.066l0.116,0.801c0.798,4.739,0.054,11.932-7.826,19.642
		c-7.993,7.881-17.015,13.707-25.526,18.218l7.312,2.855l-11.479,11.591c-5.424,5.482-11.08,10.222-16.845,14.334l-4.515,22.386
		l43.633-25.813l14.16-48.597c0.569-1.997,1.997-3.083,3.653-3.083h0.29l0.739,0.17l0.801,0.229l1.942,3.087l-7.765,40.031
		l42.255-25.016l13.65-46.31c0.514-2,1.996-3.083,3.598-3.083h0.34l0.743,0.17l0.801,0.229l1.884,3.083l-7.196,37.69l18.276-10.794
		l33.748-20.157c0.739-0.456,1.54-0.685,2.395-0.685c0.801,0,1.543,0.229,2.228,0.569l1.03-0.738l1.427,4.225l-0.058,1.427
		l-0.17,0.685l-0.457,0.971l-0.402,0.514l-0.626,0.685l-1.54,1.03l-3.258,2.166l-12.334,7.881l-34.321,21.646l35.748,10.504
		c0.914,0.228,1.714,0.858,2.17,1.714c0.457,0.917,0.569,1.884,0.286,2.797l-0.228,0.859l-3.083,1.884l-48.485-9.192l-41.629,26.153
		l38.089,11.077c0.971,0.228,1.714,0.859,2.229,1.714c0.456,0.858,0.568,1.884,0.282,2.797l-0.229,0.859l-3.083,1.884l-50.822-9.823
		l-43.002,27.012l44.828,12.737c0.913,0.282,1.714,0.854,2.17,1.71c0.457,0.914,0.569,1.884,0.286,2.855l-0.228,0.801l-3.088,1.942
		l-57.502-11.537l-41.571,26.111c-0.719-0.701-1.354-1.432-2.104-2.121l-0.221-0.363l-1.397-1.23v-0.054l-8.975-7.795l46.329-27.396
		l6.628-23.24c-14.222,7.935-28.44,12.334-40.206,14.733c-1.029,7.993-0.971,12.961-0.971,12.961s-7.091,10.001-14.504,20.574
		l-32.526-28.258c10.198-6.774,19.449-12.987,19.449-12.987s13.018,0.456,30.665-3.769c12.736-3.083,27.925-8.623,42.43-18.558
		c0.971-0.685,1.942-1.37,2.967-2.113c1.602-1.145,3.199-2.398,4.743-3.714c0.967-0.743,1.884-1.54,2.855-2.399
		c1.997-1.768,3.997-3.598,5.938-5.594c-1.655-0.626-3.141-1.199-4.51-1.656c-0.918-0.344-1.826-0.63-2.627-0.858
		c-0.689-0.286-1.374-0.457-2-0.627c-0.801-0.228-1.482-0.398-2.229-0.514c-2.565-0.573-5.08-0.855-8.051-1.025
		c10.678-5.03,32.723-11.936,49.17-28.1c11.478-11.25-0.914-17.302-0.914-17.302c11.878-4.398,27.868-13.309,38.886-30.382
		c8.225-12.733,3.258-14.845,4.398-21.526c0.402-2.286,1.486-5.084,4.001-8.968c9.993-15.475,26.095-39.288,14.218-64.13
		c7.022-19.646-11.537-66.413-21.646-72.982l-0.798-0.569c-10.105-6.511-60.362-4.229-75.38,10.279
		c-27.582-0.63-42.6,23.867-52.594,39.288c-10.051,15.476-13.363,3.142-24.386,20.215c-11.022,17.019-12.62,35.292-11.703,47.97
		c0,0-10.624-8.852-16.164,6.226c-7.938,21.642-5.254,44.6-5.424,56.361c-3.083-5.997-5.881-9.537-12.222-15.703
		c-19.244,49.683,3.884,96.508,3.884,96.508s-1.756,10.314-3.679,21.941c-15.576-8.407-32.835-12.466-49.889-12.079
		c-1.582,0.035-3.211,0.128-4.79,0.217c-25.562,1.788-50.582,13.313-68.653,34.162C9.967,328.349,1.932,352.762,2.476,376.822
		c0.039,1.578,0.128,3.157,0.217,4.79c1.706,24.034,12.086,47.552,30.661,65.306L36.372,449.85z M162.992,275.74l57.162-85.66
		l-8.338-49.912c-0.228-1.427,0-2.398,0.573-3.196c0.569-0.801,1.37-1.315,2.341-1.486l0.854-0.116l3.088,1.942l10.334,39.462
		l27.24-40.89l-7.822-47.625c-0.402-2.454,0.967-4.342,2.91-4.682l0.913-0.174l3.03,2.001l9.881,37.063l11.762-17.65l21.646-32.835
		c0.855-1.311,2.337-2.112,3.938-2.112c0.17,0,0.345,0,0.515,0.058l0.626-0.858l2.17,2.228l0.743,1.03l0.17,0.398l0.402,1.257v0.457
		l-0.12,1.258l-0.282,0.855l-1.826,3.199l-8.794,14.218l-21.53,34.378l36.947-6.055h0.398c1.826,0,3.316,1.258,3.598,3.03
		l0.174,0.855l-2,3.026l-47.63,12.794l-26.153,41.63l39.292-6.624h0.456c1.772,0,3.308,1.258,3.598,3.026l0.17,0.913l-1.997,2.971
		l-0.801,0.286l-49.227,12.961l-27.012,43.002l40.317-6.968l5.769-1.029h0.457c1.771,0,3.254,1.258,3.54,2.971l0.17,0.913
		l-1.996,3.084l-14.79,3.826l-42.031,10.794l-19.414,30.951l-8.658,13.746c-4.267-3.644-8.774-6.84-13.448-9.653L162.992,275.74z
		 M44.102,323.78c14.013-16.118,33.249-24.986,53.13-26.382c19.828-1.397,40.14,4.727,56.207,18.741l46.697,40.557
		c8.059,7.034,13.286,14.446,16.682,22.641c3.451,8.19,5.022,17.058,5.722,26.997c1.346,19.828-4.778,40.143-18.741,56.261
		c-14.013,16.067-33.249,24.93-53.077,26.331c-19.882,1.397-36.22-1.285-52.288-15.251l-11.498-10.009l-0.054-0.054
		c-1.342-1.126-2.886-1.83-4.368-2.163c-1.536-0.336-3.01-0.406-4.484-0.321c-2.735,0.221-5.405,0.913-8.121,1.869
		c-2.72,0.959-7.788,4.855-10.446,6.182l-0.209,0.054l-0.318-0.096l-0.166-0.31l0.05-0.162c1.625-4.933,5.184-12.698,5.072-17.592
		l-0.023-1.106c-0.147-1.842-0.503-3.675-1.176-5.451c-0.724-1.776-10.953-11.448-10.953-11.448
		c-16.067-13.962-24.934-33.249-26.331-53.077C24.015,360.162,30.139,339.847,44.102,323.78z" style="fill: rgb(144, 244, 112);"></path>
</g>
</svg>
