<?xml version="1.0" encoding="UTF-8" standalone="no"?><svg xmlns:svg="http://www.w3.org/2000/svg" xmlns="http://www.w3.org/2000/svg" version="1.1" style="overflow:visible" viewBox="-250 -250 500 500" height="500px" width="500px"><rect fill-opacity="0" fill="rgb(0,0,0)" height="500" width="500" y="-250" x="-250" /><svg version="1.1" y="-250" x="-250" viewBox="-250 -250 500 500" height="500px" width="500px" style="overflow:visible"><g transform="rotate(0,0,0)" stroke-linejoin="round" fill="#fff"><path stroke-linecap="butt" stroke-linejoin="round" stroke-width="10" stroke-opacity="1" stroke="rgb(68,68,68)" fill="rgb(255,255,255)" d="m20.331999-64.385001l-25.9196 4.15508c14.0272 85.2556-2.66538 160.952-30.7464 234.724l24.5827 9.11338c28.9648-76.1037 47.0394-157.103 32.0833-247.992z" /><path stroke-linecap="butt" stroke-linejoin="round" stroke-width="10" stroke-opacity="1" stroke="rgb(68,68,68)" fill="rgb(220,161,106)" d="m3.842 157.673a41.0888 37.3269 0 0 1-41.0888 37.3269a41.0888 37.3269 0 0 1-41.0888-37.3269a41.0888 37.3269 0 0 1 41.0888-37.3269a41.0888 37.3269 0 0 1 41.0888 37.3269z" /><path stroke-linecap="butt" stroke-linejoin="round" stroke="none" fill="rgb(86,204,78)" d="m104.161-144.525c5.65319 40.6565-33.9751 97.0484-91.4472 104.834c-57.4736 7.7863-111.028-35.9805-116.681-76.6369c-8.02648-57.7244 49.2784-88.6551 99.7116-32.6956c27.6151-70.0225 100.391-53.2261 108.418 4.4984z" /><path stroke-linecap="butt" stroke-linejoin="round" stroke="none" fill="rgb(76,163,71)" d="m-4.317001-136.379001a7.00339 6.91282 0 0 0-5.74834 9.56824c8.93493 21.7397 9.97172 43.3717 9.03206 65.7328a7.00339 6.91282 0 1 0 13.9921 0.57422c0.97214-23.1505-0.0367-47.1421-10.0502-71.5047a7.00339 6.91282 0 0 0-7.22729-4.3695z" /><path stroke-linecap="butt" stroke-linejoin="round" stroke-width="10" stroke-opacity="1" stroke="rgb(68,68,68)" fill="none" d="m104.161-144.525c5.65319 40.6565-33.9751 97.0484-91.4472 104.834c-57.4736 7.7863-111.028-35.9805-116.681-76.6369c-8.02648-57.7244 49.2784-88.6551 99.7116-32.6956c27.6151-70.0225 100.391-53.2261 108.418 4.4984z" /></g></svg></svg>