<?xml version="1.0" encoding="UTF-8" standalone="no"?><svg xmlns:svg="http://www.w3.org/2000/svg" xmlns="http://www.w3.org/2000/svg" version="1.1" style="overflow:visible" viewBox="-250 -250 500 500" height="500px" width="500px"><rect fill-opacity="0" fill="rgb(0,0,0)" height="500" width="500" y="-250" x="-250" /><svg version="1.1" y="-250" x="-250" viewBox="-250 -250 500 500" height="500px" width="500px" style="overflow:visible"><g transform="rotate(0,0,0)" stroke-linejoin="round" fill="#fff"><path stroke-linecap="butt" stroke-linejoin="round" stroke="none" fill="rgb(248,118,73)" d="m0-137c-63.6958 0-152.866 25.7306-152.866 128.376c0 71.6107 60.7247 145.624 152.866 145.624s152.866-74.0134 152.866-145.624c0-102.645-89.1702-128.376-152.866-128.376z" /><path stroke-linecap="butt" stroke-linejoin="round" stroke="none" fill="rgb(251,184,160)" d="m133.430999-32.053c0 10.2433-10.8192 26.5516-21.8723 26.5516c-11.0532 0.00001-18.3743-5.29551-19.7857-15.4411c-1.42496-10.2433 9.54114-25.1572 21.3467-28.714c8.73914-2.63295 20.3113 7.36019 20.3113 17.6035z" /><path stroke-linecap="butt" stroke-linejoin="round" stroke="none" fill="rgb(176,193,62)" d="m-33.924001-120.88c-0.70536-0.01-1.40981-0.008-2.11327 0.004c-12.7559 0.21028-25.2704 3.85728-40.0235 7.47271c1.68162 17.1868-6.73459 33.864 18.1866 42.188c-28.2855 8.95055-17.7752 30.025-20.9336 48.4286c30.7645 3.52405 65.2749 9.04302 78.8074-14.7763c13.5325 23.8193 48.0429 18.3004 78.8074 14.7763c-3.15841-18.4036 7.35188-39.478-20.9337-48.4286c24.9212-8.32396 16.504999-25.0012 18.1866-42.188c-14.7532-3.61543-27.2676-7.26243-40.0236-7.47271c-11.2552-0.18555-22.6991 2.30422-36.0368 9.84963c-12.5041-7.07381-23.3434-9.70506-33.9236-9.85334z" /><path stroke-linecap="butt" stroke-linejoin="round" stroke="none" fill="rgb(152,143,16)" d="m34.682999-73.137a34.6835 19.6997 0 0 1-34.6835 19.6997a34.6835 19.6997 0 0 1-34.6835-19.6997a34.6835 19.6997 0 0 1 34.6835-19.6997a34.6835 19.6997 0 0 1 34.6835 19.6997z" /><path stroke-linecap="butt" stroke-linejoin="round" stroke="none" fill="rgb(129,86,39)" d="m17.605999-75.599a17.6067 9.43946 0 0 1-17.6067 9.43945a17.6067 9.43946 0 0 1-17.6068-9.43945a17.6067 9.43946 0 0 1 17.6068-9.43946a17.6067 9.43946 0 0 1 17.6067 9.43946z" /><path stroke-linecap="butt" stroke-linejoin="round" stroke-width="6" stroke-opacity="1" stroke="rgb(68,68,68)" fill="none" d="m-33.924001-120.88c-0.70536-0.01-1.40981-0.008-2.11327 0.004c-12.7559 0.21028-25.2704 3.85728-40.0235 7.47271c1.68162 17.1868-6.73459 33.864 18.1866 42.188c-28.2855 8.95055-17.7752 30.025-20.9336 48.4286c30.7645 3.52405 65.2749 9.04302 78.8074-14.7763c13.5325 23.8193 48.0429 18.3004 78.8074 14.7763c-3.15841-18.4036 7.35188-39.478-20.9337-48.4286c24.9212-8.32396 16.504999-25.0012 18.1866-42.188c-14.7532-3.61543-27.2676-7.26243-40.0236-7.47271c-11.2552-0.18555-22.6991 2.30422-36.0368 9.84963c-12.5041-7.07381-23.3434-9.70506-33.9236-9.85334z" /><path stroke-linecap="butt" stroke-linejoin="round" stroke-width="6" stroke-opacity="1" stroke="rgb(68,68,68)" fill="none" d="m0-137c-63.6958 0-152.866 25.7306-152.866 128.376c0 71.6107 60.7247 145.624 152.866 145.624s152.866-74.0134 152.866-145.624c0-102.645-89.1702-128.376-152.866-128.376z" /></g></svg></svg>