<?xml version="1.0" encoding="UTF-8" standalone="no"?><svg xmlns:svg="http://www.w3.org/2000/svg" xmlns="http://www.w3.org/2000/svg" version="1.1" style="overflow:visible" viewBox="-250 -250 500 500" height="500px" width="500px"><rect fill-opacity="0" fill="rgb(0,0,0)" height="500" width="500" y="-250" x="-250" /><svg version="1.1" y="-250" x="-250" viewBox="-250 -250 500 500" height="500px" width="500px" style="overflow:visible"><g transform="rotate(0,0,0)" stroke-linejoin="round" fill="#fff"><path stroke-linecap="butt" stroke-linejoin="round" stroke="none" fill="rgb(239,220,0)" d="m94.613-97.022l-172.991 201.967c21.6309 7.96061 48.0321 12.5322 79.6027 12.5322c89.8381 0 139.066-43.3972 151.661-86.2521c12.7191-6.69021 24.1143-18.1729 24.1143-31.2246s-11.3952-24.5344-24.1143-31.2246c-7.19955-24.4961-26.3924-49.1537-58.273-65.7979z" /><path stroke-linecap="butt" stroke-linejoin="round" stroke="none" fill="rgb(255,235,0)" d="m1.223999-117.477c-86.2455 0-134.064 34.0018-150.763 78.5265c-15.983 3.84981-27.4614 20.1025-27.4614 38.9502c0 18.8476 11.4784 35.1003 27.4614 38.9502c10.5858 28.2262 33.699 52.2079 71.1601 65.994299c106.814-12.9307 184.785-77.3951 184.796-152.784c-0.0942-16.7299-4.08078-33.339-11.805-49.1834c-23.8932-12.4741-54.9023-20.4542-93.3884-20.4542z" /><path stroke-linecap="butt" stroke-linejoin="round" stroke="none" fill="rgb(255,246,135)" d="m-68.027-49.400001c-17.7384 18.3841-40.6926 35.4939-51.0726 25.5943c-10.9314-10.4256-2.85979-30.3789 20.544-48.1006c23.4039-17.7218 59.5417-24.2865 61.5036-11.9947c1.53154 9.59587-13.2367 16.1169-30.975 34.501z" /><path stroke-linecap="butt" stroke-linejoin="round" stroke-width="12" stroke-opacity="1" stroke="rgb(74,74,57)" fill="none" d="m1.223999-117.477c-86.2455 0-134.064 34.0018-150.763 78.5265c-15.983 3.84981-27.4614 20.1025-27.4614 38.9502c0 18.8476 11.4784 35.1003 27.4614 38.9502c16.6984 44.5247 64.5173 78.5265 150.763 78.5265c89.8381 0 139.066-43.3972 151.661-86.2521c12.7191-6.69021 24.1143-18.1729 24.1143-31.2246s-11.3952-24.5344-24.1143-31.2246c-12.5953-42.8549-61.8234-86.2521-151.661-86.2521z" /></g></svg></svg>