<?xml version="1.0" encoding="UTF-8" standalone="no"?><svg xmlns:svg="http://www.w3.org/2000/svg" xmlns="http://www.w3.org/2000/svg" version="1.1" style="overflow:visible" viewBox="-250 -250 500 500" height="500px" width="500px"><rect fill-opacity="0" fill="rgb(0,0,0)" height="500" width="500" y="-250" x="-250" /><svg version="1.1" y="-250" x="-290" viewBox="-250 -250 500 500" height="500px" width="500px" style="overflow:visible"><g transform="rotate(0,0,0)" stroke-linejoin="round" fill="#fff"><path stroke-linecap="butt" stroke-linejoin="round" stroke-width="10" stroke-opacity="1" stroke="rgb(90,90,90)" fill="rgb(243,255,186)" d="m-69.865001-157.0001l-1.94046 16.194099l63.6531 7.63118v41.7395h16.303899v-41.7395l63.6531-7.63118l-1.94046-16.1941s-37.4956 8.37777-69.8646 8.37777s-69.8646-8.37777-69.8646-8.37777z" /><path stroke-linecap="butt" stroke-linejoin="round" stroke="none" fill="rgb(217,236,128)" d="m0-107c-18.5608 0.00026-36.2222 3.83932-52.2461 10.7539l9.37695 14.2324l-15.1348-11.584c-12.322 6.03818-23.5651 13.9377-33.3613 23.3359l10.3437 13.584l-14.584-9.33204c-11.1664 11.7268-20.1902 25.5078-26.4629 40.7148l14.1445 9.17285l-16.3086-3.5752c-3.58818 9.97101-6.01412 20.4964-7.10547 31.416l14.8701 10.1894l-15.3545-3.80273c-0.11746 2.28136-0.17754 4.57813-0.17773 6.88867c0 19.0053 4.023939 37.0678 11.2539 53.3945l13.082-3.88184l-10.5195 9.3252c8.72608 17.4951 21.2143 32.7812 36.416 44.793l5.80176-11.9395l-0.5498 15.8848c11.4075 8.129009 24.1662 14.4838 37.8691 18.6738l13.6367-17.8203l-7.68165 19.4922c10.455 2.66419 21.4069 4.08389 32.6914 4.08398c4.52374-0.00006 8.99378-0.22946 13.4004-0.67383l11.8047-19.9228l-4.89844 19.042c18.292-2.82484 35.3418-9.40828 50.3418-18.9316l5.94434-23.7939l0.65136 19.3213c22.783-16.47 40.1-40.0311 48.7109-67.4512l-23.3604-6.63574l25.0342 0.82129c2.84637-10.7831 4.37109-22.1036 4.37109-33.7812c-0.00048-5.78997-0.37632-11.4928-1.09961-17.0859l-27.2383-4.182611l26.3144-1.86231c-2.79267-15.7927-8.39964-30.6118-16.2734-43.9316l-19.6328 8.22364l16.4629-13.3213c-9.20881-14.0761-21.0313-26.2842-34.7812-35.9375l-5.96972 11.4609l0.67285-14.9941c-11.1881-7.07619-23.5123-12.515-36.6387-15.9844l-8.90723 14.8994l3.02246-16.3076c-9.00447-1.94024-18.3471-2.97063-27.9316-2.9707z" /><path stroke-linecap="butt" stroke-linejoin="round" stroke="none" fill="rgb(248,255,216)" d="m27.932-104.029l-9.92969 25.9766l-48.043 5.1914l-22.2051-23.3848c-1.94359 0.83869-3.86389 1.72035-5.75782 2.64843l23.0957 24.3262l-19.123 33.3281l-37.334-34.3203c-1.4449 1.38616-2.85946 2.80382-4.24024 4.2539l18.5684 17.0703l-15.2656 36.1035l-29.7656-12.459c-0.7613 1.84564-1.48514 3.71104-2.16406 5.59765l31.4629 13.1699l21.0156 35.0293l-29.4805-2.84765l-30.1035-13.9356c-0.21143 2.11547-0.37403 4.24497-0.48438 6.38867l26.5293 12.2793l4.04688 37.0918l-19.5 10.9102c0.8134 1.83682 1.66889 3.65175 2.5625 5.44336l19.3965-10.8535l23.1973 28.5801l-6.17774 27.0664c1.71711 1.35679 3.46734 2.67359 5.25196 3.94531l6.35156-27.8262l48.4062 16.9434l-16.8887 29.5566c1.9664 0.60128 3.95083 1.16115 5.95507 1.67188l16.8477-29.4863l43.2422 0.24414l-13.998 32.652299c2.32061-0.23401 4.6227-0.52821 6.90625-0.88086l22.6211-52.7695l31.9004-0.19922l-4.179682 34.0371c2.24545-1.42562 4.44495-2.91786 6.5957-4.47265l4.04688-32.9688l-3.19727-41.8574l47.8613 7.375c0.60255-1.91875 1.15764-3.8571 1.67383-5.8125l-48.8027-7.51953l10.9238-45.1328l41.1504 1.7832c-0.26254-2.03021-0.57013-4.04472-0.92383-6.04492l-39.5273-1.71289l-11.0234-21.7598l34.2773-20.459c-1.01914-1.72406-2.075751-3.42318-3.16992-5.0957l-33.8242 20.1894l-10.0644-19.8691l9.10938-36.2598c-1.73585-1.21869-3.50301-2.39738-5.29883-3.5332l-9.17578 36.5566l-42.5352 13.2852l4.33984-37.7539l10.7324-28.0723c-1.94444-0.51393-3.90626-0.98189-5.88477-1.40821zm-11.1934 32.1465l-4.21484 36.6602l-40.1875 10.2168l-21.3574-7.61328l19.6699-34.2812zm-89.084 27.2559l17.3105 16.2676l22.4727 7.82813l-10.6211 28.4336l-22.3691 19.2695l-21.7949-36.3223zm133.785 0.78125l22.5977 44.6172l-46.1641 8.16797l-18.7891-39.5547zm-48.3164 14.6621l19.2832 40.5976l-20.2559 23.7168l-49.0117-27.0059l10.1504-27.1797zm70.2461 36.168l-10.5215 43.4726l-40.3379-4.107422l-14.9922-8.26172l19.5723-22.918zm-123.486 6.19726l26.7969 14.7656l-35.5801 35.5352l-13.9121-30.752zm32.2695 17.7812l36.832 20.2949l3.04101 16.406199l-36.5098 14.0332l-20.3945-33.7246zm-91.2266 1.10938l30.623 2.75l15.166 33.525399l-19.2324 27.4766l-22.6445-27.9023zm69.8223 20.2676l20.5391 33.9609l-10.082 30.0664l-48.8164-17.0879l20.0723-28.6758zm64.599599 0.33008l36.668 3.73438l3.11524 40.0703l-31.625 0.19727zm-2.20899 20.9961l4.73828 25.5625l-7.91211 18.459l-42.791-0.24023l10.0508-29.9785z" /><path stroke-linecap="butt" stroke-linejoin="round" stroke-width="10" stroke-opacity="1" stroke="rgb(90,90,90)" fill="none" d="m132 24.994c0 72.9046-59.0983 132.005-132 132.006c-72.9017-0.00056-132-59.1015-132-132.006c0.006-72.9002 59.1026-131.994 132-131.995c72.8974 0.00056 131.994 59.0947 132 131.995z" /></g></svg><svg version="1.1" y="-128" x="-168" viewBox="-250 -250 500 500" height="500px" width="500px" style="overflow:visible"><g transform="rotate(0,0,0)" stroke-linejoin="round" fill="#fff"><path stroke-linecap="butt" stroke-linejoin="round" stroke="none" fill="rgb(195,214,105)" d="m-127.64792-62.476801l-13.952161 2.218968c9.33208 71.69072 69.88824 125.3232 141.6 125.4096c71.71184-0.086808 132.268-53.71904 141.6-125.409601l-13.952161-2.218968l-127.648001 95.4672z" /><path stroke-linecap="butt" stroke-linejoin="round" stroke="none" fill="rgb(255,193,75)" d="m-118.112801-63.993601l-9.53512 1.516592c8.245839 64.76624 62.8864 113.2992 127.648 113.38c64.76152-0.080624 119.4024-48.61368 127.648-113.38l-9.53736-1.516593l-118.110401 83.6744z" /><path stroke-linecap="butt" stroke-linejoin="round" stroke="none" fill="rgb(255,207,116)" d="m-110.8232-65.152l-7.289984 1.158696c15.82864 51.11344 42.00216 89.5096 118.1128 89.5096s102.2816-38.396081 118.1104-89.5096l-7.287753-1.158696s-2.278912 2.468728-6.82188 6.169264l-11.82088 19.32744l-13.480401 4.12988l-16.27768 15.9772l-32.732961-1.826264l-26.91024 12.36552l-27.71816-10.42216l-27.454881 2.66296l-20.635441-16.33352l-20.55816-8.69688l-8.96664-16.054481c-5.449713-4.298928-8.268321-7.298888-8.268321-7.298888z" /><path stroke-linecap="butt" stroke-linejoin="round" stroke="none" fill="rgb(255,222,158)" d="m104.000799-58.982401c-13.753121 11.2028-48.34608 33.75424-104.000801 33.75424c-53.90512 0-87.964-21.11496-102.554401-32.62464c0.30672 7.564488 3.743352 15.95016 7.45832 18.728559c6.07556 4.543896 10.52384 5.370744 19.74832 11.35792c8.05136 5.225736 13.09256 9.5688 23.88344 12.9024c10.44056 3.225376 17.194399 0.317232 27.64656 2.29324c14.5768 2.755776 16.39136 7.67528 30.057119 5.838088c11.06936-1.48812 10.94088-4.910033 25.9732-6.747209c15.03232-1.837176 17.15744 1.104424 31.1464-4.074737c14.22872-5.267937 11.10112-10.3832 25.45632-15.88072c6.983423-2.674377 12.31952-13.504401 15.1856-25.547201z" /><path stroke-linecap="butt" stroke-linejoin="round" stroke-width="10" stroke-opacity="1" stroke="rgb(90,90,90)" fill="none" d="m-110.8232-65.152l-30.7772 4.894256c9.33208 71.69072 69.88824 125.3232 141.6 125.4096c71.71184-0.086808 132.268-53.71904 141.6-125.409601l-30.7772-4.894256s-36.78392 39.92352-110.8232 39.92352s-110.8232-39.92352-110.8232-39.92352z" /></g></svg></svg>