<?xml version="1.0" encoding="UTF-8" standalone="no"?><svg xmlns:svg="http://www.w3.org/2000/svg" xmlns="http://www.w3.org/2000/svg" version="1.1" style="overflow:visible" viewBox="-250 -250 500 500" height="500px" width="500px"><rect fill-opacity="0" fill="rgb(0,0,0)" height="500" width="500" y="-250" x="-250" /><svg version="1.1" y="-250" x="-250" viewBox="-250 -250 500 500" height="500px" width="500px" style="overflow:visible"><g transform="rotate(0,0,0)" stroke-linejoin="round" fill="#fff"><path stroke-linecap="butt" stroke-linejoin="round" stroke="none" fill="rgb(208,170,64)" d="m88.644-113.2l-189.753 257.199c27.4736 20.4175 62.6922 31.0295 101.788 31.0019c88.4027-0.062 164.619-62.8794 159.602-157.083c-3.29863-61.9351-29.8877-106.504-71.637-131.118z" /><path stroke-linecap="butt" stroke-linejoin="round" stroke="none" fill="rgb(224,188,88)" d="m1.631-135.387c-2.89634-0.0213-5.81983 0.0135-8.76952 0.10463c-45.0019 1.39009-76.6299 16.0689-101.086 36.9317c-29.4771 25.1459-53.5754 61.0253-52.2345 116.268c1.38705 57.1426 23.9327 99.7608 59.3498 126.081c0.00058 0.00047 0.0009-0.00043 0.004 0c15.4405 3.7549 31.8592 5.66741 48.981 5.65475c94.2239-0.0662 175.459-67.0202 170.111-167.428c-2.03347-38.1804-12.3783-70.1614-29.3418-95.4262c-24.3756-14.3705-53.9153-21.9429-87.0131-22.1871z" /><path stroke-linecap="butt" stroke-linejoin="round" stroke="none" fill="rgb(231,202,125)" d="m18.11 156.911999a6.73137 8.20626 0 0 1-6.73136 8.20625a6.73137 8.20626 0 0 1-6.73137-8.206251a6.73137 8.20626 0 0 1 6.73137-8.206251a6.73137 8.20626 0 0 1 6.73136 8.20625zm124.836-164.753a6.53297 9.83041 0 0 1-6.53295 9.83039a6.53297 9.83041 0 0 1-6.533-9.83039a6.53297 9.83041 0 0 1 6.533-9.83041a6.53297 9.83041 0 0 1 6.53295 9.83041zm-51.1197 130.195a6.73137 10.0555 0 0 1-6.73136 10.0555a6.73137 10.0555 0 0 1-6.73137-10.0555a6.73137 10.0555 0 0 1 6.73137-10.0555a6.73137 10.0555 0 0 1 6.73136 10.0555zm38.1862-48.3522a6.53297 9.83041 0 0 1-6.53298 9.8304a6.53297 9.83041 0 0 1-6.53297-9.8304a6.53297 9.83041 0 0 1 6.53297-9.8304a6.53297 9.83041 0 0 1 6.53298 9.8304z" /><path stroke-linecap="butt" stroke-linejoin="round" stroke="none" fill="rgb(238,218,164)" d="m18.192-53.603001a6.73137 8.80456 0 0 1-6.73135 8.80456a6.73137 8.80456 0 0 1-6.73137-8.80456a6.73137 8.80456 0 0 1 6.73137-8.80456a6.73137 8.80456 0 0 1 6.73135 8.80456zm35.1731 46.0737a6.73137 9.83041 0 0 1-6.73137 9.8304a6.73137 9.83041 0 0 1-6.73137-9.8304a6.73137 9.83041 0 0 1 6.73137-9.8304a6.73137 9.83041 0 0 1 6.73137 9.8304zm14.6509 71.9152a6.73137 9.83041 0 0 1-6.73134 9.8304a6.73137 9.83041 0 0 1-6.73139-9.8304a6.73137 9.83041 0 0 1 6.73139-9.83041a6.73137 9.83041 0 0 1 6.73134 9.83041zm-52.057-28.1532a6.73137 9.83041 0 0 1-6.73136 9.8304a6.73137 9.83041 0 0 1-6.73137-9.8304a6.73137 9.83041 0 0 1 6.73137-9.8304a6.73137 9.83041 0 0 1 6.73136 9.8304zm-59.4646 26.0724a6.73137 9.83041 0 0 1-6.73137 9.83041a6.73137 9.83041 0 0 1-6.73137-9.83041a6.73137 9.83041 0 0 1 6.73137-9.83039a6.73137 9.83041 0 0 1 6.73137 9.83039zm143.274-57.1898a6.73137 9.83041 0 0 1-6.73135 9.83042a6.73137 9.83041 0 0 1-6.73138-9.83042a6.73137 9.83041 0 0 1 6.73138-9.83039a6.73137 9.83041 0 0 1 6.73135 9.83039zm-13.7696-77.8815a6.73137 8.80456 0 0 1-6.73136 8.80455a6.73137 8.80456 0 0 1-6.73139-8.80455a6.73137 8.80456 0 0 1 6.73139-8.80457a6.73137 8.80456 0 0 1 6.73136 8.80457zm-107.963 56.7315a6.73137 9.83041 0 0 1-6.73136 9.83039a6.73137 9.83041 0 0 1-6.73136-9.83038a6.73137 9.83041 0 0 1 6.73136-9.83043a6.73137 9.83041 0 0 1 6.73136 9.83042zm46.1452 117.25a6.73137 9.83041 0 0 1-6.73138 9.8304a6.73137 9.83041 0 0 1-6.73137-9.8304a6.73137 9.83041 0 0 1 6.73137-9.8304a6.73137 9.83041 0 0 1 6.73138 9.8304zm-85.2579-170.55a6.73137 8.80456 0 0 1-6.73134 8.80458a6.73137 8.80456 0 0 1-6.73139-8.80458a6.73137 8.80456 0 0 1 6.73139-8.80453a6.73137 8.80456 0 0 1 6.73134 8.80453zm-11.2007 75.0305a6.73137 9.83041 0 0 1-6.73138 9.8304a6.73137 9.83041 0 0 1-6.73137-9.8304a6.73137 9.83041 0 0 1 6.73137-9.83042a6.73137 9.83041 0 0 1 6.73138 9.83042zm36.3533 115.322a6.73137 10.0555 0 0 1-6.73134 10.0555a6.73137 10.0555 0 0 1-6.73137-10.0555a6.73137 10.0555 0 0 1 6.73137-10.0555a6.73137 10.0555 0 0 1 6.73134 10.0555zm-52.5989-23.5595a6.73137 9.83041 0 0 1-6.73136 9.83041a6.73137 9.83041 0 0 1-6.73137-9.83041a6.73137 9.83041 0 0 1 6.73137-9.83039a6.73137 9.83041 0 0 1 6.73136 9.83039zm-20.2912-126.51a6.55583 9.83041 0 0 1-6.55584 9.8304a6.55583 9.83041 0 0 1-6.55583-9.8304a6.55583 9.83041 0 0 1 6.55583-9.83043a6.55583 9.83041 0 0 1 6.55584 9.83043zm-4.92809 79.8624a6.55583 9.83041 0 0 1-6.55585 9.83042a6.55583 9.83041 0 0 1-6.55584-9.83042a6.55583 9.83041 0 0 1 6.55584-9.83041a6.55583 9.83041 0 0 1 6.55585 9.83041z" /><path stroke-linecap="butt" stroke-linejoin="round" stroke-width="10" stroke-opacity="1" stroke="rgb(68,68,68)" fill="none" d="m160.279999 17.916999c5.01728 94.2041-71.1989 157.021-159.602 157.083c-89.4956 0.063-158.675-55.6139-161.138-157.083c-1.34095-55.2431 22.7585-91.121 52.2356-116.267c24.4563-20.8628 56.0831-35.5428 101.085-36.933c94.39-2.91566 162.026 51.9398 167.419 153.2z" /><path stroke-linecap="round" stroke-linejoin="round" stroke-width="10" stroke-opacity="1" stroke="rgb(68,68,68)" fill="none" d="m-34.657001-99.961001c21.3792 12.3448 50.2478 12.6978 69.3173 0" /><path stroke-linecap="round" stroke-linejoin="round" stroke-width="10" stroke-opacity="1" stroke="rgb(68,68,68)" fill="none" d="m-0.158-90.581c12.8282-29.3698 10.7841-57.2537 0.88065-84.3522" /></g></svg></svg>