<?xml version="1.0" encoding="UTF-8" standalone="no"?>
<svg xmlns:svg="http://www.w3.org/2000/svg" xmlns="http://www.w3.org/2000/svg" version="1.1" style="overflow:visible" viewBox="-250 -250 500 500" height="500px" width="500px">
<rect fill-opacity="0" fill="rgb(0,0,0)" height="500" width="500" y="-250" x="-250" /><svg version="1.1" y="-209" x="-225" viewBox="-250 -250 500 500" height="500px" width="500px" style="overflow:visible">
<g transform="rotate(15,0,0)" stroke-linejoin="round" fill="#fff"><path stroke-linecap="butt" stroke-linejoin="round" stroke-width="8" stroke-opacity="1" stroke="rgb(53,68,86)" fill="rgb(109,167,135)" d="m15.523-128.10896l16.3852-5.49108c6.00655 16.96528 0.27199 37.3952 0.27199 37.3952h-21.969s9.44746-19.20608 5.31178-31.904161z" />
<path stroke-linecap="butt" stroke-linejoin="round" stroke="none" fill="rgb(150,128,254)" d="m-14.099-83.6456s-10.8974 65.74176-38.2878 110.2176c-31.9943 51.95112-13.5403 98.36 4.003478 104.3688c24.5463 8.41288 71.6497-2.565224 100.617-47.112401c36.6696-56.39896-1.61783-170.4864-1.61783-170.4864c-30.9102-8.86416-33.460501-4.471272-64.711601 3.013696z" />
<path stroke-linecap="butt" stroke-linejoin="round" stroke="none" fill="rgb(242,169,255)" d="m-21.913001 74.781599c-3.40827 12.01872-13.878 20.27616-23.3848 18.44352c-9.5062-1.833401-14.4494-13.062001-11.0412-25.080241c3.40828-12.018721 13.878-20.27616 23.3848-18.443521c9.50619 1.8334 14.4494 13.06192 11.0412 25.08024z" />
<path stroke-linecap="butt" stroke-linejoin="round" stroke="none" fill="rgb(150,128,254)" d="m49.127-49.8432c18.9417 71.26024 2.57702 136.088-45.0629 164.7744c-10.481 6.31128-16.4165-0.738616-10.2286-5.837392c54.4146-44.835841 52.707-109.928 45.8493-158.2992c-0.8822-6.222961 7.78809-6.859912 9.4417-0.639008z" /><path stroke-linecap="butt" stroke-linejoin="round" stroke="none" fill="rgb(150,128,254)" d="m6.687999-44.8712c1.14958 14.81792 2.1484 35.3256-10.644 65.782c-10.3674 24.6828-37.2066 13.98128-24.848-7.998848c16.3139-29.014 13.8903-47.195281 19.3209-59.67864c3.17519-7.298425 15.5345-6.306457 16.1711 1.895112z" /><path stroke-linecap="butt" stroke-linejoin="round" stroke-width="8" stroke-opacity="1" stroke="rgb(53,68,86)" fill="none" d="m-14.099-83.6456s-10.8974 65.74176-38.2878 110.2176c-31.9943 51.95112-13.5403 98.36 4.003478 104.3688c24.5463 8.41288 71.6497-2.565224 100.617-47.112401c36.6696-56.39896-1.61783-170.4864-1.61783-170.4864c-30.9102-8.86416-33.460501-4.471184-64.711601 3.013696z" /><path stroke-linecap="butt" stroke-linejoin="round" stroke-width="8" stroke-opacity="1" stroke="rgb(53,68,86)" fill="rgb(109,167,135)" d="m26.278999-108.8896c34.4008 1.713472 25.5308 26.18312 43.5745 39.32776c-12.7177-1.694728-18.7366-3.474568-30.0936-12.3692c-4.72844 7.353768-16.5764 14.49696-26.8241 17.46776c-2.573-7.804977-3.37733-12.00312-7.46768-18.34136c-12.066 6.929512-22.8176 9.33-35.8721 11.18424c23.3365-19.9696 14.723-39.35992 56.6824-37.27z" /></g></svg></svg>