<svg width="300" height="300" viewBox="0 0 300 300" fill="none" xmlns="http://www.w3.org/2000/svg">
<path d="M204.5 103C204.5 136.954 176.305 164.5 141.5 164.5C106.695 164.5 78.5 136.954 78.5 103C78.5 69.0457 106.695 41.5 141.5 41.5C176.305 41.5 204.5 69.0457 204.5 103Z" fill="white" fill-opacity="0.67" stroke="black"/>
<path d="M138.092 158.218C131.882 158.218 126.691 158.106 120.967 160.03C119.099 161.513 117 164.391 117 166.314C117 169.933 117.925 173.199 118.117 176.642C118.326 180.405 117.892 184.423 118.706 188.088C119.418 191.293 120.35 194.932 120.35 198.138L120.35 198.306C120.35 201.762 120.349 205.363 121.901 208.467C123.169 211.003 126.639 213.492 129.562 213.492C133.414 213.492 137.428 214.608 141.442 214.608C145.32 214.608 148.957 214.26 152.733 214.05C161.118 213.584 161.341 201.661 163.775 196.184C165.375 192.583 165.491 187.964 166.97 184.118C168.571 179.955 167.807 174.089 167.807 169.663C167.807 166.636 166.754 163.182 164.581 161.444C163.292 160.412 160.825 159.893 159.153 159.893C157.817 159.893 153.797 159.72 152.733 159.055C151.081 158.023 147.825 158.91 145.909 158.342C143.584 157.653 140.498 158.218 138.092 158.218Z" fill="#E7E3DD"/>
<path d="M119.792 160.451C125.99 158.09 131.46 158.218 138.092 158.218C140.498 158.218 143.584 157.653 145.909 158.342C147.825 158.91 151.081 158.023 152.733 159.055C153.797 159.72 157.817 159.893 159.153 159.893C160.825 159.893 163.292 160.412 164.581 161.444C166.754 163.182 167.807 166.636 167.807 169.663C167.807 174.089 168.571 179.955 166.97 184.118C165.491 187.964 165.375 192.583 163.775 196.184C161.341 201.661 161.118 213.584 152.733 214.05C148.957 214.26 145.32 214.608 141.442 214.608C137.428 214.608 133.414 213.492 129.562 213.492C126.639 213.492 123.169 211.003 121.901 208.467C120.324 205.313 120.35 201.645 120.35 198.138C120.35 194.932 119.418 191.293 118.706 188.088C117.892 184.423 118.326 180.405 118.117 176.642C117.925 173.199 117 169.933 117 166.314C117 164.014 120.005 160.344 122.025 159.335" stroke="black" stroke-linecap="round"/>
<path d="M119.827 193.562C121.077 193.09 122.381 193.194 123.695 193.194C124.898 193.194 126.101 193.194 127.304 193.194C130.042 193.194 132.779 193.194 135.517 193.194C141.871 193.194 148.224 193.194 154.578 193.194C157.785 193.194 160.993 193.194 164.2 193.194" stroke="black" stroke-linecap="round"/>
<path d="M120.44 199.568C124.419 198.792 128.579 199.078 132.623 199.078C137.551 199.078 142.479 199.078 147.407 199.078C148.569 199.078 149.607 199.288 150.771 199.207C151.543 199.154 152.333 199.201 153.107 199.201C154.353 199.201 155.599 199.201 156.846 199.201C158.643 199.201 160.441 199.201 162.239 199.201" stroke="black" stroke-linecap="round"/>
<path d="M121.175 205.33C123.995 204.351 127.344 204.717 130.301 204.717C135.163 204.717 140.025 204.717 144.887 204.717C150.233 204.717 155.548 204.594 160.891 204.594" stroke="black" stroke-linecap="round"/>
<path d="M126.23 213.751C126.112 213.476 125.908 213.177 125.715 212.908C125.916 212.822 126.105 212.781 126.348 212.835C126.51 212.871 126.773 212.83 126.916 212.909C127.028 212.971 127.307 213.038 127.433 213.038C127.817 213.038 128.168 213.142 128.544 213.142C128.884 213.142 129.196 213.279 129.526 213.297C129.951 213.319 130.426 213.379 130.841 213.478C131.237 213.572 131.666 213.562 132.056 213.684C132.261 213.748 132.501 213.735 132.714 213.774C133.094 213.843 133.467 213.87 133.845 213.929C134.347 214.006 134.873 214.157 135.378 214.175C135.862 214.193 136.344 214.318 136.814 214.385C136.97 214.407 137.149 214.486 137.305 214.486C137.462 214.486 137.735 214.486 137.873 214.563C138.056 214.665 138.411 214.635 138.623 214.641C138.801 214.646 139.079 214.719 139.243 214.784C139.409 214.851 139.644 214.788 139.812 214.859C140.107 214.983 140.485 214.999 140.805 215.066C141.781 215.27 142.866 215.158 143.866 215.158C144.854 215.158 145.849 215.054 146.829 215.054C147.311 215.054 147.792 214.951 148.285 214.951C148.624 214.951 148.996 214.796 149.35 214.796C149.801 214.796 150.261 214.709 150.706 214.692C151.058 214.679 151.41 214.537 151.751 214.537C152.431 214.537 153.06 214.227 153.741 214.227C154.106 214.227 154.488 214.012 154.852 213.969C154.971 213.955 155.09 213.814 155.214 213.814C155.327 213.814 155.14 214.118 155.099 214.164C154.792 214.505 154.645 215.004 154.364 215.387C153.844 216.097 153.198 216.609 152.495 217.13C151.887 217.581 151.362 218.099 150.717 218.506C150.047 218.928 149.357 219.369 148.638 219.706C147.836 220.082 147.134 220.638 146.312 220.986L146.286 220.998C145.454 221.35 144.492 221.759 143.585 221.773C141.482 221.807 139.289 221.755 137.279 221.075C136.083 220.671 134.911 220.223 133.724 219.786C133.218 219.6 132.78 219.345 132.323 219.063C131.856 218.774 131.355 218.537 130.899 218.23C130.514 217.97 130.09 217.68 129.762 217.351C129.389 216.978 129.058 216.581 128.648 216.243C128.111 215.801 127.551 215.348 127.137 214.784C126.89 214.448 126.394 214.133 126.23 213.751Z" fill="#E7E3DD" fill-opacity="0.99"/>
<path d="M125.547 212.677C125.779 212.996 126.077 213.394 126.23 213.751C126.394 214.133 126.89 214.448 127.137 214.784C127.551 215.348 128.111 215.801 128.648 216.243C129.058 216.581 129.389 216.978 129.762 217.351C130.09 217.68 130.514 217.97 130.899 218.23C131.355 218.537 131.856 218.774 132.323 219.063C132.78 219.345 133.218 219.6 133.724 219.786C134.911 220.223 136.083 220.671 137.279 221.075C139.289 221.755 141.482 221.807 143.585 221.773C144.502 221.759 145.475 221.342 146.312 220.986C147.134 220.638 147.836 220.082 148.638 219.706C149.357 219.369 150.047 218.928 150.717 218.506C151.362 218.099 151.887 217.581 152.495 217.13C153.198 216.609 153.844 216.097 154.364 215.387C154.645 215.004 154.792 214.505 155.099 214.164C155.14 214.118 155.327 213.814 155.214 213.814C155.09 213.814 154.971 213.955 154.852 213.969C154.488 214.012 154.106 214.227 153.741 214.227C153.06 214.227 152.431 214.537 151.751 214.537C151.41 214.537 151.058 214.679 150.706 214.692C150.261 214.709 149.801 214.796 149.35 214.796C148.996 214.796 148.624 214.951 148.285 214.951C147.792 214.951 147.311 215.054 146.829 215.054C145.849 215.054 144.854 215.158 143.866 215.158C142.866 215.158 141.781 215.27 140.805 215.066C140.485 214.999 140.107 214.983 139.812 214.859C139.644 214.788 139.409 214.851 139.243 214.784C139.079 214.719 138.801 214.646 138.623 214.641C138.411 214.635 138.056 214.665 137.873 214.563C137.735 214.486 137.462 214.486 137.305 214.486C137.149 214.486 136.97 214.407 136.814 214.385C136.344 214.318 135.862 214.193 135.378 214.175C134.873 214.157 134.347 214.006 133.845 213.929C133.467 213.87 133.094 213.843 132.714 213.774C132.501 213.735 132.261 213.748 132.056 213.684C131.666 213.562 131.237 213.572 130.841 213.478C130.426 213.379 129.951 213.319 129.526 213.297C129.196 213.279 128.884 213.142 128.544 213.142C128.168 213.142 127.817 213.038 127.433 213.038C127.307 213.038 127.028 212.971 126.916 212.909C126.773 212.83 126.51 212.871 126.348 212.835C126.039 212.766 125.818 212.851 125.547 212.987" stroke="black" stroke-linecap="round"/>
<path d="M145.608 96.5116C145.608 96.8108 145.607 97.1104 145.604 97.4104C146.069 96.3106 146.599 95.2171 146.935 94.0794C147.609 91.7929 148.073 88.7995 149.323 86.768C150.111 85.4874 150.907 83.5158 152.521 83.1123C156.251 82.18 159.917 80.459 163.783 80.459C168.94 80.459 172.65 82.5474 174.795 87.2397C177.229 92.5652 175.06 99.2018 168.913 100.226C163.016 101.209 157.398 101.686 151.445 101.686C149.692 101.686 148.237 101.623 146.802 100.506C146.054 99.9246 146.081 98.1381 145.604 97.4219C145.603 97.4204 145.602 97.419 145.601 97.4175C145.284 98.1686 144.999 98.9226 144.827 99.6956C144.61 100.672 143.305 101.951 142.291 101.951C138.239 101.951 134.496 100.98 130.543 100.153C125.011 98.9948 119.212 98.1034 114.299 95.2587C112.583 94.2653 112.176 92.3103 112.176 90.5269C112.176 87.3635 112.218 84.0131 113.503 81.1223C114.957 77.8495 120.408 75.1523 123.851 75.1523C126.957 75.1523 129.363 76.2941 132.209 77.4076C134.586 78.338 137.286 79.3013 139.107 81.1223C140.212 82.2266 140.731 83.5893 141.422 84.9696C142.458 87.0423 143.717 89.2677 144.222 91.544C144.606 93.2692 145.608 94.7589 145.608 96.5116Z" fill="#36E01A"/>
<path d="M142.689 158.202C142.689 153.706 143.655 149.468 144.222 145.053C144.495 142.934 144.796 140.829 145.136 138.714C145.494 136.488 145.461 134.099 146.006 131.919C146.437 130.196 146.139 128.138 146.139 126.376C146.139 124.504 146.139 122.632 146.139 120.76C146.139 116.138 145.848 111.554 145.608 106.992C145.425 103.522 145.608 99.9875 145.608 96.5116C145.608 94.7589 144.606 93.2692 144.222 91.544C143.717 89.2677 142.458 87.0423 141.422 84.9696C140.731 83.5893 140.212 82.2266 139.107 81.1223C137.286 79.3013 134.586 78.338 132.209 77.4076C129.363 76.2941 126.957 75.1523 123.851 75.1523C120.408 75.1523 114.957 77.8495 113.503 81.1223C112.218 84.0131 112.176 87.3635 112.176 90.5269C112.176 92.3103 112.583 94.2653 114.299 95.2587C119.212 98.1034 125.011 98.9948 130.543 100.153C134.496 100.98 138.239 101.951 142.291 101.951C143.305 101.951 144.61 100.672 144.827 99.6956C145.251 97.7881 146.369 95.9966 146.935 94.0794C147.609 91.7929 148.073 88.7995 149.323 86.768C150.111 85.4874 150.907 83.5158 152.521 83.1123C156.251 82.18 159.917 80.459 163.783 80.459C168.94 80.459 172.65 82.5474 174.795 87.2397C177.229 92.5652 175.06 99.2018 168.913 100.226C163.016 101.209 157.398 101.686 151.445 101.686C149.692 101.686 148.237 101.623 146.802 100.506C145.939 99.8348 146.107 97.5572 145.343 97.175" stroke="black" stroke-width="2" stroke-linecap="round"/>
</svg>
