<svg width="300" height="300" viewBox="0 0 300 300" fill="none" xmlns="http://www.w3.org/2000/svg">
<path d="M205.5 105C205.5 138.954 177.305 166.5 142.5 166.5C107.695 166.5 79.5 138.954 79.5 105C79.5 71.0457 107.695 43.5 142.5 43.5C177.305 43.5 205.5 71.0457 205.5 105Z" fill="#FAFF15" fill-opacity="0.44" stroke="black"/>
<path d="M138.092 158.218C131.882 158.218 126.691 158.106 120.967 160.03C119.099 161.513 117 164.391 117 166.314C117 169.933 117.925 173.199 118.117 176.642C118.326 180.405 117.892 184.423 118.706 188.088C119.418 191.293 120.35 194.932 120.35 198.138L120.35 198.306C120.35 201.762 120.349 205.363 121.901 208.467C123.169 211.003 126.639 213.492 129.562 213.492C133.414 213.492 137.428 214.608 141.442 214.608C145.32 214.608 148.957 214.26 152.733 214.05C161.118 213.584 161.341 201.661 163.775 196.184C165.375 192.583 165.491 187.964 166.97 184.118C168.571 179.955 167.807 174.089 167.807 169.663C167.807 166.636 166.754 163.182 164.581 161.444C163.292 160.412 160.825 159.893 159.153 159.893C157.817 159.893 153.797 159.72 152.733 159.055C151.081 158.023 147.825 158.91 145.909 158.342C143.584 157.653 140.498 158.218 138.092 158.218Z" fill="#E7E3DD"/>
<path d="M119.792 160.451C125.99 158.09 131.46 158.218 138.092 158.218C140.498 158.218 143.584 157.653 145.909 158.342C147.825 158.91 151.081 158.023 152.733 159.055C153.797 159.72 157.817 159.893 159.153 159.893C160.825 159.893 163.292 160.412 164.581 161.444C166.754 163.182 167.807 166.636 167.807 169.663C167.807 174.089 168.571 179.955 166.97 184.118C165.491 187.964 165.375 192.583 163.775 196.184C161.341 201.661 161.118 213.584 152.733 214.05C148.957 214.26 145.32 214.608 141.442 214.608C137.428 214.608 133.414 213.492 129.562 213.492C126.639 213.492 123.169 211.003 121.901 208.467C120.324 205.313 120.35 201.645 120.35 198.138C120.35 194.932 119.418 191.293 118.706 188.088C117.892 184.423 118.326 180.405 118.117 176.642C117.925 173.199 117 169.933 117 166.314C117 164.014 120.005 160.344 122.025 159.335" stroke="black" stroke-linecap="round"/>
<path d="M119.827 193.562C121.077 193.09 122.381 193.194 123.695 193.194C124.898 193.194 126.101 193.194 127.304 193.194C130.042 193.194 132.779 193.194 135.517 193.194C141.871 193.194 148.224 193.194 154.578 193.194C157.785 193.194 160.993 193.194 164.2 193.194" stroke="black" stroke-linecap="round"/>
<path d="M120.44 199.568C124.419 198.792 128.579 199.078 132.623 199.078C137.551 199.078 142.479 199.078 147.407 199.078C148.569 199.078 149.607 199.288 150.771 199.207C151.543 199.154 152.333 199.201 153.107 199.201C154.353 199.201 155.599 199.201 156.846 199.201C158.643 199.201 160.441 199.201 162.239 199.201" stroke="black" stroke-linecap="round"/>
<path d="M121.175 205.33C123.995 204.351 127.344 204.717 130.301 204.717C135.163 204.717 140.025 204.717 144.887 204.717C150.233 204.717 155.548 204.594 160.891 204.594" stroke="black" stroke-linecap="round"/>
<path d="M126.23 213.751C126.112 213.476 125.908 213.177 125.715 212.908C125.916 212.822 126.105 212.781 126.348 212.835C126.51 212.871 126.773 212.83 126.916 212.909C127.028 212.971 127.307 213.038 127.433 213.038C127.817 213.038 128.168 213.142 128.544 213.142C128.884 213.142 129.196 213.279 129.526 213.297C129.951 213.319 130.426 213.379 130.841 213.478C131.237 213.572 131.666 213.562 132.056 213.684C132.261 213.748 132.501 213.735 132.714 213.774C133.094 213.843 133.467 213.87 133.845 213.929C134.347 214.006 134.873 214.157 135.378 214.175C135.862 214.193 136.344 214.318 136.814 214.385C136.97 214.407 137.149 214.486 137.305 214.486C137.462 214.486 137.735 214.486 137.873 214.563C138.056 214.665 138.411 214.635 138.623 214.641C138.801 214.646 139.079 214.719 139.243 214.784C139.409 214.851 139.644 214.788 139.812 214.859C140.107 214.983 140.485 214.999 140.805 215.066C141.781 215.27 142.866 215.158 143.866 215.158C144.854 215.158 145.849 215.054 146.829 215.054C147.311 215.054 147.792 214.951 148.285 214.951C148.624 214.951 148.996 214.796 149.35 214.796C149.801 214.796 150.261 214.709 150.706 214.692C151.058 214.679 151.41 214.537 151.751 214.537C152.431 214.537 153.06 214.227 153.741 214.227C154.106 214.227 154.488 214.012 154.852 213.969C154.971 213.955 155.09 213.814 155.214 213.814C155.327 213.814 155.14 214.118 155.099 214.164C154.792 214.505 154.645 215.004 154.364 215.387C153.844 216.097 153.198 216.609 152.495 217.13C151.887 217.581 151.362 218.099 150.717 218.506C150.047 218.928 149.357 219.369 148.638 219.706C147.836 220.082 147.134 220.638 146.312 220.986L146.286 220.998C145.454 221.35 144.492 221.759 143.585 221.773C141.482 221.807 139.289 221.755 137.279 221.075C136.083 220.671 134.911 220.223 133.724 219.786C133.218 219.6 132.78 219.345 132.323 219.063C131.856 218.774 131.355 218.537 130.899 218.23C130.514 217.97 130.09 217.68 129.762 217.351C129.389 216.978 129.058 216.581 128.648 216.243C128.111 215.801 127.551 215.348 127.137 214.784C126.89 214.448 126.394 214.133 126.23 213.751Z" fill="#E7E3DD" fill-opacity="0.99"/>
<path d="M125.547 212.677C125.779 212.996 126.077 213.394 126.23 213.751C126.394 214.133 126.89 214.448 127.137 214.784C127.551 215.348 128.111 215.801 128.648 216.243C129.058 216.581 129.389 216.978 129.762 217.351C130.09 217.68 130.514 217.97 130.899 218.23C131.355 218.537 131.856 218.774 132.323 219.063C132.78 219.345 133.218 219.6 133.724 219.786C134.911 220.223 136.083 220.671 137.279 221.075C139.289 221.755 141.482 221.807 143.585 221.773C144.502 221.759 145.475 221.342 146.312 220.986C147.134 220.638 147.836 220.082 148.638 219.706C149.357 219.369 150.047 218.928 150.717 218.506C151.362 218.099 151.887 217.581 152.495 217.13C153.198 216.609 153.844 216.097 154.364 215.387C154.645 215.004 154.792 214.505 155.099 214.164C155.14 214.118 155.327 213.814 155.214 213.814C155.09 213.814 154.971 213.955 154.852 213.969C154.488 214.012 154.106 214.227 153.741 214.227C153.06 214.227 152.431 214.537 151.751 214.537C151.41 214.537 151.058 214.679 150.706 214.692C150.261 214.709 149.801 214.796 149.35 214.796C148.996 214.796 148.624 214.951 148.285 214.951C147.792 214.951 147.311 215.054 146.829 215.054C145.849 215.054 144.854 215.158 143.866 215.158C142.866 215.158 141.781 215.27 140.805 215.066C140.485 214.999 140.107 214.983 139.812 214.859C139.644 214.788 139.409 214.851 139.243 214.784C139.079 214.719 138.801 214.646 138.623 214.641C138.411 214.635 138.056 214.665 137.873 214.563C137.735 214.486 137.462 214.486 137.305 214.486C137.149 214.486 136.97 214.407 136.814 214.385C136.344 214.318 135.862 214.193 135.378 214.175C134.873 214.157 134.347 214.006 133.845 213.929C133.467 213.87 133.094 213.843 132.714 213.774C132.501 213.735 132.261 213.748 132.056 213.684C131.666 213.562 131.237 213.572 130.841 213.478C130.426 213.379 129.951 213.319 129.526 213.297C129.196 213.279 128.884 213.142 128.544 213.142C128.168 213.142 127.817 213.038 127.433 213.038C127.307 213.038 127.028 212.971 126.916 212.909C126.773 212.83 126.51 212.871 126.348 212.835C126.039 212.766 125.818 212.851 125.547 212.987" stroke="black" stroke-linecap="round"/>
<path d="M140.5 100.5C140.5 104.845 136.326 108.5 131 108.5C125.674 108.5 121.5 104.845 121.5 100.5C121.5 96.1548 125.674 92.5 131 92.5C136.326 92.5 140.5 96.1548 140.5 100.5Z" fill="white" stroke="black"/>
<path d="M170.5 100.5C170.5 104.845 166.326 108.5 161 108.5C155.674 108.5 151.5 104.845 151.5 100.5C151.5 96.1548 155.674 92.5 161 92.5C166.326 92.5 170.5 96.1548 170.5 100.5Z" fill="white" stroke="black"/>
<path d="M135.5 101C135.5 102.879 133.766 104.5 131.5 104.5C129.234 104.5 127.5 102.879 127.5 101C127.5 99.1207 129.234 97.5 131.5 97.5C133.766 97.5 135.5 99.1207 135.5 101Z" fill="#B9E2FA" stroke="black"/>
<path d="M164.5 101C164.5 102.879 162.766 104.5 160.5 104.5C158.234 104.5 156.5 102.879 156.5 101C156.5 99.1207 158.234 97.5 160.5 97.5C162.766 97.5 164.5 99.1207 164.5 101Z" fill="#B9E2FA" stroke="black"/>
<ellipse cx="132" cy="100.5" rx="2" ry="1.5" fill="black"/>
<ellipse cx="160" cy="100.5" rx="2" ry="1.5" fill="black"/>
<path d="M132.631 124.788C131.533 127.299 132.193 129.794 132.233 132.449C131.896 133.267 133.544 135.195 133.819 135.746C134.474 137.056 135.483 137.748 136.689 138.418C138.86 139.624 142.458 138.831 144.14 136.962C144.949 136.063 145.943 134.821 146.996 134.162C148.519 133.211 148.545 132.615 150.446 132.961C151.79 133.205 152.971 134.577 153.925 135.435C155.4 136.762 156.839 137.527 158.817 137.527C162.543 137.527 167.076 134.903 165.377 130.656C164.26 127.862 163.264 125.481 160.994 123.275C158.454 120.807 156.516 118.058 152.85 117.04C148.017 115.697 141.951 115.257 137.636 118.185C135.279 119.784 133.779 122.164 132.631 124.788Z" fill="black"/>
<path d="M132.235 132.692C132.235 129.946 131.499 127.375 132.631 124.788C133.779 122.164 135.279 119.784 137.636 118.185C141.951 115.257 148.017 115.697 152.85 117.04C156.516 118.058 158.454 120.807 160.994 123.275C163.264 125.481 164.26 127.862 165.377 130.656C167.076 134.904 162.543 137.527 158.817 137.527C156.839 137.527 155.4 136.762 153.925 135.435C152.971 134.577 151.79 133.205 150.446 132.961C148.545 132.615 148.519 133.211 146.996 134.162C145.943 134.821 144.949 136.063 144.14 136.962C142.458 138.831 138.86 139.624 136.689 138.418C135.483 137.748 134.474 137.056 133.819 135.746C133.506 135.121 131.422 132.717 132.49 132.183" stroke="#161212" stroke-width="2" stroke-linecap="round"/>
<path d="M151.311 119.794C148.056 118.314 141.695 118.694 140.569 122.734C140.156 123.282 140 123.976 140 124.756C140 126.071 141.389 126.389 142.446 126.552C145.643 127.044 149.583 126.922 152.669 125.972C156.73 124.723 153.916 120.978 151.311 119.794Z" fill="white"/>
<path d="M131.521 77.5563C129.617 76.8132 128.063 76.5383 126.05 76.5383C124.742 76.5383 123.223 78.2194 122.359 79.0834" stroke="#161212" stroke-width="2" stroke-linecap="round"/>
<path d="M155.445 78.0653C156.767 76.7829 159.088 75.7713 161.044 76.5949C162.652 77.2718 164.775 77.8927 165.625 79.5924" stroke="#161212" stroke-width="2" stroke-linecap="round"/>
</svg>
