<svg width="300" height="300" viewBox="0 0 300 300" fill="none" xmlns="http://www.w3.org/2000/svg">
<path d="M205.5 105C205.5 138.954 177.305 166.5 142.5 166.5C107.695 166.5 79.5 138.954 79.5 105C79.5 71.0457 107.695 43.5 142.5 43.5C177.305 43.5 205.5 71.0457 205.5 105Z" fill="white" fill-opacity="0.68" stroke="black"/>
<path d="M138.092 158.218C131.882 158.218 126.691 158.106 120.967 160.03C119.099 161.513 117 164.391 117 166.314C117 169.933 117.925 173.199 118.117 176.642C118.326 180.405 117.892 184.423 118.706 188.088C119.418 191.293 120.35 194.932 120.35 198.138L120.35 198.306C120.35 201.762 120.349 205.363 121.901 208.467C123.169 211.003 126.639 213.492 129.562 213.492C133.414 213.492 137.428 214.608 141.442 214.608C145.32 214.608 148.957 214.26 152.733 214.05C161.118 213.584 161.341 201.661 163.775 196.184C165.375 192.583 165.491 187.964 166.97 184.118C168.571 179.955 167.807 174.089 167.807 169.663C167.807 166.636 166.754 163.182 164.581 161.444C163.292 160.412 160.825 159.893 159.153 159.893C157.817 159.893 153.797 159.72 152.733 159.055C151.081 158.023 147.825 158.91 145.909 158.342C143.584 157.653 140.498 158.218 138.092 158.218Z" fill="#E7E3DD"/>
<path d="M119.792 160.451C125.99 158.09 131.46 158.218 138.092 158.218C140.498 158.218 143.584 157.653 145.909 158.342C147.825 158.91 151.081 158.023 152.733 159.055C153.797 159.72 157.817 159.893 159.153 159.893C160.825 159.893 163.292 160.412 164.581 161.444C166.754 163.182 167.807 166.636 167.807 169.663C167.807 174.089 168.571 179.955 166.97 184.118C165.491 187.964 165.375 192.583 163.775 196.184C161.341 201.661 161.118 213.584 152.733 214.05C148.957 214.26 145.32 214.608 141.442 214.608C137.428 214.608 133.414 213.492 129.562 213.492C126.639 213.492 123.169 211.003 121.901 208.467C120.324 205.313 120.35 201.645 120.35 198.138C120.35 194.932 119.418 191.293 118.706 188.088C117.892 184.423 118.326 180.405 118.117 176.642C117.925 173.199 117 169.933 117 166.314C117 164.014 120.005 160.344 122.025 159.335" stroke="black" stroke-linecap="round"/>
<path d="M119.827 193.562C121.077 193.09 122.381 193.194 123.695 193.194C124.898 193.194 126.101 193.194 127.304 193.194C130.042 193.194 132.779 193.194 135.517 193.194C141.871 193.194 148.224 193.194 154.578 193.194C157.785 193.194 160.993 193.194 164.2 193.194" stroke="black" stroke-linecap="round"/>
<path d="M120.44 199.568C124.419 198.792 128.579 199.078 132.623 199.078C137.551 199.078 142.479 199.078 147.407 199.078C148.569 199.078 149.607 199.288 150.771 199.207C151.543 199.154 152.333 199.201 153.107 199.201C154.353 199.201 155.599 199.201 156.846 199.201C158.643 199.201 160.441 199.201 162.239 199.201" stroke="black" stroke-linecap="round"/>
<path d="M121.175 205.33C123.995 204.351 127.344 204.717 130.301 204.717C135.163 204.717 140.025 204.717 144.887 204.717C150.233 204.717 155.548 204.594 160.891 204.594" stroke="black" stroke-linecap="round"/>
<path d="M126.23 213.751C126.112 213.476 125.908 213.177 125.715 212.908C125.916 212.822 126.105 212.781 126.348 212.835C126.51 212.871 126.773 212.83 126.916 212.909C127.028 212.971 127.307 213.038 127.433 213.038C127.817 213.038 128.168 213.142 128.544 213.142C128.884 213.142 129.196 213.279 129.526 213.297C129.951 213.319 130.426 213.379 130.841 213.478C131.237 213.572 131.666 213.562 132.056 213.684C132.261 213.748 132.501 213.735 132.714 213.774C133.094 213.843 133.467 213.87 133.845 213.929C134.347 214.006 134.873 214.157 135.378 214.175C135.862 214.193 136.344 214.318 136.814 214.385C136.97 214.407 137.149 214.486 137.305 214.486C137.462 214.486 137.735 214.486 137.873 214.563C138.056 214.665 138.411 214.635 138.623 214.641C138.801 214.646 139.079 214.719 139.243 214.784C139.409 214.851 139.644 214.788 139.812 214.859C140.107 214.983 140.485 214.999 140.805 215.066C141.781 215.27 142.866 215.158 143.866 215.158C144.854 215.158 145.849 215.054 146.829 215.054C147.311 215.054 147.792 214.951 148.285 214.951C148.624 214.951 148.996 214.796 149.35 214.796C149.801 214.796 150.261 214.709 150.706 214.692C151.058 214.679 151.41 214.537 151.751 214.537C152.431 214.537 153.06 214.227 153.741 214.227C154.106 214.227 154.488 214.012 154.852 213.969C154.971 213.955 155.09 213.814 155.214 213.814C155.327 213.814 155.14 214.118 155.099 214.164C154.792 214.505 154.645 215.004 154.364 215.387C153.844 216.097 153.198 216.609 152.495 217.13C151.887 217.581 151.362 218.099 150.717 218.506C150.047 218.928 149.357 219.369 148.638 219.706C147.836 220.082 147.134 220.638 146.312 220.986L146.286 220.998C145.454 221.35 144.492 221.759 143.585 221.773C141.482 221.807 139.289 221.755 137.279 221.075C136.083 220.671 134.911 220.223 133.724 219.786C133.218 219.6 132.78 219.345 132.323 219.063C131.856 218.774 131.355 218.537 130.899 218.23C130.514 217.97 130.09 217.68 129.762 217.351C129.389 216.978 129.058 216.581 128.648 216.243C128.111 215.801 127.551 215.348 127.137 214.784C126.89 214.448 126.394 214.133 126.23 213.751Z" fill="#E7E3DD" fill-opacity="0.99"/>
<path d="M125.547 212.677C125.779 212.996 126.077 213.394 126.23 213.751C126.394 214.133 126.89 214.448 127.137 214.784C127.551 215.348 128.111 215.801 128.648 216.243C129.058 216.581 129.389 216.978 129.762 217.351C130.09 217.68 130.514 217.97 130.899 218.23C131.355 218.537 131.856 218.774 132.323 219.063C132.78 219.345 133.218 219.6 133.724 219.786C134.911 220.223 136.083 220.671 137.279 221.075C139.289 221.755 141.482 221.807 143.585 221.773C144.502 221.759 145.475 221.342 146.312 220.986C147.134 220.638 147.836 220.082 148.638 219.706C149.357 219.369 150.047 218.928 150.717 218.506C151.362 218.099 151.887 217.581 152.495 217.13C153.198 216.609 153.844 216.097 154.364 215.387C154.645 215.004 154.792 214.505 155.099 214.164C155.14 214.118 155.327 213.814 155.214 213.814C155.09 213.814 154.971 213.955 154.852 213.969C154.488 214.012 154.106 214.227 153.741 214.227C153.06 214.227 152.431 214.537 151.751 214.537C151.41 214.537 151.058 214.679 150.706 214.692C150.261 214.709 149.801 214.796 149.35 214.796C148.996 214.796 148.624 214.951 148.285 214.951C147.792 214.951 147.311 215.054 146.829 215.054C145.849 215.054 144.854 215.158 143.866 215.158C142.866 215.158 141.781 215.27 140.805 215.066C140.485 214.999 140.107 214.983 139.812 214.859C139.644 214.788 139.409 214.851 139.243 214.784C139.079 214.719 138.801 214.646 138.623 214.641C138.411 214.635 138.056 214.665 137.873 214.563C137.735 214.486 137.462 214.486 137.305 214.486C137.149 214.486 136.97 214.407 136.814 214.385C136.344 214.318 135.862 214.193 135.378 214.175C134.873 214.157 134.347 214.006 133.845 213.929C133.467 213.87 133.094 213.843 132.714 213.774C132.501 213.735 132.261 213.748 132.056 213.684C131.666 213.562 131.237 213.572 130.841 213.478C130.426 213.379 129.951 213.319 129.526 213.297C129.196 213.279 128.884 213.142 128.544 213.142C128.168 213.142 127.817 213.038 127.433 213.038C127.307 213.038 127.028 212.971 126.916 212.909C126.773 212.83 126.51 212.871 126.348 212.835C126.039 212.766 125.818 212.851 125.547 212.987" stroke="black" stroke-linecap="round"/>
<path d="M137.414 126.616C139.72 128.202 141.864 129.472 143.214 131.958C143.22 132.165 143.358 132.413 143.565 132.413C143.898 132.413 144.227 131.646 144.457 131.416C145.045 130.828 145.451 130.291 146.044 129.698C147.044 128.698 147.965 127.721 148.89 126.629C149.724 125.643 150.876 124.804 151.539 123.679C151.766 123.292 152.271 123.103 152.588 122.787C153.035 122.34 153.22 121.849 153.532 121.318C154.023 120.483 154.871 119.374 155.512 118.59C156.335 117.584 156.96 116.432 157.729 115.364C158.681 114.041 160.101 113.063 161.06 111.744C162.246 110.113 163.941 108.862 165.178 107.272C166.39 105.714 167.404 104.164 168.482 102.486C169.278 101.248 169.129 97.3799 168.535 96.0596C167.777 94.376 167.699 92.8498 166.463 91.2859C165.301 89.8169 164.53 88.6372 162.581 88.2827C160.986 87.9928 159.109 88.2696 157.493 88.2696C155.75 88.2696 154.332 88.3555 152.653 88.7286C151.383 89.0108 150.034 90.0631 149.112 90.9843L147.342 92.7548C146.658 93.4388 146.508 94.2478 145.978 95.0104C144.538 97.0841 143.644 99.8942 143.106 102.315C142.766 103.848 142.402 101.609 142.149 100.912C141.669 99.5924 140.694 98.6477 140.024 97.4759C137.98 93.8978 133.677 91.2337 130.11 89.4499C127.63 88.2103 124.813 87.7975 122.084 87.7975C120.459 87.7975 118.266 87.9755 116.89 88.8598C113.501 91.039 113.349 96.2062 113.349 99.7054C113.349 103.509 114.37 107.978 116.995 110.813C119.913 113.964 123.158 116.504 126.674 119.01C128.989 120.66 131.012 122.693 133.467 124.151C134.814 124.95 136.129 125.732 137.414 126.616Z" fill="#F37575" fill-opacity="0.64"/>
<path d="M143.329 132.177C141.987 129.545 139.787 128.247 137.414 126.616C136.129 125.732 134.814 124.95 133.467 124.151C131.012 122.693 128.989 120.66 126.674 119.01C123.158 116.504 119.913 113.964 116.995 110.813C114.37 107.978 113.349 103.509 113.349 99.7054C113.349 96.2062 113.501 91.039 116.89 88.8598C118.266 87.9755 120.459 87.7975 122.084 87.7975C124.813 87.7975 127.63 88.2103 130.11 89.4499C133.677 91.2337 137.98 93.8978 140.024 97.4759C140.694 98.6477 141.669 99.5924 142.149 100.912C142.402 101.609 142.766 103.848 143.106 102.315C143.644 99.8942 144.538 97.0841 145.978 95.0104C146.508 94.2478 146.658 93.4388 147.342 92.7548C147.932 92.1646 148.522 91.5745 149.112 90.9843C150.034 90.0631 151.383 89.0108 152.653 88.7286C154.332 88.3555 155.75 88.2696 157.493 88.2696C159.109 88.2696 160.986 87.9928 162.581 88.2827C164.53 88.6372 165.301 89.8169 166.463 91.2859C167.699 92.8498 167.777 94.376 168.535 96.0596C169.129 97.3799 169.278 101.248 168.482 102.486C167.404 104.164 166.39 105.714 165.178 107.272C163.941 108.862 162.246 110.113 161.06 111.744C160.101 113.063 158.681 114.041 157.729 115.364C156.96 116.432 156.335 117.584 155.512 118.59C154.871 119.374 154.023 120.483 153.532 121.318C153.22 121.849 153.035 122.34 152.588 122.787C152.271 123.103 151.766 123.292 151.539 123.679C150.876 124.804 149.724 125.643 148.89 126.629C147.965 127.721 147.044 128.698 146.044 129.698C145.451 130.291 145.045 130.828 144.457 131.416C144.227 131.646 143.898 132.413 143.565 132.413C143.245 132.413 143.092 131.823 143.329 131.705" stroke="black" stroke-width="2" stroke-linecap="round"/>
</svg>
