<?xml version="1.0" encoding="UTF-8" standalone="no"?><svg xmlns:svg="http://www.w3.org/2000/svg" xmlns="http://www.w3.org/2000/svg" version="1.1" style="overflow:visible" viewBox="-250 -250 500 500" height="500px" width="500px"><rect fill-opacity="0" fill="rgb(0,0,0)" height="500" width="500" y="-250" x="-250" /><svg version="1.1" y="-250" x="-250" viewBox="-250 -250 500 500" height="500px" width="500px" style="overflow:visible"><g transform="rotate(60,0,0)" stroke-linejoin="round" fill="#fff"><path stroke-linecap="butt" stroke-linejoin="round" stroke-width="10" stroke-opacity="1" stroke="rgb(68,68,68)" fill="rgb(161,212,131)" d="m-37.041-153.9619l17.4374-4.63795l12.5941 46.6601l-17.4374 4.63795z" /><path stroke-linecap="butt" stroke-linejoin="round" stroke-width="10" stroke-opacity="1" stroke="rgb(68,68,68)" fill="rgb(161,212,131)" d="m37.038999-152.4554l-17.4374-4.63795l-12.5941 46.6601l17.4374 4.63795z" /><path stroke-linecap="butt" stroke-linejoin="round" stroke-width="10" stroke-opacity="1" stroke="rgb(68,68,68)" fill="rgb(161,212,131)" d="m9.026999-162l-18.052 0.000015v48.3059h18.052z" /><path stroke-linecap="butt" stroke-linejoin="round" stroke="none" fill="rgb(255,183,71)" d="m-0.001001-121.428c-30.8992 0-50.6296 4.30497-55.7683 29.7069c-12.3442 61.0214 17.6244 253.721 55.7683 253.721c38.145 0 68.1145-192.697 55.7703-253.721c-5.13867-25.403-24.8701-29.7069-55.7703-29.7069z" /><path stroke-linecap="butt" stroke-linejoin="round" stroke="none" fill="rgb(206,143,45)" d="m10.855-75.088a4.72902 4.73267 0 1 0 0 9.46462h33.170499a4.72902 4.73267 0 1 0 0-9.46462z" /><path stroke-linecap="butt" stroke-linejoin="round" stroke="none" fill="rgb(206,143,45)" d="m10.855-48.167a4.72902 4.73267 0 1 0 0 9.46462h33.170499a4.72902 4.73267 0 1 0 0-9.46462z" /><path stroke-linecap="butt" stroke-linejoin="round" stroke="none" fill="rgb(206,143,45)" d="m-34.696 37.579999a4.72902 4.73267 0 1 0 0 9.46462h26.3038a4.72902 4.73267 0 1 0 0-9.46462z" /><path stroke-linecap="butt" stroke-linejoin="round" stroke="none" fill="rgb(206,143,45)" d="m-32.248 58.103a4.72902 4.73267 0 1 0 0 9.46462h26.3069a4.72902 4.73267 0 1 0 0-9.46462z" /><path stroke-linecap="butt" stroke-linejoin="round" stroke-width="10" stroke-opacity="1" stroke="rgb(68,68,68)" fill="none" d="m-0.001001-121.428c-30.8992 0-50.6296 4.30497-55.7683 29.7069c-12.3442 61.0214 17.6244 253.721 55.7683 253.721c38.145 0 68.1145-192.697 55.7703-253.721c-5.13867-25.403-24.8701-29.7069-55.7703-29.7069z" /></g></svg></svg>