<?xml version="1.0" encoding="UTF-8" standalone="no"?><svg xmlns:svg="http://www.w3.org/2000/svg" xmlns="http://www.w3.org/2000/svg" version="1.1" style="overflow:visible" viewBox="-250 -250 500 500" height="500px" width="500px"><rect fill-opacity="0" fill="rgb(0,0,0)" height="500" width="500" y="-250" x="-250" /><svg version="1.1" y="-245" x="-333" viewBox="-250 -250 500 500" height="500px" width="500px" style="overflow:visible"><g transform="rotate(344,0,0)" stroke-linejoin="round" fill="#fff"><path stroke-linecap="butt" stroke-linejoin="round" stroke="none" fill="rgb(232,194,72)" d="m-5.5955-189.671871c10.27596 1.382991 22.267429 8.0746 24.3523 15.670725c0.816411 2.974402 0.572365 5.393453 0.213702 7.61062c-2.10103 1.181961-3.130345 3.625608-2.502329 5.940682c0.0057 0.020064 0.0095 0.039415 0.013775 0.059356l-9.314228 4.193157l12.6122 6.186837l7.954976 14.793685l3.25545-9.93187h0.0019c5.268054 6.043292 11.25142 14.55552 16.709835 25.29584l-6.233986 5.119369l11.1169 5.504927c1.486664 3.592814 2.886622 7.373995 4.177444 11.34072l-10.46539 4.603804l13.55365 6.123168c1.204524 4.830645 2.217034 9.89729 3.010131 15.173305l-14.18445 5.438759l15.418405 5.06007c0.353979 4.122714 0.581419 8.34954 0.629593 12.702639c0.013775 1.24467 0.0057 2.449622-0.0095 3.636495l-16.61322 4.275275l16.057185 6.221284c-0.901835 9.354079-2.785267 16.589565-5.027638 22.482889l-17.11767 9.252059l11.32476 2.8346c-3.795735 6.740953-7.196535 11.790639-7.677017 18.248549c-0.04009 0.539543-0.04218 1.095616-0.011875 1.665397l-5.685959 6.467666l8.659354 3.666154c2.434964 5.385749 6.139584 11.65821 10.23682 18.773425l-11.64301 8.525461l16.96244 0.94904c3.62082 6.653505 7.2523 13.920729 10.397655 21.873655l-17.411695 7.085907l21.017039 3.109501c2.227902 7.165906 3.935536 14.808504 4.832317 22.93452l-17.474965 7.408727l18.16191 3.099232l-0.075715 6.766526c-0.217113 5.16894-0.926241 10.131085-2.074934 14.840329l-15.55967 8.57792l11.621255 2.972626c-4.013437 8.940165-9.902515 16.495515-17.34168 22.12474l-5.095629-5.39144l-5.904032 11.788359c-7.467884 3.214267-15.948126 4.849626-25.241595 4.571846l-7.633431-12.247875l-3.375436 11.073009c-6.915753-1.253848-14.189485-3.510155-21.75348-6.880584l-9.769325-13.03837l-3.645369 6.036898c-4.177312-2.493636-8.4229-5.310215-12.729905-8.486692c-2.984729-2.201245-6.032339-4.916003-9.074096-8.025829l8.342234-6.289713l-16.655685-3.305715c-3.946604-5.093948-7.764844-10.808816-11.282295-17.028085l17.329044-5.012162l-22.777105-5.577935c-2.399985-5.121906-4.570868-10.471945-6.438492-15.994675l21.209985-7.122407l-24.27763-3.16427c-2.43941-9.470132-3.92409-19.27778-4.085523-29.119305l24.09732-2.246009l-23.750285-8.30758c0.722731-8.646292 2.558293-17.22692 5.742255-25.5284l21.386875-0.231563l-16.915415-9.50532c5.868425-10.80948 12.3348-16.550995 16.599445-22.87068l12.34392-1.460084l-8.129711-8.224312c0.538602-2.713343 0.685957-5.781168 0.3171-9.435733c-0.20862-2.065832-1.247303-4.74582-2.814822-7.96879l9.576189-7.193144l-14.75312-2.520911c-3.512283-6.333926-7.690421-13.80559-11.647665-22.37801l16.768259-4.667673l-21.297385-6.011391c-2.386923-6.218102-4.477018-12.87421-6.013396-19.904875l21.025114-5.70343l-22.82888-4.772601c-0.495748-3.976396-0.775789-8.061776-0.820316-12.239515l21.78673-7.818244l-21.373195-2.810642c0.174866-1.902185 0.398942-3.819257 0.687039-5.75587c0.661266-4.445136 1.856081-8.555833 3.439836-12.38553l20.277085-8.613289l-13.583575-3.124332c7.340573-9.85017 17.52997-17.0962 27.689079-22.339155l3.375046 6.653885l10.264845-12.660745c5.703125-2.124998 10.8585-3.615339 14.93818-4.635734l7.413182 13.447344l3.191249-14.25038z" /><path stroke-linecap="butt" stroke-linejoin="round" stroke="none" fill="rgb(255,224,125)" d="m-9.1409-189.95706c1.142869 0.007695 2.335974 0.122382 3.545533 0.28517c1.442337 8.621316 2.629448 17.723104 3.600689 27.100365l18.476835 2.180972c-0.00475-0.019941-0.00855-0.039302-0.013775-0.059356a5.294711 5.256786 0 0 1 2.502319-5.940683c-0.758423 4.68824-2.087217 8.383607 4.614036 13.87988c2.15971 1.771379 4.687699 4.243887 7.405876 7.361948c1.94121 8.714996 3.592871 17.073305 4.944902 25.03345l11.767175 0.262352c1.691646 3.328648 3.331222 6.874504 4.882857 10.624325l-14.984065-0.33308c0.52381 3.595161 0.998193 7.117846 1.410864 10.54899l17.750655 1.124714c1.12004 3.441907 2.162009 7.012339 3.088269 10.72702l-19.694545-1.245621c0.543428 5.829494 0.920673 11.37834 1.169582 16.69492l21.53517-0.276042c0.512477 3.409179 0.925784 6.909844 1.233936 10.498829l-22.445175 0.285161c0.076475 5.149503 0.038854 10.05651-0.119482 14.671515l23.185035 1.382525c-0.049495 3.777237-0.244188 7.261543-0.556073 10.49655l-23.20109-1.382516c-0.02356 0.318268-0.039805 0.656602-0.064315 0.971869c-0.860301 11.083079-2.347089 20.384815-3.940762 27.896559l22.17851-5.003004c-1.814206 4.767983-3.852212 8.640287-5.792815 12.086659l-19.216695 4.334603c-1.606564 5.614785-2.997051 9.284245-3.570813 10.911795c-0.318307 0.902908-0.251836 3.615443 0.312511 7.555872l14.786465-2.888209c0.159685 2.961948 1.258806 6.341459 2.973395 10.13384l-15.687255 3.063873c0.295896 1.181619 0.61141 2.388832 0.965095 3.645625c1.437682 5.108729 3.239566 10.96224 5.183884 17.301875l19.775105-5.238006c1.729408 3.003235 3.513014 6.15505 5.319449 9.474492l-22.04076 5.835745c1.45729 4.841219 2.939414 9.843235 4.423295 15.162c0.335929 1.204087 0.668049 2.443894 1.001851 3.670714l27.013249-2.794672c1.299628 3.286097 2.513187 6.682775 3.605288 10.1954l-27.92772 2.888209c1.864679 7.466125 3.605991 15.288824 5.11954 23.388524l27.640535-3.342205c0.377425 3.419952 0.624349 6.91504 0.687039 10.50795l-26.542145 3.209888c1.148569 7.436951 2.057576 15.07973 2.637893 22.884359l21.753479-4.487439c-0.98877 4.053517-2.307294 7.916995-3.938481 11.550575l-17.2406 3.556638c0.202824 6.112651 0.179531 12.30915-0.101061 18.568035c-3.360521 2.542855-7.037686 4.69165-10.99967 6.396939c0.609842-7.878569 0.768303-15.69229 0.549185-23.393085l-30.193375 2.949797c1.361967 8.481276 2.831237 16.8511 4.402632 25.01521c-3.555128-0.106324-7.227733-0.489374-11.008885-1.174903c-1.499404-7.958131-2.904378-16.07932-4.207303-24.285135l-25.172625-6.3422c2.47759 7.828703 5.048138 15.743589 7.626467 23.746675c-4.378883-1.951167-8.855368-4.279855-13.414665-7.0015c-1.993794-6.159173-3.972178-12.300695-5.884709-18.4129l-15.91934 1.900389c-2.797161-2.859757-5.584794-6.073407-8.313526-9.59538l21.100925-2.518631c-1.414902-4.708903-2.776413-9.411992-4.071748-14.110255l-28.31152-0.399247c-1.917822-3.39094-3.735571-6.935228-5.448127-10.590125l30.974655 0.438007c-1.617518-6.432023-3.089134-12.86566-4.345177-19.31179l-33.067886 2.87907c-1.140665-3.373023-2.170817-6.805316-3.067588-10.286695l34.317895-2.986306c-1.132685-7.16414-1.976209-14.353265-2.47475-21.58172l-35.92881-4.551317c-0.05776-3.518848 0.05339-7.041866 0.346996-10.55355l35.087679 4.4441c-0.143517-7.494009 0.12236-15.04154 0.863968-22.656265l-30.209525-7.31633c0.293112-0.764247 0.596067-1.526593 0.912227-2.285928c1.141919-2.742555 2.337608-5.200547 3.559326-7.450945l27.065974 6.554372c1.239075-7.965361 3.022871-16.014245 5.443528-24.16648l-15.91003-5.258545c1.966642-2.914315 3.474748-5.959065 4.214209-9.684395l14.97029 4.945984c0.529425-1.480015 1.072512-2.963592 1.645248-4.450921c0.07828-0.203053 0.381244-3.069393-0.22059-7.131555c-0.540854-3.650508-1.578815-8.386572-2.876876-13.843305l-16.015765 3.075282c-1.365796-2.808172-3.168269-6.09159-5.176987-9.714035l18.701984-3.590877c-1.351888-5.501849-2.79623-11.447215-4.234882-17.865416l-26.114835-0.921671c-1.570265-3.401561-3.101465-6.960175-4.529011-10.679045l28.396545 1.003798c-0.651719-3.249152-1.286338-6.551286-1.875025-9.946785c-0.655871-3.783052-1.24925-7.670044-1.787701-11.612135l-30.747225 0.650199c-0.744031-3.404791-1.35756-6.896905-1.803794-10.47603l31.3101-0.663879c-0.490399-4.98427-0.850697-10.052995-1.02943-15.1848l-31.101005 3.609126c-0.037145-3.479708 0.081794-7.018724 0.413601-10.628885l30.58164-3.549799c0.098933-6.321243 0.49856-12.700455 1.277588-19.08816l-27.7324 4.496578c1.766582-4.271808 4.037889-8.176745 6.691258-11.73763l22.752975-3.686694c1.209834-6.256339 2.850788-12.486895 4.938014-18.652395c4.651427-2.40046 9.287798-4.385238 13.639909-6.006822c-3.311938 7.658292-5.773616 15.522144-7.500089 23.486659l25.963119-1.94144c-0.962416-9.122869-2.125416-17.92403-3.524861-26.18086c0.94107-0.235376 1.877276-0.467221 2.690751-0.652471c1.345352-0.306381 2.817823-0.446213 4.368166-0.435741zm-2.529898 37.73609l-28.862995 2.158172c-0.919429 6.583832-1.397175 13.197115-1.534944 19.777195l31.930449-0.869193c-0.419492-7.089746-0.92568-14.13695-1.532635-21.066155zm10.687119 0.353611c0.61825 7.223154 1.124116 14.54678 1.539551 21.889615l24.237445 7.523943c-1.534896-8.566141-3.393419-17.570345-5.627354-27.03415zm-8.593833 31.211299l-32.4292 0.885162c0.174648 5.448876 0.553783 10.85033 1.098361 16.168049l32.07295 2.247139c-0.192233-6.380941-0.432991-12.824715-0.742178-19.300295zm10.70783 1.870711c0.2715 6.067108 0.473128 12.08115 0.645695 18.04563l26.496259 1.158943c-0.457159-3.661604-0.970016-7.406153-1.557915-11.263105zm-40.71738 25.813685c0.455088 3.2013 0.940652 6.376323 1.479796 9.48593c0.679858 3.9214 1.422739 7.743088 2.189816 11.4798l27.624384-2.972626c-0.05111-4.384877-0.114266-8.849583-0.206796-13.4121c-0.016055-0.790961-0.044555-1.611789-0.06194-2.406854zm41.63185 2.765022c0.011875 0.528779 0.030685 1.076863 0.04142 1.603799c0.093575 4.611423 0.159894 9.138753 0.213693 13.58785l28.4126 2.906458c-0.264936-5.356594-0.676809-10.989695-1.252319-16.898031zm0.349276 25.770365c0.046169 6.802047 0.051015 12.830414 0.050539 18.894265l28.49981-1.28441c0.15922-4.597136 0.196612-9.508455 0.112594-14.680635zm-10.599815 0.0228l-25.471305 2.742203c1.392082 6.113554 2.77399 11.7914 4.083223 17.11938l21.422595-0.599992c0.0076-6.162023 0.0076-12.33366-0.034485-19.26163zm38.568954 28.138334l-27.909385 1.25475c-0.01843 11.62781-0.036765 20.94427 0.124079 26.98171l23.00349 3.378703c1.858741-7.651614 3.720446-17.89363 4.754199-31.2113c0.010734-0.130834 0.01748-0.272403 0.02755-0.403798zm-38.53447 1.640289l-18.89037 0.527003c1.17628 4.998102 2.145337 9.476858 2.720619 13.359659c0.697822 4.709948 1.14436 8.494605-0.365361 12.41517c-0.183949 0.477707-0.353894 0.953505-0.533083 1.430415l17.203835-1.400756c-0.171456-6.356944-0.15942-15.44738-0.135565-26.33153zm0.673255 36.83492l-21.43865 1.745235c-2.426063 7.938057-4.219397 15.77874-5.455033 23.54366l28.431029-1.218242c-0.733467-10.7844-1.20575-18.578675-1.537243-24.07072zm10.638955 0.469955c0.337981 5.550565 0.799111 12.958379 1.488992 23.00292l15.36321-1.088216c-0.793241-4.753392-0.822738-8.959346 0.565259-12.896535c0.468673-1.329392 1.234325-3.390645 2.134678-6.145997zm19.292505 32.283565l-17.059055 1.206851c0.460512 6.272982 0.982566 12.981845 1.580904 20.187784l21.643185-0.469946c-1.803091-5.88051-3.499867-11.420425-4.894353-16.375625c-0.443061-1.574407-0.865897-3.083406-1.270701-4.549056zm-27.65431 1.809132l-30.52198 1.307219c-0.71099 7.337173-0.95589 14.619359-0.797345 21.866815l32.888714-2.984036c-0.595546-7.211678-1.113125-13.92415-1.56941-20.18997zm36.992619 29.561909l-23.920335 0.520153c0.64752 7.328043 1.379846 14.997935 2.176041 22.88208l26.969549-5.370331c-0.213351-0.777347-0.424356-1.572041-0.638799-2.340677c-1.533994-5.498334-3.07173-10.6742-4.586448-15.691245zm-34.53174 1.104166l-33.254085 3.015974c0.511679 6.978928 1.358709 13.9384 2.490843 20.89506l32.987515-0.485916c-0.816297-8.080947-1.565648-15.93739-2.224292-23.4251zm42.449895 27.111765l-28.582555 5.691991c0.707664 6.588762 1.481525 13.299999 2.300102 20.069129l31.392844-2.641798c-1.508942-7.983658-3.245571-15.72136-5.110345-23.119295zm-39.15026 6.809875l-32.16491 0.474515c1.320709 6.584668 2.859015 13.177259 4.568065 19.79534l29.832565-0.757416c-0.794333-6.583187-1.547569-13.109525-2.235787-19.512525zm46.062175 26.70792l-31.88219 2.682876c1.021715 7.931645 2.105693 15.886565 3.292785 23.812889l31.284829-3.057015c-0.56716-7.980228-1.505902-15.80648-2.69534-23.43878zm-42.512025 3.285157l-28.32064 0.718618c1.338245 4.758493 2.768898 9.547595 4.230283 14.34747l27.084404 6.823546c-1.076597-7.302584-2.058052-14.608055-2.994049-21.889615z" /><path stroke-linecap="butt" stroke-linejoin="round" stroke-width="10" stroke-opacity="1" stroke="rgb(113,102,72)" fill="none" d="m-13.50805-189.52196c10.76274-2.451057 29.600859 5.817515 32.26409 15.520624c2.542722 9.263773-5.04185 13.394429 4.828564 21.489949c13.313965 10.92006 40.523485 48.051285 41.139655 103.724799c0.487587 44.052355-17.89515 51.25554-19.062985 66.950869c-1.37997 18.54704 40.37709 54.911805 37.965799 112.32515c-2.190586 52.15386-53.566605 83.833225-118.50395 35.941539c-28.435305-20.97125-62.721185-86.1403-40.70883-139.0078c10.998625-26.415795 26.893455-27.62315 24.691544-49.44104c-1.405126-13.91351-39.83597-55.0962-31.70625-109.74685c5.880148-39.527315 52.153385-53.89977 69.091979-57.757245z" /></g></svg><svg version="1.1" y="-220" x="-179" viewBox="-250 -250 500 500" height="500px" width="500px" style="overflow:visible"><g transform="rotate(13,0,0)" stroke-linejoin="round" fill="#fff"><path stroke-linecap="butt" stroke-linejoin="round" stroke="none" fill="rgb(232,194,72)" d="m5.889999-199.654601c-10.8168 1.45578-23.4394 8.49958-25.634 16.4955c-0.85938 3.13095-0.60249 5.67732-0.22495 8.011179c2.21161 1.24417 3.2951 3.81643 2.63403 6.25335c-0.006 0.02112-0.01 0.04149-0.0145 0.06248l9.80445 4.41385l-13.276 6.51246l-8.37366 15.5723l-3.42679-10.4546h-0.002c-5.54532 6.36136-11.8436 15.3216-17.5893 26.6272l6.56209 5.38881l-11.702 5.79466c-1.56491 3.78191-3.03855 7.7621-4.39731 11.9376l11.0162 4.84611l-14.267 6.44544c-1.26792 5.08489-2.33372 10.4182-3.16856 15.9719l14.931 5.72501l-16.2299 5.32639c-0.37261 4.3397-0.61202 8.78899-0.66273 13.3712c-0.0145 1.31018-0.006 2.57855 0.01 3.82789l17.4876 4.50029l-16.9023 6.54872c0.9493 9.8464 2.93186 17.4627 5.29225 23.6662l18.0186 9.73901l-11.9208 2.98379c3.99551 7.09574 7.5753 12.4112 8.08107 19.209c0.0422 0.56794 0.0444 1.15328 0.0125 1.75305l5.98522 6.80807l-9.11511 3.85911c-2.56312 5.66921-6.46272 12.2718-10.7756 19.7615l12.2558 8.97417l-17.8552 0.99899c-3.81139 7.00369-7.634 14.6534-10.9449 23.0249l18.3281 7.45885l-22.1232 3.27316c-2.34516 7.54306-4.14267 15.5879-5.08665 24.1416l18.3947 7.79866l-19.1178 3.26235l0.0797 7.12266c0.22854 5.44099 0.97499 10.6643 2.18414 15.6214l16.378599 9.02939l-12.2329 3.12908c4.22467 9.4107 10.4237 17.3637 18.2544 23.2892l5.36382-5.6752l6.21477 12.4088c7.86093 3.38344 16.7875 5.10487 26.5701 4.81247l8.03519-12.8925l3.55309 11.6558c7.27974-1.31984 14.9363-3.6949 22.8984-7.24272l10.2835-13.7246l3.83723 6.35463c4.39717-2.62488 8.86621-5.5897 13.3999-8.93336c3.14182-2.3171 6.34983-5.17474 9.55168-8.44824l-8.7813-6.62075l17.5323-3.4797c4.15432-5.36205 8.17352-11.3777 11.8761-17.9243l-18.2411-5.27596l23.9759-5.87151c2.5263-5.39148 4.81144-11.0231 6.77736-16.8365l-22.3263-7.49727l25.5554-3.33081c2.5678-9.96856 4.13062-20.2924 4.30055-30.6519l-25.3656-2.36422l25.0003-8.74482c-0.76077-9.10136-2.69294-18.1336-6.04448-26.872l-22.5125-0.24375l17.8057-10.0056c-6.17729-11.3784-12.984-17.4221-17.4731-24.0744l-12.9936-1.53693l8.55759-8.65717c-0.56695-2.85615-0.72206-6.08544-0.33379-9.93235c0.2196-2.17456 1.31295-4.9956 2.96297-8.3882l-10.0802-7.57173l15.5296-2.65359c3.69714-6.66729 8.095179-14.5322 12.2607-23.5558l-17.6508-4.91334l22.4183-6.32778c2.51255-6.54537 4.71265-13.5518 6.32989-20.9525l-22.1317-6.00361l24.0304-5.02379c0.521839-4.18568 0.81662-8.48608 0.86349-12.8837l-22.9334-8.22973l22.4981-2.95857c-0.18407-2.0023-0.41994-4.02027-0.7232-6.05881c-0.69607-4.67909-1.95377-9.00614-3.62088-13.0374l-21.3443-9.06662l14.2985-3.28877c-7.72692-10.3686-18.4526-17.996-29.1464-23.5149l-3.55268 7.00409l-10.8051-13.3271c-6.00329-2.23684-11.43-3.80562-15.7244-4.87972l-7.80335 14.1551l-3.35921-15.0004z" /><path stroke-linecap="butt" stroke-linejoin="round" stroke="none" fill="rgb(255,224,125)" d="m9.622-199.9548c-1.20302 0.0081-2.45892 0.128824-3.73214 0.300179c-1.51825 9.07507-2.76784 18.6559-3.7902 28.5267l-19.4493 2.29576c0.005-0.02099 0.009-0.04137 0.0145-0.06248a5.57338 5.53346 0 0 0-2.63402-6.25335c0.79834 4.93499 2.19707 8.82485-4.85688 14.6104c-2.27338 1.86461-4.93442 4.46725-7.79566 7.74942c-2.04338 9.17368-3.78197 17.9719-5.20516 26.351l-12.3865 0.27616c-1.78068 3.50384-3.50655 7.23632-5.13985 11.1835l15.7727-0.35061c-0.55138 3.78438-1.05073 7.49247-1.48512 11.1042l-18.6849 1.18391c-1.17899 3.62306-2.2758 7.38141-3.25081 11.2916l20.7311-1.31118c-0.57203 6.13631-0.96913 11.9772-1.23114 17.5736l-22.6686-0.29057c-0.53945 3.58861-0.97451 7.27352-1.29888 11.0514l23.6265 0.30017c-0.0805 5.42053-0.0409 10.5858 0.12577 15.4437l-24.4053 1.45529c0.0521 3.97604 0.25704 7.64373 0.58534 11.049l24.4222-1.45528c0.0248 0.33502 0.0419 0.69116 0.0677 1.02302c0.90558 11.6664 2.47062 21.4577 4.14817 29.3648l-23.3458-5.26632c1.90969 5.01893 4.05496 9.09504 6.0977 12.7228l20.2281 4.56274c1.69112 5.9103 3.15479 9.77289 3.75875 11.4861c0.33506 0.95043 0.26509 3.80573-0.32896 7.95355l-15.5647-3.04022c-0.16809 3.11784-1.32506 6.67522-3.12989 10.6672l16.512899 3.22513c-0.31147 1.24381-0.64359 2.51456-1.01589 3.8375c-1.51335 5.37761-3.41007 11.5392-5.45672 18.2125l-20.8159-5.51369c-1.82043 3.1613-3.69791 6.479-5.59942 9.97315l23.2008 6.14289c-1.53399 5.09602-3.09412 10.3613-4.6561 15.96c-0.35361 1.26746-0.70321 2.57252-1.05458 3.86391l-28.435-2.94176c-1.36803 3.45905-2.64546 7.0345-3.79504 10.732l29.3976 3.04022c-1.96282 7.85908-3.79578 16.093499-5.38899 24.6195l-29.0953-3.51811c-0.39729 3.59995-0.65721 7.27899-0.7232 11.061l27.9391 3.37883c-1.20902 7.82837-2.16587 15.8734-2.77673 24.0888l-22.8984-4.72362c1.04081 4.26686 2.42873 8.333679 4.145768 12.1585l18.148 3.74383c-0.2135 6.43437-0.18898 12.957 0.10638 19.5453c3.53739 2.67669 7.40809 4.93858 11.5786 6.73362c-0.64194-8.29323-0.80874-16.5182-0.57809-24.6243l31.7825 3.10505c-1.43365 8.92766-2.98025 17.738-4.63435 26.3318c3.74224-0.11192 7.60814-0.51513 11.5883-1.23674c1.57832-8.37698 3.05724-16.9256 4.42874-25.5633l26.4975-6.676c-2.60799 8.24074-5.31383 16.572199-8.02786 24.9965c4.60935-2.05386 9.32144-4.50511 14.1207-7.37c2.09873-6.48334 4.18124-12.9481 6.19443-19.382l16.7572 2.00041c2.94438-3.01027 5.87873-6.39306 8.75108-10.1004l-22.2115-2.65119c1.48937-4.95674 2.92254-9.90736 4.28605-14.8529l29.8016-0.42026c2.01876-3.56941 3.93218-7.30024 5.73487-11.1475l-32.6049 0.46106c1.70265-6.77055 3.25172-13.5428 4.57387-20.3282l34.8083 3.0306c1.2007-3.55055 2.28507-7.16349 3.22904-10.8281l-36.1241-3.14348c1.1923-7.5412 2.08022-15.1087 2.605-22.7176l37.8198-4.79086c0.0608-3.70405-0.0562-7.41249-0.36526-11.109l-36.9344 4.678c0.15107-7.88843-0.1288-15.8332-0.90944-23.8487l31.7995-7.7014c-0.30854-0.80447-0.62744-1.60694-0.96024-2.40624c-1.20202-2.8869-2.46064-5.47426-3.74666-7.8431l-28.4905 6.89934c-1.30429-8.38459-3.18197-16.8571-5.73003-25.4384l16.747399-5.53531c-2.07015-3.0677-3.65763-6.2727-4.43601-10.1941l-15.7582 5.2063c-0.55729-1.55791-1.12896-3.11957-1.73184-4.68518c-0.0824-0.21374-0.40131-3.23094 0.2322-7.5069c0.56932-3.84264 1.66191-8.82797 3.02829-14.5719l16.8587 3.23714c1.43768-2.95597 3.33502-6.4122 5.44946-10.2253l-19.6863-3.77987c1.42304-5.79142 2.9434-12.0497 4.45777-18.8057l27.4893-0.97018c1.65291-3.58059 3.2647-7.3265 4.76738-11.2411l-29.8911 1.05663c0.68602-3.42016 1.35404-6.89609 1.97371-10.4703c0.69039-3.98216 1.315-8.07373 1.88179-12.2233l32.365499 0.68442c0.78319-3.58399 1.42901-7.2599 1.89873-11.0274l-32.958-0.69882c0.516209-5.2466 0.89547-10.5821 1.08361-15.984l32.7379 3.79908c0.0391-3.66285-0.0861-7.38813-0.43537-11.1883l-32.191201-3.73663c-0.10414-6.65394-0.5248-13.3689-1.34483-20.0928l29.192 4.73324c-1.85956-4.49664-4.25041-8.6071-7.04343-12.3554l-23.9505-3.88073c-1.27351-6.58562-3.00083-13.1441-5.19791-19.6341c-4.89624-2.5268-9.77663-4.61604-14.3578-6.32297c3.48625 8.06136 6.07749 16.339099 7.89483 24.7228l-27.3296-2.043621c1.013069-9.60302 2.23728-18.8674 3.71038-27.5588c-0.9906-0.247764-1.97608-0.491811-2.83237-0.686811c-1.41616-0.322506-2.96613-0.469697-4.59807-0.458674zm2.66305 39.7222l30.3821 2.27176c0.96782 6.93035 1.47071 13.8917 1.61573 20.8181l-33.611-0.91494c0.44157-7.46289 0.9744-14.881 1.6133-22.1749zm-11.2496 0.372223c-0.65079 7.60332-1.18328 15.3124-1.62058 23.0417l-25.5131 7.91994c1.61568-9.01699 3.57202-18.4951 5.92353-28.457zm9.04614 32.854l34.136 0.93175c-0.18384 5.73566-0.58293 11.4214-1.15617 17.019l-33.761 2.36541c0.20235-6.71678 0.45578-13.4997 0.78124-20.3161zm-11.2714 1.96917c-0.28579 6.38643-0.49803 12.717-0.67968 18.9954l-27.8908 1.21994c0.48122-3.85432 1.021069-7.79595 1.63991-11.8559zm42.8604 27.1723c-0.47904 3.36979-0.99016 6.71192-1.55768 9.98519c-0.71564 4.12779-1.49762 8.15062-2.30507 12.084l-29.0783-3.12908c0.0538-4.61566 0.12028-9.31535 0.21768-14.118c0.0169-0.83259 0.0469-1.69662 0.065198-2.53353zm-43.823 2.91055c-0.0125 0.55661-0.032302 1.13354-0.0436 1.68821c-0.0985 4.85413-0.16831 9.61974-0.22494 14.303l-29.908 3.05943c0.27888-5.63852 0.71243-11.5681 1.31823-17.7874zm-0.36766 27.1267c-0.0486 7.16005-0.0537 13.5057-0.0532 19.8887l-29.9998-1.35201c-0.1676-4.83909-0.20696-10.0089-0.11852-15.4533zm11.1577 0.024l26.8119 2.88653c-1.46535 6.43532-2.91999 12.412-4.29813 18.0204l-22.5501-0.63157c-0.008-6.48634-0.008-12.9828 0.0363-20.2754zm-40.5989 29.6193l29.3783 1.32079c0.0194 12.2398 0.0387 22.0466-0.13061 28.4018l-24.2142 3.55653c-1.95657-8.05433-3.91626-18.8354-5.00442-32.854c-0.0113-0.13772-0.0184-0.28674-0.029-0.42505zm40.5626 1.72662l19.8846 0.55474c-1.23819 5.26116-2.25825 9.97564-2.86381 14.0628c-0.73455 4.95784-1.20459 8.94169 0.38459 13.0686c0.19363 0.50285 0.37252 1.00369 0.56114 1.5057l-18.1093-1.47448c0.18048-6.69152 0.16781-16.2604 0.1427-27.7174zm-0.70869 38.7736l22.567 1.83709c2.55375 8.35585 4.44147 16.6092 5.74214 24.7828l-29.9274-1.28236c0.77207-11.352 1.26921-19.5565 1.61815-25.3376zm-11.1989 0.49469c-0.35577 5.8427-0.84117 13.6404-1.56736 24.2136l-16.171801-1.14549c0.83499-5.00357 0.86604-9.43089-0.59501-13.5753c-0.49334-1.39936-1.29929-3.5691-2.24703-6.46947zm-20.3079 33.9827l17.9569 1.27037c-0.48475 6.60314-1.034281 13.6651-1.66411 21.2503l-22.7823-0.49468c1.89799-6.19001 3.68407-12.0215 5.15195-17.2375c0.46638-1.65727 0.91147-3.24569 1.33758-4.78848zm29.1098 1.90435l32.1284 1.37602c0.74841 7.72334 1.0062 15.3888 0.83931 23.0177l-34.6197-3.14109c0.62689-7.59124 1.17171-14.657 1.65201-21.2526zm-38.9396 31.1178l25.1793 0.54753c-0.6816 7.71373-1.45247 15.7873-2.29057 24.0864l-28.389-5.65298c0.22458-0.81826 0.44669-1.65478 0.67242-2.46387c1.61473-5.78772 3.2334-11.236 4.82784-16.5171zm36.3492 1.16228l35.0043 3.17471c-0.53861 7.34624-1.43022 14.672-2.62194 21.9948l-34.7237-0.51149c0.85926-8.50626 1.64805-16.7762 2.34136-24.658zm-44.6841 28.5387l30.0869 5.99157c-0.74491 6.93554-1.5595 14-2.42116 21.1254l-33.0451-2.78084c1.58836-8.40385 3.41639-16.5488 5.37931-24.3361zm41.2108 7.16829l33.8578 0.49949c-1.39022 6.93123-3.00949 13.8708-4.80849 20.8372l-31.4027-0.79728c0.83614-6.92967 1.62902-13.7995 2.35346-20.5395zm-48.4865 28.1136l33.5602 2.82408c-1.07549 8.3491-2.21652 16.7227-3.46609 25.0662l-32.9314-3.21791c0.59701-8.40024 1.58516-16.6384 2.8372-24.6724zm44.7495 3.45806l29.8112 0.75644c-1.40868 5.00894-2.91463 10.0501-4.45293 15.1026l-28.5099 7.18268c1.13326-7.68693 2.16637-15.3769 3.15163-23.0417z" /><path stroke-linecap="butt" stroke-linejoin="round" stroke-width="10" stroke-opacity="1" stroke="rgb(113,102,72)" fill="none" d="m14.218999-199.4968c-11.3292-2.58006-31.1588 6.1237-33.9622 16.337499c-2.67655 9.75134 5.30721 14.0994-5.0827 22.621c-14.0147 11.4948-42.6563 50.5803-43.3049 109.184c-0.51325 46.3709 18.837 53.9532 20.0663 70.4746c1.4526 19.5232-42.5022 57.8019-39.964 118.237c2.30588 54.8988 56.3859 88.2455 124.741 37.8332c29.9319-22.075 66.0223-90.674 42.8514-146.324c-11.5775-27.8061-28.3089-29.077-25.9911-52.0432c1.47908-14.6458 41.9326-57.996 33.375-115.523c-6.18963-41.6077-54.8983-56.7366-72.7284-60.7971z" /></g></svg></svg>