<?xml version="1.0" encoding="UTF-8" standalone="no"?><svg xmlns:svg="http://www.w3.org/2000/svg" xmlns="http://www.w3.org/2000/svg" version="1.1" style="overflow:visible" viewBox="-250 -250 500 500" height="500px" width="500px"><rect fill-opacity="0" fill="rgb(0,0,0)" height="500" width="500" y="-250" x="-250" /><svg version="1.1" y="-250" x="-250" viewBox="-250 -250 500 500" height="500px" width="500px" style="overflow:visible"><g transform="rotate(45,0,0)" stroke-linejoin="round" fill="#fff"><path stroke-linecap="butt" stroke-linejoin="round" stroke="none" fill="rgb(71,179,62)" d="m-17.387-195.0012c-1.01239 17.9803-8.02597 28.895-14.1369 42.7195h34.2592c13.1282-10.5733 2.828-27.6925 0-42.7243z" /><path stroke-linecap="butt" stroke-linejoin="round" stroke="none" fill="rgb(67,153,60)" d="m2.739-195.0012v42.7243h28.7667c-7.16544-14.2459-14.215-25.9768-15.4104-42.7243z" /><path stroke-linecap="butt" stroke-linejoin="round" stroke-width="10" stroke-opacity="1" stroke="rgb(68,68,68)" fill="none" d="m-17.387-195h33.4859c1.19581 16.747599 8.24503 28.4773 15.4104 42.7231h-63.0259c6.10902-13.8293 13.1209-24.738 14.1296-42.7231z" /><path stroke-linecap="butt" stroke-linejoin="round" stroke="none" fill="rgb(71,179,62)" d="m-26.779-154.7448c-9.99942 0-19.4795 7.97343-18.0475 17.6507c10.0643 68.0153 4.46967 131.52 9.0496 191.466c2.68321 65.676598 21.5238 83.0858 22.4556 120.955c0.43951 17.8656 5.49268 18.8786 5.49268 18.8786s2.47097 1.22066 5.72051 0.63191c16.663-111.91 30.3121-225.357-1.35295-349.585z" /><path stroke-linecap="butt" stroke-linejoin="round" stroke="none" fill="rgb(67,153,60)" d="m-3.47-154.7448c1.26122 116.791 6.21671 234.787 1.35295 349.585c3.63437-0.65854 8.245649-3.58653 11.516-13.129c12.8989-37.6389 23.6864-61.6585 26.3698-127.33c4.57992-59.9524-1.01477-123.455 9.04958-191.466c1.43199-9.67763-8.04769-17.6507-18.0475-17.6507h-30.2413z" /><path stroke-linecap="butt" stroke-linejoin="round" stroke="none" fill="rgb(95,196,86)" d="m-3.189-132.879001l-9.58031 12.2489l12.5318 242.212c2.28704-83.6521 3.98005-167.307-2.91936-254.407z" /><path stroke-linecap="butt" stroke-linejoin="round" stroke="none" fill="rgb(95,196,86)" d="m-3.152-132.831001c1.21249 84.886 3.87345 170.241 2.91936 254.419l0.0173 0.31312c4.189358-80.3789 6.46445-160.014 6.02058-241.295l-8.95726-13.4369z" /><path stroke-linecap="butt" stroke-linejoin="round" stroke-width="10" stroke-opacity="1" stroke="rgb(68,68,68)" fill="none" d="m-26.779-154.7448c-9.99942 0-19.4795 7.97343-18.0475 17.6507c10.0643 68.0153 4.46967 131.52 9.0496 191.466c2.68321 65.676598 21.5238 83.087 22.4556 120.955c0.4395 17.8656 5.49207 18.8774 5.49207 18.8774s11.0418 5.57761 17.2363-12.4964c12.8989-37.6388 23.6876-61.6585 26.3698-127.33c4.57992-59.9524-1.01477-123.455 9.04959-191.466c1.43199-9.67763-8.04769-17.6507-18.0475-17.6507z" /></g></svg></svg>