<?xml version="1.0" encoding="UTF-8" standalone="no"?><svg xmlns:svg="http://www.w3.org/2000/svg" xmlns="http://www.w3.org/2000/svg" version="1.1" style="overflow:visible" viewBox="-250 -250 500 500" height="500px" width="500px"><rect fill-opacity="0" fill="rgb(0,0,0)" height="500" width="500" y="-250" x="-250" /><svg version="1.1" y="-250" x="-250" viewBox="-250 -250 500 500" height="500px" width="500px" style="overflow:visible"><g transform="rotate(0,0,0)" stroke-linejoin="round" fill="#fff"><path stroke-linecap="butt" stroke-linejoin="round" stroke="none" fill="rgb(226,176,67)" d="m108.639999-67.301l-227.509 222.029c31.2099 25.5853 74.0502 40.2641 118.87 40.2641c92.4459 0 176.467-62.445 167.389-154.236c-4.61921-46.6901-31.0307-81.2935-58.7536-108.049z" /><path stroke-linecap="butt" stroke-linejoin="round" stroke="none" fill="rgb(238,195,101)" d="m-19.222001-195c0 24.0297-11.7801 53.6894-25.6019 70.6817c-24.7353 30.378-113.703 75.5492-122.56 165.071c-4.67092 47.2824 15.3494 86.7944 48.5158 113.976c221.119 58.0144 306.224-74.9188 227.509-222.029c-25.4403-24.5429-51.9676-42.4882-63.8065-57.0175c-13.8218-16.9924-25.6019-46.652-25.6019-70.6817h-19.2271z" /><path stroke-linecap="butt" stroke-linejoin="round" stroke="none" fill="rgb(222,137,67)" d="m-9.807-109.291c-11.5247 85.6303-18.5867 171.346-7.36639 257.378c-25.383-94.9475-24.891-167.211 7.36639-257.378z" /><path stroke-linecap="butt" stroke-linejoin="round" stroke="none" fill="rgb(229,148,81)" d="m-60.879-53.593c-13.4756 57.8121-19.1331 113.9-5.30868 174.454c-26.2761-61.2824-27.9682-114.079 5.30868-174.454z" /><path stroke-linecap="butt" stroke-linejoin="round" stroke="none" fill="rgb(234,156,92)" d="m-114.844-8.553c-9.4937 38.1646-9.92452 77.008 2.54374 117.32c-25.0775-41.1877-27.532-77.2045-2.54374-117.32z" /><path stroke-linecap="butt" stroke-linejoin="round" stroke="none" fill="rgb(222,137,67)" d="m8.920999-109.041c13.2166 85.3869 21.9724 170.935 12.4572 257.172c23.4985-95.4298 21.5787-167.666-12.4572-257.172002z" /><path stroke-linecap="butt" stroke-linejoin="round" stroke="none" fill="rgb(229,148,81)" d="m57.656999-51.159c13.4756 57.8121 19.1331 113.9 5.30869 174.454c26.2761-61.2824 27.9682-114.079-5.30869-174.454z" /><path stroke-linecap="butt" stroke-linejoin="round" stroke="none" fill="rgb(234,156,92)" d="m106.745-10.166c9.49371 38.1646 9.92452 77.008-2.54374 117.32c25.0775-41.1878 27.532-77.2045 2.54374-117.32z" /><path stroke-linecap="butt" stroke-linejoin="round" stroke-width="10" stroke-opacity="1" stroke="rgb(68,68,68)" fill="none" d="m-19.222001-195c0 24.0283-11.7911 53.6952-25.6136 70.6788c-24.7338 30.3898-113.696 75.5492-122.553 165.071c-9.08214 91.7982 74.9417 154.251 167.389 154.251c92.4459 0 176.467-62.4465 167.389-154.251c-8.85696-89.5228-97.8189-134.682-122.553-165.071c-13.8218-16.9821-25.6136-46.6505-25.6136-70.6788h-19.2213z" /></g></svg></svg>