<?xml version="1.0" encoding="UTF-8" standalone="no"?><svg xmlns:svg="http://www.w3.org/2000/svg" xmlns="http://www.w3.org/2000/svg" version="1.1" style="overflow:visible" viewBox="-250 -250 500 500" height="500px" width="500px"><rect fill-opacity="0" fill="rgb(0,0,0)" height="500" width="500" y="-250" x="-250" /><svg version="1.1" y="-211" x="-190" viewBox="-250 -250 500 500" height="500px" width="500px" style="overflow:visible"><g transform="rotate(25,0,0)" stroke-linejoin="round" fill="#fff"><path stroke-linecap="butt" stroke-linejoin="round" stroke-width="6" stroke-opacity="1" stroke="rgb(68,68,68)" fill="rgb(255,255,255)" d="m35.382456-13.736681l-35.382457 67.759968l-46.800001-27.011628v-54.023253z" /><path stroke-linecap="butt" stroke-linejoin="round" stroke="none" fill="rgb(221,221,221)" d="m46.8-27.011593l-46.800001 81.03488l46.799996-27.011624z" /><path stroke-linecap="butt" stroke-linejoin="round" stroke="none" fill="rgb(242,242,242)" d="m46.8-27.011721l-46.799996 1.073404l-0.000005 79.961752c23.75812-22.023348 40.386352-40.286449 46.8-81.035156z" /><path stroke-linecap="butt" stroke-linejoin="round" stroke-width="6" stroke-opacity="1" stroke="rgb(68,68,68)" fill="none" d="m46.8-27.011593l-0.000005 54.023256l-46.799996 27.011624l0.000004-79.961605z" /><path stroke-linecap="butt" stroke-linejoin="round" stroke="none" fill="rgb(255,255,255)" d="m0-54.023437c-8.052264 18.527312-6.7329 36.450004 0 54.023436l46.8-27.011721z" /><path stroke-linecap="butt" stroke-linejoin="round" stroke="none" fill="rgb(255,255,255)" d="m0-54.023437l-46.800001 27.011716l46.8 27.01172v-54.023437z" /><path stroke-linecap="butt" stroke-linejoin="round" stroke-width="6" stroke-opacity="1" stroke="rgb(68,68,68)" fill="none" d="m-46.800001-27.011593l46.8-27.011624l46.8 27.011624l-46.799996 27.011628z" /></g></svg><svg version="1.1" y="-289" x="-315" viewBox="-250 -250 500 500" height="500px" width="500px" style="overflow:visible"><g transform="rotate(345,0,0)" stroke-linejoin="round" fill="#fff"><path stroke-linecap="butt" stroke-linejoin="round" stroke-width="6" stroke-opacity="1" stroke="rgb(68,68,68)" fill="rgb(255,255,255)" d="m44.22807-17.17085l-44.22807 84.69996l-58.5-33.764535v-67.529065z" /><path stroke-linecap="butt" stroke-linejoin="round" stroke="none" fill="rgb(221,221,221)" d="m58.5-33.76449l-58.5 101.2936l58.499995-33.76453z" /><path stroke-linecap="butt" stroke-linejoin="round" stroke="none" fill="rgb(242,242,242)" d="m58.5-33.76465l-58.499995 1.341755l-0.000005 99.95219c29.69765-27.529185 50.48294-50.35806 58.5-101.293945z" /><path stroke-linecap="butt" stroke-linejoin="round" stroke-width="6" stroke-opacity="1" stroke="rgb(68,68,68)" fill="none" d="m58.5-33.76449l-0.000005 67.52907l-58.499995 33.76453l0.000005-99.952005z" /><path stroke-linecap="butt" stroke-linejoin="round" stroke="none" fill="rgb(255,255,255)" d="m0-67.529295c-10.06533 23.15914-8.416125 45.562505 0 67.529295l58.5-33.76465z" /><path stroke-linecap="butt" stroke-linejoin="round" stroke="none" fill="rgb(255,255,255)" d="m0-67.529295l-58.5 33.764645l58.5 33.76465v-67.529295z" /><path stroke-linecap="butt" stroke-linejoin="round" stroke-width="6" stroke-opacity="1" stroke="rgb(68,68,68)" fill="none" d="m-58.5-33.76449l58.5-33.76453l58.5 33.76453l-58.499995 33.764535z" /></g></svg></svg>