<?xml version="1.0" encoding="UTF-8" standalone="no"?><svg xmlns:svg="http://www.w3.org/2000/svg" xmlns="http://www.w3.org/2000/svg" version="1.1" style="overflow:visible" viewBox="-250 -250 500 500" height="500px" width="500px"><rect fill-opacity="0" fill="rgb(0,0,0)" height="500" width="500" y="-250" x="-250" /><svg version="1.1" y="-250" x="-250" viewBox="-250 -250 500 500" height="500px" width="500px" style="overflow:visible"><g transform="rotate(0,0,0)" stroke-linejoin="round" fill="#fff"><path stroke-linecap="butt" stroke-linejoin="round" stroke-width="10" stroke-opacity="1" stroke="rgb(68,68,68)" fill="rgb(79,140,66)" d="m-23.706-192.6686c11.9134-2.93525 35.5019-2.93525 47.4152 0l5.28754 47.8916h-57.9904z" /><path stroke-linecap="butt" stroke-linejoin="round" stroke="none" fill="rgb(79,140,66)" d="m-3.989001-169.0276l-15.0472 166.386l15.0472 194.284c1.34412-0.58799 2.67807-1.23896 3.98914-2.01037c1.31065 0.77116 2.64545 1.42252 3.98913 2.01037l14.179-193.418l-14.179-167.222c-1.37393 0.7688-2.7171 1.57974-3.98913 2.47929c-1.27718-0.903181-2.60926-1.73897-3.98914-2.51037z" /><path stroke-linecap="butt" stroke-linejoin="round" stroke="none" fill="rgb(79,140,66)" d="m-99.525-153.9726c4.20144 0.05571 6.77695 0.717003 6.91867 0.753891l2.33924 10.4619l33.1263 148.153l-2.81237 176.934s-3.02524 1.016899-7.55755 1.45079l-51.3461-173.853l9.64631-156.015l8.54269-7.8626c0.37677-0.0053 0.78748-0.02799 1.14271-0.02334z" /><path stroke-linecap="butt" stroke-linejoin="round" stroke="none" fill="rgb(79,140,66)" d="m99.612-153.9925c-4.20144 0.05571-6.77695 0.717003-6.91867 0.753891l-35.4657 158.615l2.81237 176.934s3.02524 1.01689 7.55756 1.45078l51.3461-173.853l-9.64631-156.015l-8.54269-7.8626c-0.37678-0.0053-0.78748-0.02799-1.14272-0.02334z" /><path stroke-linecap="butt" stroke-linejoin="round" stroke="none" fill="rgb(127,191,113)" d="m-35.003-176.4118c-0.85987-0.0093-1.72216-0.0053-2.58411 0.01061c-22.9852 0.427111-46.4182 9.75582-55.0195 23.1815c-3.47139 14.6276-4.72608 39.5049-3.92682 68.8345c0.93411 34.2777 4.40239 74.9515 9.08205 114.324c4.67965 39.3729 10.5713 77.4646 16.325399 106.586c2.87702 14.5608 5.72466 26.8865 8.336679 35.9328c1.30566 4.52191 1.71601 7.18575 2.83603 9.87053c0.003 0.009 0.003 0.0289 0.005 0.0389c0.46925 0.31357 30.6487 20.3545 55.9596 9.27465v-360.665c-8.91893-4.98695-19.8436-7.26808-31.0145-7.38864z" /><path stroke-linecap="butt" stroke-linejoin="round" stroke="none" fill="rgb(127,191,113)" d="m37.588-176.401201c-12.066-0.224061-23.9904 2.027899-33.5986 7.40418v360.64c25.5172 11.1623 56.0505-9.33165 56.0505-9.33165c1.12002-2.68478 1.53038-5.34862 2.83604-9.87053c2.61202-9.04638 5.45965-21.372 8.33667-35.9328c5.75403-29.1216 11.6457-67.2131 16.325299-106.586c4.6796-39.373 8.14793-80.0467 9.08204-114.324c0.79927-29.3297-0.45542-54.207-3.92681-68.8345c-0.004 0.001-0.0831 0.01817-0.0831 0.01817c-8.60129-13.4256-32.0365-22.7547-55.0221-23.1815z" /><path stroke-linecap="butt" stroke-linejoin="round" stroke="none" fill="rgb(109,171,95)" d="m-100.671-153.9713c-9.69104 0.108237-26.3545 3.6283-40.042 23.7178c-23.127 33.9439 1.4119 103.094 15.2865 191.667c9.27935 59.2375 18.9326 108.462 37.5072 118.586c7.30383 3.98086 14.9583 4.28703 20.4002 3.75649c-0.96428-2.61-1.93997-5.63915-2.93733-9.09331c-2.71793-9.41316-5.59299-21.8978-8.49769-36.5987c-5.80937-29.4017-11.7179-67.6349-16.4189-107.187c-4.70098-39.5522-8.192551-80.4036-9.13658-115.045c-0.79069-29.0146 0.0284-53.4178 3.8411-69.7828c-0.001-0.008-0.001-0.0134-0.003-0.02069z" /><path stroke-linecap="butt" stroke-linejoin="round" stroke="none" fill="rgb(109,171,95)" d="m100.754-153.9659c3.81218 16.364899 4.63176 40.767 3.84112 69.7802c-0.94403 34.6411-4.43562 75.4924-9.1366 115.045c-4.70096 39.5522-10.6095 77.7854-16.418801 107.187c-2.90469 14.7008-5.77977 27.1855-8.4977 36.5986c-1.00009 3.46366-1.97824 6.50177-2.94511 9.11664c5.43703 0.52078 13.0524 0.20065 20.3223-3.76169c18.5746-10.1239 28.2306-59.3487 37.5099-118.586c13.8746-88.5726 38.4109-157.723 15.284-191.667c-13.6498-20.0339-30.2572-23.5853-39.9589-23.7126z" /><path stroke-linecap="butt" stroke-linejoin="round" stroke="none" fill="rgb(156,212,144)" d="m84.432-93.75c0 25.511-8.48093 46.1917-18.9427 46.1917s-18.9427-20.6807-18.9427-46.1917c0-25.511 8.48093-46.1917 18.9427-46.1917s18.9427 20.6807 18.9427 46.1917z" /><path stroke-linecap="butt" stroke-linejoin="round" stroke="none" fill="rgb(156,212,144)" d="m-44.251001-63.619c0 25.511-8.48094 46.1917-18.9427 46.1917c-10.4618 0-18.9427-20.6807-18.9427-46.1917s8.48094-46.1917 18.9427-46.1917c10.4618 0 18.9427 20.6807 18.9427 46.1917z" /><path stroke-linecap="butt" stroke-linejoin="round" stroke="none" fill="rgb(137,199,124)" d="m-115.817-86.830001c0 18.3716-5.05261 33.264699-11.2853 33.264699c-6.23272 0.00003-11.2853-14.893-11.2853-33.2647s5.05262-33.2647 11.2853-33.2647c6.23273-0.00003 11.2853 14.893 11.2853 33.264699z" /><path stroke-linecap="butt" stroke-linejoin="round" stroke="none" fill="rgb(137,199,124)" d="m136.403-57.845c-1.46258 18.3135-7.68487 32.7593-13.8979 32.2655s-10.064-15.7401-8.60149-34.0536c1.46258-18.3135 7.68487-32.759301 13.8979-32.265501s10.064 15.7401 8.60149 34.0536z" /><path stroke-linecap="butt" stroke-linejoin="round" stroke-width="10" stroke-opacity="1" stroke="rgb(68,68,68)" fill="none" d="m-37.587-176.401201c-22.9852 0.427111-46.4187 9.7562-55.0199 23.1819c0 0-27.4822-7.30637-48.1074 22.9656c-23.127 33.9439 1.41281 103.096 15.2874 191.669c9.27935 59.2375 18.9339 108.46 37.5085 118.584c13.3317 7.2663 27.8802 2.31317 27.8802 2.31317s33.8383 22.7354 60.0391 7.31933c26.2008 15.4162 60.0391-7.31933 60.0391-7.31933s14.5484 4.95313 27.8802-2.31317c18.5746-10.1239 28.2291-59.3463 37.5085-118.584c13.8746-88.5726 38.4118-157.725 15.2848-191.669c-20.6252-30.272-48.1048-22.9656-48.1048-22.9656c-13.7621-21.481-65.4945-32.4728-92.6079-13.2988c-10.1675-7.19023-23.7968-10.1393-37.5879-9.88309z" /></g></svg></svg>