<?xml version="1.0" encoding="UTF-8" standalone="no"?><svg xmlns:svg="http://www.w3.org/2000/svg" xmlns="http://www.w3.org/2000/svg" version="1.1" style="overflow:visible" viewBox="-250 -250 500 500" height="500px" width="500px"><rect fill-opacity="0" fill="rgb(0,0,0)" height="500" width="500" y="-250" x="-250" /><svg version="1.1" y="-250" x="-250" viewBox="-250 -250 500 500" height="500px" width="500px" style="overflow:visible"><g transform="rotate(0,0,0)" stroke-linejoin="round" fill="#fff"><path stroke-linecap="butt" stroke-linejoin="round" stroke="none" fill="rgb(194,142,75)" d="m95.142999-141.064l-188.122 272.829c22.7087 15.0907 49.3033 28.1073 82.1607 30.6697c124.341 9.69483 192.791-83.4312 185.26-168.813c-5.17932-58.7197-27.9969-107.828-79.3004-134.684z" /><path stroke-linecap="butt" stroke-linejoin="round" stroke="none" fill="rgb(194,142,75)" d="m-138.888-89.907001c-26.6127 23.0369-36.1167 55.3812-36.1167 91.0715c0 44.1988 14.4392 73.6778 41.9878 99.5876l54.3196-99.0998l-60.1913-91.5532z" /><path stroke-linecap="butt" stroke-linejoin="round" stroke="none" fill="rgb(201,149,81)" d="m-10.816001-163.1309c-72.1039 0-83.7828 39.8126-122.207 68.5078c-2.04339 1.52606-3.99379 3.10243-5.86523 4.72266c-36.8074 99.6056-0.2425 87.0523 5.87109 190.652c5.30427 4.98919 11.0879 9.8485 17.3555 14.6524c7.14066 5.47286 14.6758 11.0428 22.6836 16.363299c51.549 7.47856 120.767 10.8565 153.406-16.7852c16.6328-14.0835 65.8026-56.4424 70.0742-98.3457c7.95911-58.9066-4.054472-109.376-35.3652-157.689c-26.941-14.1025-61.7343-22.0703-105.959-22.0703l0.00586-0.007812z" /><path stroke-linecap="butt" stroke-linejoin="round" stroke="none" fill="rgb(194,142,75)" d="m-104.013 79.934c-0.26626-9.96917 12.1286-16.2453 20.7475-17.4321c7.67539-1.0568 16.5084 3.35438 21.8743 9.96856c3.9409 4.85824 7.62618 13.0561 5.15303 18.8374c-3.48458 8.144069-14.5092 10.399-22.4934 9.06695c-10.1019-1.68569-24.9702-8.81551-25.2807-20.4404z" /><path stroke-linecap="butt" stroke-linejoin="round" stroke="none" fill="rgb(175,128,68)" d="m-87.746001 71.791999c1.69498-4.50191 8.52847-4.35186 12.7012-2.83296c3.71592 1.3528 6.96647 5.41502 8.22368 9.63471c0.92338 3.09918 1.12076 7.62478-1.06837 9.61084c-3.08401 2.79828-8.55597 1.18347-11.9777-1.30632c-4.32982-3.15026-9.85523-9.85654-7.87871-15.1063z" /><path stroke-linecap="butt" stroke-linejoin="round" stroke="none" fill="rgb(194,142,75)" d="m54.591999 70.995999c-10.6961-6.5258-8.85261-23.8835-4.21962-33.784c4.12592-8.81661 14.8092-15.1208 25.4487-16.2641c7.8146-0.83932 18.9769 0.8711 23.3857 7.42677c6.21023 9.23562 1.0612 22.4026-5.79503 29.9139c-8.67513 9.50334-26.3464 20.3166-38.819 12.707z" /><path stroke-linecap="butt" stroke-linejoin="round" stroke="none" fill="rgb(175,128,68)" d="m58.963 56.636c-5.13631-3.18519-3.28773-11.5715-0.39969-16.345c2.57208-4.25082 8.37043-7.26841 13.8776-7.79073c4.04479-0.38363 9.67101 0.47485 11.586 3.65664c2.69828 4.48253-0.62426 10.834-4.52616 14.4454c-4.93704 4.56991-14.5482 9.74773-20.5378 6.03343z" /><path stroke-linecap="butt" stroke-linejoin="round" stroke="none" fill="rgb(194,142,75)" d="m95.461-55.994c-7.62275 6.44823-21.729-0.46278-29.0455-7.24948c-6.51552-6.04384-9.59952-16.5079-8.3867-25.3176c0.89118-6.47059 4.59139-14.8002 10.9587-16.245001c8.97004-2.03475 18.9067 6.18686 23.7772 13.9898c6.16203 9.87279 11.5849 27.3023 2.69611 34.8215z" /><path stroke-linecap="butt" stroke-linejoin="round" stroke="none" fill="rgb(175,128,68)" d="m83.894999-64.926c-4.04605 2.88213-10.7641-1.12523-14.118-4.79106c-2.98668-3.26466-4.09005-8.57879-3.12825-12.8958c0.70639-3.17069 2.88269-7.14729 6.10125-7.60054c4.53443-0.63882 9.13034 3.84646 11.2284 7.91502c2.65496 5.14805 4.6347 14.0114-0.0835 17.3724z" /><path stroke-linecap="butt" stroke-linejoin="round" stroke="none" fill="rgb(194,142,75)" d="m-110.235001-51.046c-6.80791-10.0055 3.3042-26.1581 12.4084-34.1351c8.107749-7.10345 21.1087-9.51256 31.5729-6.94401c7.68558 1.88646 17.2571 7.39532 18.1925 15.2582c1.31851 11.0776-9.84647 22.0365-19.8657 26.9334c-12.6777 6.19681-34.369 10.5547-42.308-1.1128z" /><path stroke-linecap="butt" stroke-linejoin="round" stroke="none" fill="rgb(175,128,68)" d="m-65.368-70.564c2.84069 5.31083-3.01632 12.7703-7.94287 16.2371c-4.38732 3.08714-10.9482 3.59286-15.991 1.76923c-3.70372-1.33935-8.149431-4.57087-8.19717-8.51131c-0.0676-5.55153 6.03624-10.3852 11.253-12.2795c6.60093-2.39719 17.5653-3.40843 20.878 2.78461z" /><path stroke-linecap="butt" stroke-linejoin="round" stroke-width="10" stroke-opacity="1" stroke="rgb(68,68,68)" fill="none" d="m174.442999-6.375c-7.89903-89.5552-56.8192-156.755-185.26-156.755c-72.1039 0-83.7843 39.8142-122.208 68.5094c-31.0966 23.2238-41.9743 57.5908-41.9743 95.7892c0 52.7073 20.5217 84.4848 59.3375 114.235c27.3929 20.9946 60.4009 43.5688 104.844 47.034c124.341 9.69483 192.791-83.4312 185.26-168.813z" /></g></svg></svg>