<?xml version="1.0" encoding="UTF-8" standalone="no"?><svg xmlns:svg="http://www.w3.org/2000/svg" xmlns="http://www.w3.org/2000/svg" version="1.1" style="overflow:visible" viewBox="-250 -250 500 500" height="500px" width="500px"><rect fill-opacity="0" fill="rgb(0,0,0)" height="500" width="500" y="-250" x="-250" /><svg version="1.1" y="-250" x="-250" viewBox="-250 -250 500 500" height="500px" width="500px" style="overflow:visible"><g transform="rotate(0,0,0)" stroke-linejoin="round" fill="#fff"><path stroke-linecap="butt" stroke-linejoin="round" stroke="none" fill="rgb(204,72,152)" d="m196.987-39.278c-95.6786 54.4847-213.45 65.5968-327.417 85.083c149.882 101.539 303.255-1.7556 327.417-85.083z" /><path stroke-linecap="butt" stroke-linejoin="round" stroke="none" fill="rgb(216,87,165)" d="m-18.129-87.959c-47.3423-0.46566-103.53 11.9517-178.023 53.8064l-0.847783 19.9043c21.8188 25.1088 44.1611 44.8688 66.5805 60.0572c98.1005 25.9586 253.264 13.7092 327.417-85.083l-8.34058-15.6588c-73.5459 4.3101-127.884-32.2502-206.786-33.026201z" /><path stroke-linecap="butt" stroke-linejoin="round" stroke="none" fill="rgb(68,68,68)" d="m48.011-49.757001s-2.01721 12.5197 0.67241 15.4088c2.68961 2.88908 3.36212 8.66713 3.36212 8.66713s4.034519-2.40761 6.72412-7.22259c2.68972-4.8151-10.7586-16.8528-10.7586-16.8528z" /><path stroke-linecap="butt" stroke-linejoin="round" stroke="none" fill="rgb(68,68,68)" d="m99.148-21.125s-5.81145 16.6517-4.07464 21.1904c1.73682 4.53823 0.61887 12.5777 0.61887 12.5777s4.67496-2.39863 8.77714-8.38163c4.102178-5.98289-5.3213-25.386-5.3213-25.386z" /><path stroke-linecap="butt" stroke-linejoin="round" stroke="none" fill="rgb(68,68,68)" d="m-84.273 10.617999s-5.6903 11.3262-3.9953 14.8942c1.69511 3.56778 0.59753 9.28005 0.59753 9.28005s4.57104-1.07549 8.58425-4.85304s-5.18654-19.3215-5.18654-19.3215z" /><path stroke-linecap="butt" stroke-linejoin="round" stroke="none" fill="rgb(68,68,68)" d="m22.488999-1.573001s-6.79462 14.1659-5.40867 18.5762c1.38605 4.40974-0.24877 11.5279-0.24877 11.5279s4.72075-1.40615 9.12575-6.16285c4.40512-4.75681-3.46842-23.9409-3.46842-23.9409z" /><path stroke-linecap="butt" stroke-linejoin="round" stroke="none" fill="rgb(68,68,68)" d="m-40.896-36.766s-4.33213 13.4286-2.2331 17.1982c2.09903 3.77001 1.67437 10.3088 1.67437 10.3088s4.41441-1.80684 7.96024-6.56468s-7.40151-20.9427-7.40151-20.9427z" /><path stroke-linecap="butt" stroke-linejoin="round" stroke="none" fill="rgb(68,68,68)" d="m-113.546-40.965s-6.42472 12.5582-4.95604 16.616399c1.46863 4.0587 0.003 10.4445 0.003 10.4445s4.64637-1.07365 8.90758-5.19975c4.26122-4.1261-3.95467-21.8616-3.95467-21.8616z" /><path stroke-linecap="butt" stroke-linejoin="round" stroke-width="15" stroke-opacity="1" stroke="rgb(68,68,68)" fill="none" d="m188.646-54.933c-117.673 6.89607-186.16-90.8305-384.797 20.7791l-0.848667 19.9032c167.675 192.965 366.222 70.7672 394-25.0236z" /></g></svg></svg>