<?xml version="1.0" encoding="UTF-8" standalone="no"?><svg xmlns:svg="http://www.w3.org/2000/svg" xmlns="http://www.w3.org/2000/svg" version="1.1" style="overflow:visible" viewBox="-250 -250 500 500" height="500px" width="500px"><rect fill-opacity="0" fill="rgb(0,0,0)" height="500" width="500" y="-250" x="-250" /><svg version="1.1" y="-275" x="-345" viewBox="-250 -250 500 500" height="500px" width="500px" style="overflow:visible"><g transform="rotate(335,0,0)" stroke-linejoin="round" fill="#fff"><path stroke-linecap="butt" stroke-linejoin="round" stroke="none" fill="rgb(136,175,94)" d="m50.112719-127.2579l-83.558916 258.34704c10.207176 2.752285 21.280896 3.8788 33.005448 3.038187c62.683488-4.494294 94.22196-55.05948 99.512279-136.00188c4.771745-73.004064-13.730472-111.7158-48.959148-125.38344z" /><path stroke-linecap="butt" stroke-linejoin="round" stroke="none" fill="rgb(174,214,130)" d="m17.694599-133.051297c-7.976985-0.124152-16.447536 0.497778-25.374216 1.809024c-59.001181 8.6667-59.54508 53.864831-70.562436 98.1372c2.115153 26.434044 2.55318 35.301336-10.855992 31.547039c-28.001568 57.771167 1.631851 118.08132 55.651176 132.64692c68.992055-11.915316 112.753199-49.049196 108.7716-162.42156l-25.2126-95.92548c-9.60834-3.727685-20.45148-5.607152-32.417364-5.793338z" /><path stroke-linecap="butt" stroke-linejoin="round" stroke="none" fill="rgb(136,175,94)" d="m-78.241801-33.105241c-2.674779 10.748304-5.959061 21.444024-10.855992 31.547039c14.06496 42.886368 54.989844 61.858187 91.05936 58.357824c56.41608-5.474952 50.893499-72.521652 13.381115-68.263104c-42.338184 4.806387-78.491532 24.311363-93.5844-21.64176z" /><path stroke-linecap="butt" stroke-linejoin="round" stroke="none" fill="rgb(222,239,203)" d="m-24.452401-115.00524c-18.099564 7.97674-30.598765 33.04812-32.17074 45.465503c-2.828667 22.34358 12.642335 22.544928 19.318824 7.426918c4.54167-10.28412 9.630096-30.330888 20.464584-40.971924c8.899884-8.740956 0.566361-15.525132-7.612626-11.920524z" /><path stroke-linecap="butt" stroke-linejoin="round" stroke-width="10" stroke-opacity="1" stroke="rgb(68,68,68)" fill="none" d="m99.070439-1.8732c-5.290623 80.942315-36.828792 131.50704-99.51228 136.00104c-73.77426 5.289479-121.94868-66.999492-88.65612-135.68688c25.067279-51.717288 8.093744-118.91208 81.419099-129.6834c71.414028-10.490004 113.69064 23.179631 106.74972 129.368399z" /><path stroke-linecap="butt" stroke-linejoin="round" stroke-width="10" stroke-opacity="1" stroke="rgb(68,68,68)" fill="rgb(136,175,94)" d="m-7.67928-131.241936c54.523391-0.773454 75.392016 56.634984 83.004179 99.91044c10.179371-55.569528-14.258412-118.21068-83.00418-99.91044z" /></g></svg><svg version="1.1" y="-223" x="-174" viewBox="-250 -250 500 500" height="500px" width="500px" style="overflow:visible"><g transform="rotate(15,0,0)" stroke-linejoin="round" fill="#fff"><path stroke-linecap="butt" stroke-linejoin="round" stroke="none" fill="rgb(136,175,94)" d="m59.658-151.4975l-99.4749 307.556c12.1514 3.27653 25.3344 4.61762 39.2922 3.61689c74.6232-5.35035 112.169-65.547 118.467-161.907c5.68065-86.9096-16.3458-132.995-58.2847-149.266z" /><path stroke-linecap="butt" stroke-linejoin="round" stroke="none" fill="rgb(174,214,130)" d="m21.064999-158.394401c-9.49641-0.147799-19.5804 0.592594-30.2074 2.1536c-70.2395 10.3175-70.887 64.124798-84.0029 116.83c2.51804 31.4691 3.0395 42.0254-12.9238 37.556c-33.3352 68.7752 1.94268 140.573 66.2514 157.913c82.1334-14.1849 134.23-58.3919 129.49-193.359l-30.015-114.197c-11.4385-4.43772-24.347-6.67518-38.5921-6.89683z" /><path stroke-linecap="butt" stroke-linejoin="round" stroke="none" fill="rgb(136,175,94)" d="m-93.145001-39.411c-3.18426 12.7956-7.09412 25.5286-12.9238 37.556c16.744 51.0552 65.4641 73.6407 108.404 69.4736c67.162-6.5178 60.5875-86.3353 15.9299-81.2656c-50.4026 5.72189-93.4423 28.9421-111.41-25.764z" /><path stroke-linecap="butt" stroke-linejoin="round" stroke="none" fill="rgb(222,239,203)" d="m-29.110001-136.911c-21.5471 9.49612-36.4271 39.343-38.2985 54.1256c-3.36746 26.5995 15.0504 26.8392 22.9986 8.84157c5.40675-12.243 11.4644-36.1082 24.3626-48.7761c10.5951-10.4059 0.67424-18.4823-9.06265-14.1911z" /><path stroke-linecap="butt" stroke-linejoin="round" stroke-width="10" stroke-opacity="1" stroke="rgb(68,68,68)" fill="none" d="m117.940999-2.23c-6.29836 96.3599-43.8438 156.556-118.467 161.906c-87.8265 6.297-145.177-79.7613-105.543-161.532c29.842-61.5682 9.63541-141.562 96.9275-154.385c85.0167-12.4881 135.346 27.5948 127.083 154.01z" /><path stroke-linecap="butt" stroke-linejoin="round" stroke-width="10" stroke-opacity="1" stroke="rgb(68,68,68)" fill="rgb(136,175,94)" d="m-9.142-156.2404c64.9088-0.920778 89.7524 67.4226 98.8145 118.941c12.1183-66.1542-16.9743-140.727-98.8145-118.941z" /></g></svg></svg>