<?xml version="1.0" encoding="UTF-8" standalone="no"?><svg xmlns:svg="http://www.w3.org/2000/svg" xmlns="http://www.w3.org/2000/svg" version="1.1" style="overflow:visible" viewBox="-250 -250 500 500" height="500px" width="500px"><rect fill-opacity="0" fill="rgb(0,0,0)" height="500" width="500" y="-250" x="-250" /><svg version="1.1" y="-250" x="-250" viewBox="-250 -250 500 500" height="500px" width="500px" style="overflow:visible"><g transform="rotate(0,0,0)" stroke-linejoin="round" fill="#fff"><path stroke-linecap="butt" stroke-linejoin="round" stroke="none" fill="rgb(87,190,43)" d="m-177-77.882c12.2809 89.2171 87.7899 155.664 177.007 155.764c89.2118-0.10691 164.713-66.552002 176.993-155.764h-15.9946c-97.4264 126.665-256.942 82.1679-322.076 0z" /><path stroke-linecap="butt" stroke-linejoin="round" stroke="none" fill="rgb(255,255,255)" d="m-161.0705-77.882c12.1572 80.3476 80.5714 139.715 161.078 139.778c80.4762-0.10233 148.846-59.4606 160.998-139.778h-20.2839c-64.125601 96.9594-227.214 76.9092-281.553 0z" /><path stroke-linecap="butt" stroke-linejoin="round" stroke="none" fill="rgb(255,75,0)" d="m-140.832-77.882a142.994 144.368 0 0 0 140.839 119.505a142.994 144.368 0 0 0 140.714-119.505h-281.553z" /><path stroke-linecap="butt" stroke-linejoin="round" stroke="none" fill="rgb(68,68,68)" d="m7.81 10.697999c0 5.81131-3.49666 10.5223-7.81004 10.5223c-4.31337 0-7.81004-4.71101-7.81004-10.5223c0-5.81129 3.49669-15.3052 7.81004-15.3052c4.31335 0.00002 7.81004 9.49388 7.81004 15.3052z" /><path stroke-linecap="butt" stroke-linejoin="round" stroke="none" fill="rgb(68,68,68)" d="m-67.055002-11.809c-3.10562 4.89011-8.56558 6.94437-12.1952 4.58828c-3.6296-2.35606-4.0544-8.230271-0.94879-13.1204c3.1056-4.89011 11.1216-10.969 14.7512-8.61297c3.6296 2.3561 1.4984 12.255-1.60721 17.1451z" /><path stroke-linecap="butt" stroke-linejoin="round" stroke="none" fill="rgb(68,68,68)" d="m67.055-11.809c3.10561 4.89011 8.56559 6.94437 12.1952 4.58828c3.6296-2.35606 4.0544-8.230271 0.94879-13.1204c-3.10562-4.89011-11.1216-10.969-14.7512-8.61297c-3.62961 2.3561-1.4984 12.255 1.6072 17.1451z" /><path stroke-linecap="butt" stroke-linejoin="round" stroke="none" fill="rgb(68,68,68)" d="m-28.624-4.542001c-2.35174 5.30268-7.44879 8.15503-11.3846 6.37089c-3.93583-1.78415-5.22-7.52917-2.86828-12.8318c2.35174-5.30267 9.38436-12.5192 13.3202-10.7351c3.93581 1.78416 3.28447 11.8934 0.93274 17.1961z" /><path stroke-linecap="butt" stroke-linejoin="round" stroke="none" fill="rgb(68,68,68)" d="m28.624-4.542001c2.35173 5.30268 7.4488 8.15503 11.3846 6.37089c3.93583-1.78415 5.22-7.52917 2.86828-12.8318c-2.35172-5.30267-9.38434-12.5192-13.3202-10.7351c-3.93582 1.78416-3.28447 11.8934-0.93275 17.1961z" /><path stroke-linecap="butt" stroke-linejoin="round" stroke="none" fill="rgb(68,68,68)" d="m-92.422-41.969c-5.24158 2.38527-10.926 1.09528-12.6964-2.88125c-1.77043-3.97654 1.04349-9.13381 6.28508-11.5191c5.24156-2.38526 15.2399-3.05839 17.0103 0.91812c1.77042 3.97653-5.35749 11.0969-10.599 13.4822z" /><path stroke-linecap="butt" stroke-linejoin="round" stroke="none" fill="rgb(68,68,68)" d="m92.422-41.969c5.24159 2.38527 10.926 1.09528 12.6964-2.88125c1.77043-3.97654-1.043501-9.13381-6.28509-11.5191c-5.24157-2.38526-15.2399-3.05839-17.0103 0.91812c-1.77042 3.97653 5.35749 11.0969 10.599 13.4822z" /><path stroke-linecap="butt" stroke-linejoin="round" stroke-width="8" stroke-opacity="1" stroke="rgb(68,68,68)" fill="none" d="m-177-77.882a178.908 180.627 0 0 0 177.007 155.764a178.908 180.627 0 0 0 176.993-155.764z" /></g></svg></svg>