<?xml version="1.0" encoding="UTF-8" standalone="no"?><svg xmlns:svg="http://www.w3.org/2000/svg" xmlns="http://www.w3.org/2000/svg" version="1.1" style="overflow:visible" viewBox="-250 -250 500 500" height="500px" width="500px"><rect fill-opacity="0" fill="rgb(0,0,0)" height="500" width="500" y="-250" x="-250" /><svg version="1.1" y="-257" x="-361" viewBox="-250 -250 500 500" height="500px" width="500px" style="overflow:visible"><g transform="rotate(342,0,0)" stroke-linejoin="round" fill="#fff"><path stroke-linecap="butt" stroke-linejoin="round" stroke-width="8" stroke-opacity="1" stroke="rgb(68,68,68)" fill="rgb(92,144,81)" d="m27.254-64.657001c36.7858 0.42589 49.9393-6.775 75.4821-59.8077c-5.25078 46.4153-10.7077 80.5369-69.6836 72.5635z" /><path stroke-linecap="butt" stroke-linejoin="round" stroke-width="8" stroke-opacity="1" stroke="rgb(68,68,68)" fill="rgb(92,144,81)" d="m0.474999-68.393c-53.341 1.66199-62.2067-27.4162-63.4596-71.9908c-12.2124 38.7659-13.7271 80.6493 44.7826 89.7198z" /><path stroke-linecap="butt" stroke-linejoin="round" stroke-width="8" stroke-opacity="1" stroke="rgb(68,68,68)" fill="rgb(92,144,81)" d="m16.379-136.013c-10.8052 27.2325-16.1818 55.9604-16.7391 86.0158l19.9096 2.21908c-0.51185-30.6526 4.55783-55.762 11.0662-83.5918z" /><path stroke-linecap="butt" stroke-linejoin="round" stroke-width="8" stroke-opacity="1" stroke="rgb(68,68,68)" fill="rgb(92,144,81)" d="m9.028999-66.484002c-29.0822-18.3947-34.5948-46.3331-34.402-95.5177c-16.188301 47.5441-10.5266 75.2458 11.3634 110.659l50.1202 1.06591c28.5147-32.976 20.1742-63.2653 30.751-103.601c-25.5611 29.2652-12.7813 71.5881-57.8325 87.3935z" /><path stroke-linecap="butt" stroke-linejoin="round" stroke="none" fill="rgb(255,70,49)" d="m116.339 53.764999c-5.78531 68.2091-57.7188 109.806-118.568 108.19c-62.442-1.65891-113.483-46.5287-114.489-109.048c-0.8856-55.0478 27.5118-95.9774 72.5603-110.795c13.5688-4.46327 26.0454-3.23323 42.2827-2.45346c16.7464 0.80423 29.2686 1.08587 44.3937 4.63146c45.1244 10.578 78.2594 57.1329 73.8198 109.475z" /><path stroke-linecap="butt" stroke-linejoin="round" stroke="none" fill="rgb(255,255,255)" d="m2.875-21.395001c3.57704-14.4852 24.1382-22.3774 43.2027-17.66c19.0644 4.71736 34.9574 23.0616 31.3803 37.5468c-3.57703 14.4852-26.2731 17.7452-45.3376 13.0278c-19.0644-4.71739-32.8225-18.4293-29.2454-32.9145z" /><path stroke-linecap="butt" stroke-linejoin="round" stroke-width="8" stroke-opacity="1" stroke="rgb(68,68,68)" fill="none" d="m116.339 53.764999c-5.78531 68.2091-57.7188 109.806-118.568 108.19c-62.442-1.65891-113.483-46.5287-114.489-109.048c-0.8856-55.0478 27.5118-95.9774 72.5603-110.795c13.5688-4.46327 26.0454-3.23323 42.2827-2.45346c16.7464 0.80423 29.2686 1.08587 44.3937 4.63146c45.1244 10.578 78.2594 57.1329 73.8198 109.475z" /></g></svg><svg version="1.1" y="-189" x="-150" viewBox="-250 -250 500 500" height="500px" width="500px" style="overflow:visible"><g transform="rotate(114,0,0)" stroke-linejoin="round" fill="#fff"><path stroke-linecap="butt" stroke-linejoin="round" stroke="none" fill="rgb(255,70,49)" d="m122.320099 10.911699a125.399999 125.399999 0 0 1-125.4 125.399999a125.399999 125.399999 0 0 1-125.4-125.4a125.399999 125.399999 0 0 1 125.399999-125.4a125.399999 125.399999 0 0 1 125.399999 125.399999z" /><path stroke-linecap="butt" stroke-linejoin="round" stroke="none" fill="rgb(255,70,49)" d="m82.56925-2.117551c11.15927 6.282967 15.70331 26.45826 6.802418 42.267305c-8.900873 15.809045-25.16284 23.531405-36.32211 17.248389c-11.159271-6.282977-7.673483-20.20061 1.2274-36.009655c8.900872-15.80895 17.13306-29.789055 28.29233-23.50604z" /><path stroke-linecap="butt" stroke-linejoin="round" stroke="none" fill="rgb(255,70,49)" d="m-2.575451 69.2512c-5.366712 8.954358-21.907475 12.21073-34.592825 4.60788c-12.68535-7.602842-18.618195-21.025115-13.25155-29.979435c5.366711-8.954358 16.6307-5.805925 29.315955 1.796924c12.68535 7.60284 23.895065 14.620309 18.528419 23.57463z" /><path stroke-linecap="butt" stroke-linejoin="round" stroke="none" fill="rgb(255,255,255)" d="m-91.24845 16.947049c-8.472252-2.985356-14.8181-18.20105-11.482935-32.365835c3.335079-14.16469 12.906794-23.22731 21.379085-20.24203c8.472252 2.985356 8.436247 14.672844 5.101158 28.837535s-6.525028 26.755705-14.99727 23.770329z" /><path stroke-linecap="butt" stroke-linejoin="round" stroke="none" fill="rgb(255,70,49)" d="m-46.22795-77.6264c0.129978-8.981262 9.74833-19.792015 20.949685-21.08278c11.20126-1.290803 20.176195 4.943543 20.046234 13.924814c-0.12997 8.981262-8.711947 12.624265-19.913141 13.915029c-11.20126 1.290793-21.21274 2.224263-21.08278-6.756999z" /><path stroke-linecap="butt" stroke-linejoin="round" stroke="none" fill="rgb(255,70,49)" d="m45.5468-80.468801c7.829026-4.402984 22.009884-1.523686 28.75707 7.51013c6.747232 9.033721 5.870259 19.92625-1.958749 24.32931c-7.829026 4.402993-15.29272-1.184033-22.039905-10.217725c-6.747223-9.033731-12.5875-17.21875-4.758437-21.621715z" /><path stroke-linecap="butt" stroke-linejoin="round" stroke-width="8" stroke-opacity="1" stroke="rgb(68,68,68)" fill="none" d="m122.320099 10.911699a125.399999 125.399999 0 0 1-125.4 125.399999a125.399999 125.399999 0 0 1-125.4-125.4a125.399999 125.399999 0 0 1 125.399999-125.4a125.399999 125.399999 0 0 1 125.399999 125.399999z" /><path stroke-linecap="butt" stroke-linejoin="round" stroke-width="8" stroke-opacity="1" stroke="rgb(68,68,68)" fill="rgb(92,144,81)" d="m2.685649-18.763451c-25.825275-22.730175-37.044015-63.138141-113.90215-54.19959c50.21282 16.21327 58.201464 60.9539 113.90215 54.199589z" /><path stroke-linecap="butt" stroke-linejoin="round" stroke-width="8" stroke-opacity="1" stroke="rgb(68,68,68)" fill="rgb(92,144,81)" d="m29.252399-136.31265c-14.3165 56.646409-48.390625 66.600225-26.278045 127.7408c20.838344-41.06128 45.611304-71.151105 26.278045-127.7408z" /><path stroke-linecap="butt" stroke-linejoin="round" stroke-width="8" stroke-opacity="1" stroke="rgb(68,68,68)" fill="rgb(92,144,81)" d="m128.480849-44.584451c-57.04503 15.789949-79.745565-17.476485-127.998251 33.72975c36.896955-3.891704 82.01996 6.192679 127.99825-33.72975z" /><path stroke-linecap="butt" stroke-linejoin="round" stroke-width="8" stroke-opacity="1" stroke="rgb(68,68,68)" fill="rgb(92,144,81)" d="m2.311349-26.584801c-28.336125 11.880889-76.19627 18.087335-93.726715 88.440154c37.794799-47.15781 80.913779-24.010015 93.726715-88.440155z" /><path stroke-linecap="butt" stroke-linejoin="round" stroke-width="8" stroke-opacity="1" stroke="rgb(68,68,68)" fill="rgb(92,144,81)" d="m47.43065 96.71475c-23.641795-67.543575-10.93108-97.02825-47.840765-118.15435c-7.093004 37.017224-3.69987 76.836759 47.840765 118.15435z" /><path stroke-linecap="butt" stroke-linejoin="round" stroke-width="8" stroke-opacity="1" stroke="rgb(68,68,68)" fill="rgb(92,144,81)" d="m20.00415-18.837551a19.95 19.95 0 0 1-19.95 19.95a19.95 19.95 0 0 1-19.95-19.95a19.95 19.95 0 0 1 19.95-19.95a19.95 19.95 0 0 1 19.95 19.95z" /></g></svg></svg>