<?xml version="1.0" encoding="UTF-8" standalone="no"?><svg xmlns:svg="http://www.w3.org/2000/svg" xmlns="http://www.w3.org/2000/svg" version="1.1" style="overflow:visible" viewBox="-250 -250 500 500" height="500px" width="500px"><rect fill-opacity="0" fill="rgb(0,0,0)" height="500" width="500" y="-250" x="-250" /><svg version="1.1" y="-250" x="-250" viewBox="-250 -250 500 500" height="500px" width="500px" style="overflow:visible"><g transform="rotate(0,0,0)" stroke-linejoin="round" fill="#fff"><path stroke-linecap="butt" stroke-linejoin="round" stroke-width="8" stroke-opacity="1" stroke="rgb(68,68,68)" fill="rgb(48,163,58)" d="m-7.465001 168.779l0.27253 23.1147c-19.6604 3.01585-26.7505 27.8008-17.404 30.2552c9.7208 2.55277 7.24353-15.6905 15.189-12.9966c6.02037 2.04118 0.7222 16.3479 9.84889 16.3479c9.1267 0 3.82853-14.3068 9.84889-16.3479c7.94553-2.69391 5.46825 15.5494 15.1891 12.9966c9.34648-2.45446 2.2564-27.2394-17.404-30.2552l0.27254-23.1147h-7.9065z" /><path stroke-linecap="butt" stroke-linejoin="round" stroke="none" fill="rgb(48,163,58)" d="m0-226.5c-11.5787 0-10.6515 12.8961-14.8463 20.5557c-4.81741 8.79635-21.6486 0.972874-25.02 13.6861c-3.57989 13.4992 13.899 12.9511 11.0843 26.119c-3.14686 14.7217-31.7235 5.57576-32.7853 23.6059c-0.9755 16.564699 24.1864 9.93171 21.3696 24.9089c-2.69498 14.3296-31.0857 5.22713-31.2332 24.0469c-0.15899 20.2812 25.5729 11.6235 23.7912 24.8973c-1.80447 13.4436-32.7042 7.16542-32.321 25.0763c0.40077 18.7335 29.3994 9.78087 29.3366 25.9466c-0.0691 17.7825-25.6025 9.20122-25.7518 25.5106c-0.13446 14.6871 29.8898 10.0196 29.458 24.8592c-0.26998 9.2796-20.8386 10.8016-20.9135 23.218c-0.0836 13.8615 32.1697 11.6092 31.7172 25.5123c-0.37834 11.6252-19.2931 8.01274-18.5739 25.136c0.6213 14.7934 32.7853 14.5654 34.1635 26.4423c1.29669 11.1748-9.4244 11.0108-8.89567 22.472c0.46104 9.99347 16.835 20.2838 29.4203 20.2838s28.9593-10.2904 29.4203-20.2838c0.52875-11.4612-10.1923-11.2973-8.89567-22.472c1.37817-11.8769 33.5422-11.6489 34.1635-26.4423c0.71918-17.1232-18.1956-13.5108-18.5739-25.136c-0.45248-13.9031 31.8008-11.6508 31.7172-25.5123c-0.0748-12.4164-20.6435-13.9384-20.9135-23.218c-0.43176-14.8395 29.5925-10.1721 29.458-24.8592c-0.14932-16.3094-25.6827-7.72812-25.7518-25.5106c-0.0628-16.165701 28.9359-7.21306 29.3366-25.9466c0.38315-17.9109-30.5165-11.6327-32.321-25.0763c-1.78166-13.2738 23.9502-4.61607 23.7912-24.8973c-0.14754-18.8197-28.5383-9.71728-31.2332-24.0469c-2.81676-14.9772 22.3451-8.34422 21.3696-24.9089c-1.0618-18.0302-29.6384-8.8842-32.7853-23.6059c-2.81473-13.1679 14.6642-12.6198 11.0843-26.119c-3.37144-12.7133-20.2026-4.88978-25.02-13.6861c-4.19485-7.65957-3.26767-20.5557-14.8463-20.5557z" /><path stroke-linecap="butt" stroke-linejoin="round" stroke="none" fill="rgb(40,119,46)" d="m0.34-176.6618c-3.41442 0.05727-3.31092 6.17837-3.25835 9.92584l-3.36007 313.19c-0.053 3.78756 2.97117 6.88671 6.72014 6.88671c3.74899 0 6.77316-3.09915 6.72015-6.88671l-3.36006-313.19c0.0537-3.82798-0.0473-9.98317-3.46181-9.92584z" /><path stroke-linecap="butt" stroke-linejoin="round" stroke="none" fill="rgb(40,119,46)" d="m15.043999 99.521a5 5 0 0 0 5 5a5 5 0 0 0 5-5a5 5 0 0 0-5-5a5 5 0 0 0-5 5zm10.5492-46.944a5 5 0 0 0 5 5a5 5 0 0 0 5-5a5 5 0 0 0-5-5a5 5 0 0 0-5 5zm-8.96683-41.142a5 5 0 0 0 5 5a5 5 0 0 0 5-5a5 5 0 0 0-5-5a5 5 0 0 0-5 5zm13.714-39.0321a5 5 0 0 0 5 5a5 5 0 0 0 5-5a5 5 0 0 0-5-5a5 5 0 0 0-5 5zm-11.6042-29.5378a5 5 0 0 0 5 5a5 5 0 0 0 5-5a5 5 0 0 0-5-5a5 5 0 0 0-5 5zm11.0767-39.5596a5 5 0 0 0 5 5a5 5 0 0 0 5-5a5 5 0 0 0-5-5a5 5 0 0 0-5 5zm-15.2964-35.8674a5 5 0 0 0 5 5a5 5 0 0 0 5-5a5 5 0 0 0-5-5a5 5 0 0 0-5 5zm-29.5596 232.083a5 5 0 0 1-5 5a5 5 0 0 1-5-5a5 5 0 0 1 5-5a5 5 0 0 1 5 5zm-10.5492-46.944a5 5 0 0 1-5 5a5 5 0 0 1-5-5a5 5 0 0 1 5-5a5 5 0 0 1 5 5zm8.96683-41.142a5 5 0 0 1-5 5a5 5 0 0 1-5-5a5 5 0 0 1 5-5a5 5 0 0 1 5 5zm-13.714-39.0321a5 5 0 0 1-5 5a5 5 0 0 1-5-5a5 5 0 0 1 5-5a5 5 0 0 1 5 5zm11.6042-29.5378a5 5 0 0 1-5 5a5 5 0 0 1-5-5a5 5 0 0 1 5-5a5 5 0 0 1 5 5zm-11.0767-39.5596a5 5 0 0 1-5 5a5 5 0 0 1-5-5a5 5 0 0 1 5-5a5 5 0 0 1 5 5zm15.2964-35.8674a5 5 0 0 1-5 5a5 5 0 0 1-5-5a5 5 0 0 1 5-5a5 5 0 0 1 5 5z" /><path stroke-linecap="butt" stroke-linejoin="round" stroke-width="8" stroke-opacity="1" stroke="rgb(68,68,68)" fill="none" d="m0-226.5c-11.5787 0-10.6515 12.8961-14.8463 20.5557c-4.81741 8.79635-21.6486 0.972874-25.02 13.6861c-3.57989 13.4992 13.899 12.9511 11.0843 26.119c-3.14686 14.7217-31.7235 5.57576-32.7853 23.6059c-0.9755 16.564699 24.1864 9.93171 21.3696 24.9089c-2.69498 14.3296-31.0857 5.22713-31.2332 24.0469c-0.15899 20.2812 25.5729 11.6235 23.7912 24.8973c-1.80447 13.4436-32.7042 7.16542-32.321 25.0763c0.40077 18.7335 29.3994 9.78087 29.3366 25.9466c-0.0691 17.7825-25.6025 9.20122-25.7518 25.5106c-0.13446 14.6871 29.8898 10.0196 29.458 24.8592c-0.26998 9.2796-20.8386 10.8016-20.9135 23.218c-0.0836 13.8615 32.1697 11.6092 31.7172 25.5123c-0.37834 11.6252-19.2931 8.01274-18.5739 25.136c0.6213 14.7934 32.7853 14.5654 34.1635 26.4423c1.29669 11.1748-9.4244 11.0108-8.89567 22.472c0.46104 9.99347 16.835 20.2838 29.4203 20.2838s28.9593-10.2904 29.4203-20.2838c0.52875-11.4612-10.1923-11.2973-8.89567-22.472c1.37817-11.8769 33.5422-11.6489 34.1635-26.4423c0.71918-17.1232-18.1956-13.5108-18.5739-25.136c-0.45248-13.9031 31.8008-11.6508 31.7172-25.5123c-0.0748-12.4164-20.6435-13.9384-20.9135-23.218c-0.43176-14.8395 29.5925-10.1721 29.458-24.8592c-0.14932-16.3094-25.6827-7.72812-25.7518-25.5106c-0.0628-16.165701 28.9359-7.21306 29.3366-25.9466c0.38315-17.9109-30.5165-11.6327-32.321-25.0763c-1.78166-13.2738 23.9502-4.61607 23.7912-24.8973c-0.14754-18.8197-28.5383-9.71728-31.2332-24.0469c-2.81676-14.9772 22.3451-8.34422 21.3696-24.9089c-1.0618-18.0302-29.6384-8.8842-32.7853-23.6059c-2.81473-13.1679 14.6642-12.6198 11.0843-26.119c-3.37144-12.7133-20.2026-4.88978-25.02-13.6861c-4.19485-7.65957-3.26767-20.5557-14.8463-20.5557z" /></g></svg></svg>