<!--?xml version="1.0" encoding="utf-8"?-->
<!-- Generator: Adobe Illustrator 22.1.0, SVG Export Plug-In . SVG Version: 6.00 Build 0)  -->
<svg version="1.1" id="_x35_" xmlns="http://www.w3.org/2000/svg" xmlns:xlink="http://www.w3.org/1999/xlink" x="0px" y="0px" viewBox="0 0 800 763.914" style="enable-background:new 0 0 800 763.914;" xml:space="preserve">
<style type="text/css">
	.st0{fill:#E51C12;}
</style>
<g>
	<path class="st0" d="M796.978,312.248l-13.219,3.734l13.033-4.33c-2.2-6.65-7.294-12.388-14.319-15.19l-16.839-6.737l9.01-14.345
		c2.653-4.044,3.861-8.741,3.834-13.18c0-2.748-0.456-5.12-1.018-7.159c-1.636-5.007-4.397-9.055-8.178-12.112
		c-23.489-18.67-77.518-50.778-166.404-50.724c-14.774,0-30.461,0.858-47.138,2.815C531.069,73.743,466.301,20.907,442.679,5.871
		c-3.995-2.6-8.714-3.961-13.352-3.961h-0.028v0.005c-0.026,0-0.026-0.005-0.026-0.005c-7.053-0.027-14.184,3.09-19.011,9.002
		l-11.557,13.863L387.872,11.73c-4.8-5.825-11.906-8.942-19.01-8.909c-4.667,0-9.438,1.327-13.596,4.103
		c-29.12,19.131-88.403,72.51-111.49,188.19c-16.087-1.824-31.277-2.655-45.569-2.655c-95.067-0.053-150.423,36.272-169.287,51.745
		c-3.807,3.116-6.434,7.185-7.855,11.462c-0.779,2.4-1.234,4.98-1.234,7.661c0,4.446,1.234,9.171,3.902,13.273l9.613,15.223
		l-15.752,6.308c-7.013,2.769-12.161,8.513-14.372,15.25C2.43,315.868,2,318.389,2,321.042c0,2.099,0.268,4.418,0.965,6.764
		c9.171,33.456,41.641,106.35,144.498,164.032c-25.258,55.456-32.994,103.252-32.968,140.562c0,38.384,8.112,65.573,13.26,78.927
		c1.77,4.558,4.826,8.378,8.553,11.059c4.13,3.004,9.197,4.706,14.479,4.679c2.119,0,4.022-0.282,5.658-0.63l17.965-4.584
		l1.14,16.946c0.484,7.535,4.33,14.158,10.096,18.367c3.914,2.83,8.499,4.465,13.406,4.692c2.387,0.095,4.827,0.149,7.361,0.149
		c0.2,0,0.415,0,0.63,0c37.914,0,112.187-12.496,192.815-86.863c83.351,76.404,160.278,86.889,194.223,86.768
		c3.272,0,6.06-0.107,8.233-0.187c5.04-0.322,9.599-1.958,13.326-4.613c5.818-4.276,9.706-10.899,10.162-18.5l1.207-18.06
		l16.463,4.157c2.064,0.549,4.129,0.764,6.113,0.764c5.336,0,10.27-1.716,14.291-4.518c4.049-3.003,6.999-6.797,8.796-11.462
		c5.898-15.874,12.924-42.245,12.897-77.518c0.027-37.553-7.99-85.093-33.329-140.282
		c107.736-60.92,137.902-138.913,144.954-166.002c0.589-2.212,0.831-4.33,0.805-6.314
		C797.998,316.633,797.542,314.253,796.978,312.248z M627.839,473.713l-11.825,6.246l5.925,12
		c28.075,56.716,36.146,103.962,36.172,140.013c0,29.79-5.576,52.045-10.322,65.532l-45.986-11.69l-3.217,48.559
		c-1.367,0.054-2.896,0.107-4.505,0.107c-29.762-0.149-102.91-8.783-184.677-88.082l-9.573-9.305l-9.571,9.331
		c-79.771,77.719-150.451,87.989-183.847,88.136c-1.274,0-2.48-0.026-3.62-0.04l-3.137-47.434l-47.138,12.026
		c-4.197-11.571-10.578-34.482-10.578-66.712c0.026-35.903,7.855-83.469,35.821-140.355l5.899-12.026l-11.85-6.2
		C69.463,420.032,39.216,353.018,30.074,322.699l44.108-17.583l-25.983-41.172c17.107-13.326,65.48-43.988,150.008-44.041
		c16.772,0,35.033,1.213,54.74,4.075l13.247,1.89l2.226-13.178c19.572-113.991,73.924-163.441,99.96-181.481l30.326,36.514
		l30.541-36.741l5.255,2.634c24.427,18.079,77.371,68.415,96.65,179.074l2.251,13.178l13.273-1.95
		c20.297-2.996,38.987-4.27,56.202-4.27c79.502,0.054,126.479,27.39,147.259,43.183l-25.365,40.167l45.206,18.033
		C762.738,345.933,734.128,417.498,627.839,473.713z M346.017,508.449c0-5.583-4.397-5.677-5.953-5.677
		c-1.005,0-5.953,0.275-7.132,0.368c-9.25,0.362-17.939,0.549-24.534,0.73c0.362-1.924,0.912-4.946,0.912-6.864
		c0-3.479-2.2-5.221-6.409-5.221c-1.18,0-4.115,0.187-5.215,3.205c-0.362,1.193-1.381,7.325-1.743,9.157
		c-0.817,0-8.969,0.094-9.237,0.094l-2.386-0.094c-4.397-0.181-6.034,1.924-6.034,5.764c0,3.391,1.636,4.946,3.111,5.309
		c1.916,0.462,10.055,0.367,12.536,0.274c-4.68,22.799-11.893,40.737-14.091,45.497c-2.024,4.397-2.118,5.402-2.118,6.409
		c0,4.397,4.773,5.496,6.783,5.496c3.299,0,4.571-2.38,4.854-2.929c2.01-3.573,6.944-18.495,8.874-24.99
		c5.041-16.572,5.578-19.225,7.871-29.664c11.168-0.275,22.616-0.642,33.771-1.193C342.075,514.033,346.017,513.757,346.017,508.449
		z M317.916,525.2c-3.941,0.825-5.309,2.748-5.309,5.585c0,0.824,0,5.583,5.041,5.583c0.819,0,1.917-0.094,9.064-0.73
		c1.367-0.094,6.032-0.462,12.066-0.462c2.023,0,3.123,0,4.397,0.093c2.118,0.095,5.683,0.369,6.328,0.369
		c1.462,0,2.655-0.094,3.834-0.919c1.381-1.005,1.93-3.11,1.93-4.304c0-4.484,0-6.864-14.922-6.864
		C334.032,523.551,323.869,523.921,317.916,525.2z M341.713,584.774c-8.702,0-15.927,6.958-15.927,15.833
		c0,9.157,7.507,15.935,15.927,15.935c8.433,0,15.833-6.778,15.833-15.935C357.546,591.819,350.414,584.774,341.713,584.774z
		 M341.713,609.119c-4.572,0-8.513-3.66-8.513-8.513c0-4.76,3.848-8.513,8.513-8.513c4.678,0,8.513,3.848,8.513,8.513
		C350.225,605.46,346.285,609.119,341.713,609.119z M344.837,442.012c-0.376,1.28-1.556,7.501-1.932,8.875
		c-2.56,8.607-7.601,18.675-27.095,18.675c-17.576,0-17.576-10.436-17.576-22.242c0-3.941,0-6.958,0.643-24.534
		c0.082-2.199,0.724-12.91,0.724-15.291c0-2.104,0-6.864-6.314-6.771c-5.309,0-6.502,2.467-6.864,6.041
		c0,0.367-0.738,29.387-0.738,44.034c0,12.629,1.93,19.132,8.794,24.622c4.854,3.847,11.985,5.765,21.693,5.765
		c13.915,0,25.901-4.022,33.235-14.735c6.314-9.25,7.964-19.131,7.964-22.609c0-5.309-5.497-5.585-6.959-5.585
		C349.409,438.258,345.936,438.258,344.837,442.012z M287.98,329.892c7.145,0,18.486-0.181,25.634-0.275l0.173,8.332
		c-7.855,0-20.498,0.181-28.462,0.181c-2.748,0-5.483,1.005-5.483,5.128c0,5.215,3.472,5.215,8.875,5.215
		c7.051,0,18.205-0.181,25.258-0.275l0.188,7.876c-1.744-0.188-4.586-0.644-8.688-0.644c-16.679,0-25.459,7.596-25.459,17.302
		c0,11.168,10.899,17.121,25.808,17.121c18.045,0,20.056-9.889,20.512-18.951c1.649,0.824,3.486,1.83,5.953,3.386
		c4.397,2.842,8.687,6.039,11.168,8.331c2.749,2.561,4.116,3.66,6.502,3.66c3.191,0,6.127-3.291,6.127-6.864
		c0-0.919,0-2.93-3.741-5.953c-4.316-3.479-14.934-11.073-26.088-14.733l-0.188-10.713c3.016-0.093,17.844-0.549,21.237-0.643
		c4.572-0.087,7.869-0.182,7.869-5.121c0-4.948-3.66-5.222-5.403-5.222c-0.361,0-1.179,0-2.279,0.094
		c-3.124,0.088-18.233,0.456-21.612,0.551l-0.188-8.239c11.356-0.37,12.55-0.275,22.711-0.644c4.211-0.093,7.589-0.275,7.589-5.309
		c0-5.129-4.116-5.215-5.497-5.215c-0.269,0-1.181,0.086-2.279,0.086c-3.299,0.188-19.133,0.551-22.711,0.644l-0.081-4.947
		c-0.094-4.211-2.574-5.397-6.046-5.397c-2.937,0-6.127,1.005-6.048,5.397l0.109,5.221c-3.299,0-19.414,0.181-23.087,0.181h-4.934
		c-2.198,0-6.408,0-6.408,5.129C279.009,329.892,282.496,329.892,287.98,329.892z M313.974,373.832
		c-0.535,3.66-3.11,5.765-9.706,5.765c-6.864,0-12.898-2.192-12.898-7.139c0-6.864,9.6-7.596,13.541-7.596
		c4.854,0,7.602,0.911,9.344,1.461C314.256,371.178,314.256,372.183,313.974,373.832z M438.537,345.45
		c13.459-6.864,26.827-13.823,39.093-22.611c4.76-3.479,6.141-5.034,6.141-7.689c0-4.028-3.755-6.039-7.066-6.039
		c-2.547,0-4.209,1.375-6.127,2.93c-9.062,7.508-18.487,12.998-45.22,28.375c-2.749,1.562-6.958,4.028-6.958,9.706
		c0,5.49,4.034,7.87,6.69,9.245c2.011,1.098,12.629,5.858,14.908,7.051c17.59,8.789,25.915,14.922,34.979,21.511
		c2.292,1.649,4.116,2.836,6.676,2.836c3.942,0,6.69-3.754,6.69-6.589c0-3.299-1.368-5.034-12.094-11.443
		c-15.377-9.245-25.351-13.642-38.449-19.5c-3.192-1.374-4.104-2.2-4.104-3.567C433.696,348.292,434.689,347.374,438.537,345.45z
		 M461.878,262.63l-0.363-18.126c11.436,0,24.36-0.457,26.464-0.732c2.923-0.368,4.572-2.473,4.572-5.953
		c0-3.384-1.648-5.953-5.671-5.953c-0.831,0-2.105,0.095-2.748,0.095c-6.14,0.275-17.59,0.643-22.899,0.643v-8.789
		c0-3.754-1.274-6.408-6.489-6.408c-5.121,0-6.409,2.836-6.328,6.496l0.925,36.252c-1.649-0.182-4.036-0.456-7.227-0.456
		c-14.746,0-26.92,6.495-26.92,19.586c0,14.191,13.004,18.951,25.083,18.951c21.143,0,21.599-12.361,21.411-23.253
		c6.328,2.653,11.717,5.583,17.858,11.717c4.397,4.397,6.046,6.046,8.887,6.046c3.379,0,6.959-3.392,6.959-7.687
		c0-2.569-1.381-4.03-4.036-6.408C483.127,271.237,472.308,266.384,461.878,262.63z M447.694,284.872
		c-1.65,1.648-5.041,2.474-8.42,2.474c-4.491,0-11.986-1.28-11.986-8.058c0-7.688,9.694-8.874,14.64-8.874
		c3.66,0,5.497,0.361,7.696,0.911C449.624,280.387,449.624,282.861,447.694,284.872z M485.957,405.211
		c-9.788,0-60.974,1.736-65.72,2.199c-4.399,0.456-5.953,2.379-5.953,6.314c0,2.56,0.724,6.316,6.032,6.316
		c1.019,0,5.872-0.456,6.971-0.551c10.055-0.73,20.218-1.374,30.3-2.01c-3.943,2.286-7.615,4.483-12.817,9.699
		c-10.082,10.162-11.718,18.856-11.718,25.54c0,8.788,3.929,17.945,13.086,22.153c6.221,2.844,16.382,5.497,29.388,5.497
		c5.59,0,11.073,0,11.073-7.053c0-2.472-0.911-4.665-3.927-5.402c-1.381-0.363-2.198-0.275-9.531-0.275
		c-16.933,0-27.552-3.479-27.552-16.021c0-13.454,12.08-23.341,18.409-27.182c9.236-5.678,14.827-7.146,22.147-7.234
		c5.041,0,9.252,0,9.252-6.132C495.395,405.211,491.184,405.211,485.957,405.211z M352.425,560.079c-0.83,0-1.367,0.094-2.467,0.182
		c-5.684,0.549-9.801,1.005-15.74,1.005c-3.754,0-7.239-0.275-9.625-0.819c-3.192-0.644-5.029-1.837-5.029-4.304
		c0-0.917,0.094-1.193,0.818-2.929c0.188-0.462,0.551-1.288,0.551-2.38c0-3.023-3.392-4.028-5.592-4.028
		c-7.039,0-8.044,7.964-8.044,10.618c0,11.349,9.332,15.009,31.024,15.009c2.842,0,11.261,0,15.659-1.187
		c2.748-0.73,3.941-2.835,3.941-5.765C357.922,562.183,356.273,560.079,352.425,560.079z M474.695,426.078
		c-1.288,0-3.299,1.013-3.299,2.748c0,0.551,0.188,1.193,0.456,1.744c0.376,0.637,2.025,3.66,2.386,4.297
		c0.644,1.193,1.476,3.023,2.106,4.215c0.549,1.005,1.381,1.917,2.48,1.917c1.1,0,3.473-0.636,3.473-2.929
		c0-1.462-2.281-6.04-3.378-7.87C476.893,426.815,476.169,426.078,474.695,426.078z M489.991,516.868
		c-1.193,0-6.501,0.825-7.695,1.006c-3.017,0.368-7.87,0.824-12.642,1.098c-0.63-1.28-1.556-3.291-3.111-7.32
		c5.497-0.368,13.192-1.012,15.941-1.468c2.561-0.362,5.671-1.186,5.671-5.215c0-5.222-4.021-5.222-5.309-5.222
		c-1.367,0-7.964,0.825-9.439,1.013c-3.191,0.275-5.483,0.549-10.149,0.824c-0.361-1.467-2.024-6.958-2.386-7.783
		c-0.912-2.017-2.654-2.653-4.76-2.653c-1.098,0-6.864,0.361-6.864,5.309c0,1.1,0.188,2.105,1.195,5.671
		c-3.581,0.093-8.702,0.275-10.901,0.275c-2.011,0-12.173-0.088-14.452-0.088c-3.03,0-6.515,0-6.515,5.129
		c0,2.835,1.38,4.484,2.842,4.846c1.556,0.462,4.49,0.369,10.256,0.369c5.027,0,6.769,0,22.053-0.456
		c0.47,1.28,1.019,3.017,3.03,7.502c-11.261,0.461-14.559,0.643-20.874,0.643c-2.186,0-12.817-0.368-15.284-0.368
		c-1.916,0-5.402,0.275-5.402,5.041c0,3.109,1.649,4.39,2.842,4.758c1.824,0.456,11.261,0.551,13.729,0.551
		c6.771,0,8.338-0.095,29.749-0.825c3.016,5.49,3.928,6.771,5.591,8.875c-6.234-1.556-12.092-2.192-18.045-2.192
		c-7.401,0-16.384,1.281-21.881,5.122c-4.209,3.023-7.053,7.232-7.053,13.184c0,7.508,4.962,12.542,10.27,14.735
		c7.683,3.297,16.196,3.754,24.534,3.754c13.541,0,24.16-2.286,28.101-3.66c1.649-0.549,4.572-1.556,4.572-5.678
		c0-1.093-0.362-5.764-5.122-5.764c-1.005,0-1.554,0.181-6.69,1.374c-9.706,2.286-16.932,2.748-22.067,2.748
		c-6.676,0-11.61-0.644-15.47-1.924c-1.274-0.456-5.659-2.38-5.659-6.503c0-4.484,4.934-8.325,16.276-8.325
		c8.889,0,17.777,1.642,26.197,4.76c2.091,0.824,2.923,0.824,3.567,0.824c3.109,0,6.139-2.568,6.139-6.133
		c0-2.019-1.005-3.299-1.649-4.03c-3.111-3.934-5.59-7.689-8.15-11.905c5.121-0.456,13.633-1.093,16.114-1.917
		c2.011-0.738,3.567-2.018,3.567-4.854C494.658,520.621,494.388,516.868,489.991,516.868z M486.238,435.053
		c0.268,0.456,1.193,1.462,2.372,1.462c1.475,0,3.392-0.911,3.392-2.836c0-2.198-2.923-6.957-3.567-7.962
		c-1.742-2.844-2.385-3.936-4.034-3.936c-1.274,0-3.205,1.006-3.205,2.655c0,0.549,0.094,1.092,0.456,1.829
		c0.282,0.637,2.024,3.567,2.386,4.304C484.306,431.112,485.876,434.316,486.238,435.053z"></path>
</g>
</svg>
